{
.appVersion = "3151";
.formatVersion = 3;
customParameters = (
{
name = fsType;
value = (
);
},
{
name = "Use Line Breaks";
value = 1;
},
{
name = "Use Typo Metrics";
value = 1;
}
);
date = "2018-01-09 15:50:05 +0000";
familyName = Metrophobic;
featurePrefixes = (
{
automatic = 1;
code = "languagesystem DFLT dflt;

languagesystem latn dflt;
languagesystem latn AZE;
languagesystem latn CRT;
languagesystem latn KAZ;
languagesystem latn TAT;
languagesystem latn TRK;
languagesystem latn ROM;
languagesystem latn MOL;
languagesystem latn CAT;
";
name = Languagesystems;
}
);
features = (
{
automatic = 1;
code = "feature locl;
feature sups;
feature frac;
feature ordn;
feature case;
";
tag = aalt;
},
{
automatic = 1;
code = "lookup ccmp_Other_1 {
	@CombiningTopAccents = [acutecomb brevecomb breveinvertedcomb caroncomb circumflexcomb commaturnedabovecomb dblgravecomb dieresiscomb dotaccentcomb gravecomb hookabovecomb hungarumlautcomb macroncomb ringcomb tildecomb];
	@CombiningNonTopAccents = [brevebelowcomb cedillacomb dieresisbelowcomb dotbelowcomb macronbelowcomb ogonekcomb horncomb slashlongcomb strokeshortcomb];
	sub [i j]' @CombiningTopAccents by [idotless jdotless];
	sub [i j]' @CombiningNonTopAccents @CombiningTopAccents by [idotless jdotless];
} ccmp_Other_1;

lookup ccmp_latn_1 {
	sub fi by f i;
	sub fl by f l;
	sub Ldot by L periodcentered.loclCAT.case;
	sub lj by l j;
	sub Lj by L j;
	sub LJ by L J;
	sub nj by n j;
	sub Nj by N j;
	sub NJ by N J;
	sub dzcaron by d zcaron;
	sub Dzcaron by D zcaron;
	sub DZcaron by D Zcaron;
} ccmp_latn_1;

lookup ccmp_latn_2 {
	lookupflag 0;
	sub brevecomb acutecomb by brevecomb_acutecomb;
	sub brevecomb gravecomb by brevecomb_gravecomb;
	sub brevecomb hookabovecomb by brevecomb_hookabovecomb;
	sub brevecomb tildecomb by brevecomb_tildecomb;
	sub circumflexcomb acutecomb by circumflexcomb_acutecomb;
	sub circumflexcomb gravecomb by circumflexcomb_gravecomb;
	sub circumflexcomb hookabovecomb by circumflexcomb_hookabovecomb;

glyphs = (
{
glyphname = A;
kernLeft = A;
kernRight = A;
lastChange = "2023-01-25 11:11:13 +0000";
layers = (
{
anchors = (
{
name = bottom;
pos = (683,0);
},
{
name = ogonek;
pos = (1232,0);
},
{
name = top;
pos = (683,1441);
}
);
layerId = "2F8B9CD4-7B7F-4ACC-ADF3-B6E0F7033A19";
shapes = (
{
closed = 1;
nodes = (
(217,0,l),
(353,361,l),
(1023,361,l),
(1160,0,l),
(1336,0,l),
(785,1441,l),
(584,1441,l),
(40,0,l)
);
},
{
closed = 1;
nodes = (
(685,1294,l),
(975,502,l),
(400,502,l)
);
}
);
width = 1376;
}
);
note = A;
unicode = 65;
},
{
glyphname = AE;
kernLeft = AE;
kernRight = E;
layers = (
{
anchors = (
{
name = bottom;
pos = (1141,0);
},
{
name = ogonek;
pos = (1980,0);
},
{
name = top;
pos = (1219,1441);
},
{
name = topleft;
pos = (1977,1441);
}
);
background = {
shapes = (
{
closed = 1;
nodes = (
(383,361,l),
(1149,361,l),
(1122,502,l),
(430,502,l)
);
},
{
closed = 1;
nodes = (
(1251,677,l),
(1859,677,l),
(1859,827,l),
(1251,827,l),
(1251,1289,l),
(1977,1289,l),
(1977,1441,l),
(1077,1441,l),
(10,0,l),
(207,0,l),
(1126,1253,l),
(1077,1262,l),
(1077,0,l),
(1980,0,l),
(1980,152,l),
(1251,152,l)
);
}
);
};
layerId = "2F8B9CD4-7B7F-4ACC-ADF3-B6E0F7033A19";
shapes = (
{
closed = 1;
nodes = (
(1251,677,l),
(1859,677,l),
(1859,827,l),
(1251,827,l),
(1251,1289,l),
(1977,1289,l),
(1977,1441,l),
(1077,1441,l),
(10,0,l),
(207,0,l),
(472,361,l),
(1077,361,l),
(1077,0,l),
(1980,0,l),
(1980,152,l),
(1251,152,l)
);
},
{
closed = 1;
nodes = (
(1077,1186,l),
(1077,502,l),
(575,502,l)
);
}
);
width = 2090;
}
);
metricRight = "=E";
note = AE;
unicode = 198;
},
{
color = 3;
glyphname = B;
kernLeft = H;
kernRight = B;
lastChange = "2023-01-25 11:11:32 +0000";
layers = (
{
anchors = (
{
name = bottom;
pos = (705,0);
},
{
name = top;
pos = (665,1441);
}
);
background = {
shapes = (
{
closed = 1;
nodes = (
(945,1294,o),
(1039,1276,o),
(1039,1079,cs),
(1039,898,o),
(938,833,o),
(732,833,cs),
(390,833,l),
(390,1294,l),
(720,1294,ls)
);
},
{
closed = 1;
nodes = (
(986,691,o),
(1091,625,o),
(1091,410,cs),
(1091,189,o),
(999,146,o),
(777,146,cs),
(390,146,l),
(390,691,l),
(752,691,ls)
);
},
{
closed = 1;
nodes = (
(806,0,ls),
(910,0,o),
(977,10,o),
(1034,27,cs),
(1201,77,o),
(1269,220,o),
(1269,407,cs),
(1269,634,o),
(1184,737,o),
(967,770,c),
(1127,810,o),
(1198,898,o),
(1198,1072,cs),
(1198,1313,o),
(1091,1441,o),
(840,1441,cs),
(220,1441,l),
(220,0,l)
);
}
);
};
layerId = "2F8B9CD4-7B7F-4ACC-ADF3-B6E0F7033A19";
shapes = (
{
closed = 1;
nodes = (
(778,0,ls),
(1121,0,o),
(1269,130,o),
(1269,401,cs),
(1269,632,o),
(1160,750,o),
(929,775,c),
(932,762,l),
(1124,799,o),
(1198,898,o),
(1198,1098,cs),
(1198,1354,o),
(1043,1441,o),
(709,1441,cs),
(220,1441,l),
(220,0,l)
);
},
{
closed = 1;
nodes = (
(390,691,l),
(752,691,ls),
(996,691,o),
(1096,612,o),
(1096,410,cs),
(1096,209,o),
(1016,146,o),
(777,146,cs),
(390,146,l)
);
},
{
closed = 1;
nodes = (
(390,1294,l),
(720,1294,ls),
(942,1294,o),
(1025,1242,o),
(1025,1079,cs),
(1025,902,o),
(939,833,o),
(752,833,cs),
(390,833,l)
);
}
);
width = 1409;
}
);
metricLeft = "=H";
note = B;
unicode = 66;
},
{
color = 3;
glyphname = C;
kernLeft = O;
kernRight = C;
layers = (
{
anchors = (
{
name = bottom;
pos = (770,-20);
},
{
name = top;
pos = (761,1441);
}
);
background = {
shapes = (
{
closed = 1;
nodes = (
(2858,263,o),
(2829,217,o),
(2756,169,cs),
(2677,117,o),
(2592,110,o),
(2463,110,cs),
(2378,110,o),
(2306,129,o),
(2248,151,cs),
(2130,196,o),
(2081,258,o),
(2045,380,cs),
(2022,457,o),
(2005,566,o),
(2005,714,cs),
(2005,863,o),
(2024,975,o),
(2049,1055,cs),
(2086,1174,o),
(2139,1237,o),
(2249,1282,cs),
(2304,1305,o),
(2398,1322,o),
(2494,1322,cs),
(2595,1322,o),
(2678,1315,o),
(2756,1264,cs),
(2829,1216,o),
(2858,1170,o),
(2871,1033,c),
(3040,1033,l),
(3042,1183,o),
(2981,1284,o),
(2902,1351,cs),
(2795,1442,o),
(2624,1472,o),
(2471,1472,cs),
(2339,1472,o),
(2233,1444,o),
(2153,1408,cs),
(2014,1344,o),
(1938,1256,o),
(1883,1097,cs),
(1850,1002,o),
(1825,872,o),
(1825,699,cs),
(1825,559,o),
(1846,436,o),
(1879,337,cs),
(1930,178,o),
(2005,84,o),
(2158,20,cs),
(2234,-13,o),
(2338,-39,o),
(2470,-39,cs),
(2624,-39,o),
(2799,-6,o),
(2902,82,cs),
(2980,149,o),
(3042,250,o),
(3040,400,c),
(2871,400,l)
);
},
{
closed = 1;
nodes = (
(1155,1323,o),
(1245,1128,o),
(1245,729,cs),
(1245,325,o),
(1162,110,o),
(775,110,cs),
(391,110,o),
(304,316,o),
(304,721,cs),
(304,1122,o),
(389,1323,o),
(775,1323,cs)
);
},
{
closed = 1;
nodes = (
(125,230,o),
(288,-38,o),
(775,-38,cs),
(1262,-38,o),
(1424,230,o),
(1424,728,cs),
(1424,1215,o),
(1251,1472,o),
(775,1472,cs),
(300,1472,o),
(125,1218,o),
(125,727,cs)
);
}
);
};
layerId = "2F8B9CD4-7B7F-4ACC-ADF3-B6E0F7033A19";
shapes = (
{
closed = 1;
nodes = (
(1171,214,o),
(1024,110,o),
(763,110,cs),
(433,110,o),
(305,279,o),
(305,714,cs),
(305,1152,o),
(442,1322,o),
(794,1322,cs),
(1035,1322,o),
(1171,1218,o),
(1171,1033,c),
(1340,1033,l),
(1344,1314,o),
(1147,1472,o),
(794,1472,cs),
(339,1472,o),
(125,1225,o),
(125,709,cs),
(125,200,o),
(331,-39,o),
(770,-39,cs),
(1139,-39,o),
(1344,119,o),
(1340,400,c),
(1171,400,l)
);
}
);
width = 1450;
}
);
metricLeft = "=O";
note = C;
unicode = 67;
},
{
glyphname = D;
kernLeft = H;
kernRight = O;
layers = (
{
anchors = (
{
name = bottom;
pos = (719,0);
},
{
name = center;
pos = (433,721);
},
{
name = top;
pos = (709,1441);
}
);
background = {
shapes = (
{
closed = 1;
nodes = (
(872,0,o),
(1055,45,o),
(1166,140,cs),
(1312,265,o),
(1362,496,o),
(1362,727,cs),
(1362,945,o),
(1318,1159,o),
(1170,1292,cs),
(1050,1400,o),
(877,1441,o),
(698,1441,cs),
(220,1441,l),
(220,0,l),
(694,0,ls)
);
},
{
closed = 1;
nodes = (
(924,1289,o),
(1086,1231,o),
(1144,1033,cs),
(1165,961,o),
(1183,862,o),
(1183,723,cs),
(1183,579,o),
(1165,477,o),
(1142,405,cs),
(1119,333,o),
(1091,295,o),
(1069,271,cs),
(993,188,o),
(838,152,o),
(701,152,cs),
(394,152,l),
(394,1289,l),
(683,1289,ls)
);
}
);
};
layerId = "2F8B9CD4-7B7F-4ACC-ADF3-B6E0F7033A19";
shapes = (
{
closed = 1;
nodes = (
(1148,0,o),
(1362,233,o),
(1362,727,cs),
(1362,1213,o),
(1150,1441,o),
(698,1441,cs),
(220,1441,l),
(220,0,l),
(694,0,ls)
);
},
{
closed = 1;
nodes = (
(1063,1289,o),
(1183,1153,o),
(1183,723,cs),
(1183,312,o),
(1048,152,o),
(701,152,cs),
(394,152,l),
(394,1289,l),
(683,1289,ls)
);
}
);
width = 1487;
}
);
metricLeft = "=H";
metricRight = "=O";
note = D;
unicode = 68;
},
{
color = 3;
glyphname = Eth;
kernLeft = H;
kernRight = O;
layers = (
{
background = {
shapes = (
{
closed = 1;
nodes = (
(63,657,l),
(663,657,l),
(663,810,l),
(63,810,l)
);
},
{
closed = 1;
nodes = (
(1168,0,o),
(1382,233,o),
(1382,727,cs),
(1382,1213,o),
(1170,1441,o),
(718,1441,cs),
(240,1441,l),
(240,0,l),
(714,0,ls)
);
},
{
closed = 1;
nodes = (
(1083,1289,o),
(1203,1153,o),
(1203,723,cs),
(1203,312,o),
(1068,152,o),
(721,152,cs),
(414,152,l),
(414,1289,l),
(703,1289,ls)
);
}
);
};
layerId = "2F8B9CD4-7B7F-4ACC-ADF3-B6E0F7033A19";
shapes = (
{
closed = 1;
nodes = (
(63,657,l),
(240,657,l),
(240,0,l),
(714,0,ls),
(1168,0,o),
(1382,233,o),
(1382,727,cs),
(1382,1213,o),
(1170,1441,o),
(718,1441,cs),
(240,1441,l),
(240,810,l),
(63,810,l)
);
},
{
closed = 1;
nodes = (
(414,657,l),
(663,657,l),
(663,810,l),
(414,810,l),
(414,1289,l),
(703,1289,ls),
(1083,1289,o),
(1203,1153,o),
(1203,723,cs),
(1203,312,o),
(1068,152,o),
(721,152,cs),
(414,152,l)
);
}
);
width = 1507;
}
);
metricRight = "=D";
note = Eth;
unicode = 208;
},
{
color = 3;
glyphname = Dcroat;
kernLeft = H;
kernRight = O;
layers = (
{
layerId = "2F8B9CD4-7B7F-4ACC-ADF3-B6E0F7033A19";
shapes = (
{
closed = 1;
nodes = (
(1148,0,o),
(1362,233,o),
(1362,727,cs),
(1362,1213,o),
(1150,1441,o),
(698,1441,cs),
(220,1441,l),
(220,780,l),
(64,780,l),
(64,662,l),
(220,662,l),
(220,0,l),
(694,0,ls)
);
},
{
closed = 1;
nodes = (
(394,662,l),
(802,662,l),
(802,780,l),
(394,780,l),
(394,1289,l),
(683,1289,ls),
(1063,1289,o),
(1183,1153,o),
(1183,723,cs),
(1183,312,o),
(1048,152,o),
(701,152,cs),
(394,152,l)
);
}
);
width = 1487;
}
);
unicode = 272;
},
{
glyphname = E;
kernLeft = H;
kernRight = E;
layers = (
{
anchors = (
{
name = bottom;
pos = (706,0);
},
{
name = ogonek;
pos = (1066,0);
},
{
name = top;
pos = (706,1441);
},
{
name = topleft;
pos = (78,1441);
}
);
layerId = "2F8B9CD4-7B7F-4ACC-ADF3-B6E0F7033A19";
shapes = (
{
closed = 1;
nodes = (
(1183,0,l),
(1183,152,l),
(394,152,l),
(394,677,l),
(1062,677,l),
(1062,827,l),
(394,827,l),
(394,1289,l),
(1180,1289,l),
(1180,1441,l),
(220,1441,l),
(220,0,l)
);
}
);
width = 1293;
}
);
metricLeft = "=H";
note = E;
unicode = 69;
},
{
color = 3;
glyphname = Schwa;
kernLeft = O;
kernRight = O;
layers = (
{
anchors = (
{
name = bottom;
pos = (760,0);
},
{
name = top;
pos = (760,1441);
}
);
background = {
shapes = (
{
closed = 1;
nodes = (
(1128,1323,o),
(1215,1128,o),
(1215,729,cs),
(1215,325,o),
(1135,110,o),
(760,110,cs),
(388,110,o),
(304,316,o),
(304,721,cs),
(304,1122,o),
(386,1323,o),
(760,1323,cs)
);
},
{
closed = 1;
nodes = (
(125,230,o),
(284,-38,o),
(760,-38,cs),
(1236,-38,o),
(1394,230,o),
(1394,728,cs),
(1394,1215,o),
(1225,1472,o),
(760,1472,cs),
(296,1472,o),
(125,1218,o),
(125,727,cs)
);
}
);
};
layerId = "2F8B9CD4-7B7F-4ACC-ADF3-B6E0F7033A19";
shapes = (
{
closed = 1;
nodes = (
(125,734,l),
(125,228,o),
(284,-38,o),
(760,-38,cs),
(1236,-38,o),
(1394,230,o),
(1394,728,cs),
(1394,1233,o),
(1188,1472,o),
(749,1472,cs),
(380,1472,o),
(175,1314,o),
(179,1033,c),
(348,1033,l),
(348,1219,o),
(495,1323,o),
(756,1323,cs),
(1086,1323,o),
(1213,1154,o),
(1214,719,cs),
(1215,325,o),
(1135,110,o),
(760,110,cs),
(439,110,o),
(332,262,o),
(308,584,c),
(1322,584,l),
(1322,734,l)
);
}
);
width = 1519;
}
);
metricLeft = "=O";
metricRight = "=O";
unicode = 399;
},
{
glyphname = F;
kernLeft = H;
kernRight = F;
layers = (
{
anchors = (
{
name = bottom;
pos = (596,0);
},
{
name = top;
pos = (596,1441);
}
);
layerId = "2F8B9CD4-7B7F-4ACC-ADF3-B6E0F7033A19";
shapes = (
{
closed = 1;
nodes = (
(394,0,l),
(394,677,l),
(1055,677,l),
(1055,827,l),
(394,827,l),
(394,1289,l),
(1180,1289,l),
(1180,1441,l),
(220,1441,l),
(220,0,l)
);
}
);
width = 1250;
}
);
metricLeft = "=H";
note = F;
unicode = 70;
},
{
color = 3;
glyphname = G;
kernLeft = O;
kernRight = G;
lastChange = "2023-01-25 11:11:30 +0000";
layers = (
{
anchors = (
{
name = bottom;
pos = (748,0);
},
{
name = top;
pos = (748,1441);
}
);
background = {
shapes = (
{
closed = 1;
nodes = (
(1625,872,o),
(1650,1002,o),
(1683,1097,cs),
(1738,1256,o),
(1814,1344,o),
(1953,1408,cs),
(2033,1444,o),
(2139,1472,o),
(2271,1472,cs),
(2424,1472,o),
(2595,1442,o),
(2702,1351,cs),
(2780,1284,o),
(2842,1183,o),
(2840,1033,c),
(2671,1033,l),
(2658,1170,o),
(2629,1216,o),
(2556,1264,cs),
(2478,1315,o),
(2395,1322,o),
(2274,1322,cs),
(2178,1322,o),
(2104,1305,o),
(2049,1282,cs),
(1939,1237,o),
(1886,1174,o),
(1849,1055,cs),
(1824,975,o),
(1805,863,o),
(1805,714,cs),
(1805,566,o),
(1822,457,o),
(1845,380,cs),
(1881,258,o),
(1930,196,o),
(2048,151,cs),
(2108,128,o),
(2182,110,o),
(2270,110,cs),
(2359,110,o),
(2455,132,o),
(2521,166,cs),
(2642,229,o),
(2677,334,o),
(2677,465,cs),
(2677,544,l),
(2240,544,l),
(2240,704,l),
(2851,704,l),
(2851,-10,l),
(2727,-10,l),
(2710,193,l),
(2646,71,o),
(2582,16,o),
(2435,-24,cs),
(2388,-37,o),
(2332,-39,o),
(2270,-39,cs),
(2138,-39,o),
(2034,-13,o),
(1958,20,cs),
(1805,84,o),
(1730,178,o),
(1679,337,cs),
(1646,436,o),
(1625,559,o),
(1625,699,cs)
);
},
{
closed = 1;
nodes = (
(1171,214,o),
(1024,110,o),
(763,110,cs),
(433,110,o),
(305,279,o),
(305,714,cs),
(305,1152,o),
(442,1322,o),
(794,1322,cs),
(1035,1322,o),
(1171,1218,o),
(1171,1033,c),
(1340,1033,l),
(1344,1314,o),
(1147,1472,o),
(794,1472,cs),
(339,1472,o),
(125,1225,o),
(125,709,cs),
(125,200,o),
(331,-39,o),
(770,-39,cs),
(1139,-39,o),
(1344,119,o),
(1340,400,c),
(1171,400,l)
);
}
);
};
layerId = "2F8B9CD4-7B7F-4ACC-ADF3-B6E0F7033A19";
shapes = (
{
closed = 1;
nodes = (
(996,-39,o),
(1142,45,o),
(1225,224,c),
(1206,238,l),
(1227,-10,l),
(1351,-10,l),
(1351,704,l),
(740,704,l),
(740,552,l),
(1177,552,l),
(1177,465,ls),
(1177,238,o),
(1030,110,o),
(770,110,cs),
(433,110,o),
(305,279,o),
(305,714,cs),
(305,1152,o),
(442,1322,o),
(794,1322,cs),
(1035,1322,o),
(1171,1218,o),
(1171,1033,c),
(1340,1033,l),
(1344,1314,o),
(1147,1472,o),
(794,1472,cs),
(339,1472,o),
(125,1225,o),
(125,708,cs),
(125,200,o),
(331,-39,o),
(770,-39,cs)
);
}
);
width = 1556;
}
);
metricLeft = "=O";
note = G;
unicode = 71;
},
{
color = 3;
glyphname = H;
kernLeft = H;
kernRight = H;
layers = (
{
anchors = (
{
name = bottom;
pos = (795,0);
},
{
name = center;
pos = (795,721);
},
{
name = top;
pos = (795,1441);
},
{
name = topleft;
pos = (53,1441);
}
);
layerId = "2F8B9CD4-7B7F-4ACC-ADF3-B6E0F7033A19";
shapes = (
{
closed = 1;
nodes = (
(394,0,l),
(394,677,l),
(1196,677,l),
(1196,0,l),
(1370,0,l),
(1370,1441,l),
(1196,1441,l),
(1196,829,l),
(394,829,l),
(394,1441,l),
(220,1441,l),
(220,0,l)
);
}
);
width = 1590;
}
);
note = H;
unicode = 72;
},
{
color = 3;
glyphname = Hbar;
kernLeft = H;
kernRight = H;
layers = (
{
layerId = "2F8B9CD4-7B7F-4ACC-ADF3-B6E0F7033A19";
shapes = (
{
closed = 1;
nodes = (
(62,1088,l),
(220,1088,l),
(220,0,l),
(394,0,l),
(394,677,l),
(1196,677,l),
(1196,0,l),
(1370,0,l),
(1370,1088,l),
(1528,1088,l),
(1528,1234,l),
(1370,1234,l),
(1370,1441,l),
(1196,1441,l),
(1196,1234,l),
(394,1234,l),
(394,1441,l),
(220,1441,l),
(220,1234,l),
(62,1234,l)
);
},
{
closed = 1;
nodes = (
(394,1088,l),
(1196,1088,l),
(1196,829,l),
(394,829,l)
);
}
);
width = 1590;
}
);
unicode = 294;
},
{
color = 3;
glyphname = I;
kernLeft = I;
kernRight = I;
layers = (
{
anchors = (
{
name = bottom;
pos = (495,0);
},
{
name = ogonek;
pos = (554,0);
},
{
name = top;
pos = (495,1441);
},
{
name = topleft;
pos = (144,1441);
}
);
layerId = "2F8B9CD4-7B7F-4ACC-ADF3-B6E0F7033A19";
shapes = (
{
closed = 1;
nodes = (
(410,1294,l),
(410,147,l),
(210,147,l),
(210,0,l),
(784,0,l),
(784,147,l),
(584,147,l),
(584,1294,l),
(794,1294,l),
(794,1441,l),
(200,1441,l),
(200,1294,l)
);
}
);
width = 994;
}
);
note = I;
unicode = 73;
},
{
color = 3;
glyphname = J;
kernLeft = J;
kernRight = U;
layers = (
{
anchors = (
{
name = bottom;
pos = (409,-42);
},
{
name = top;
pos = (652,1441);
}
);
background = {
shapes = (
{
closed = 1;
nodes = (
(564,191,o),
(561,95,o),
(410,95,cs),
(283,95,o),
(243,147,o),
(241,275,c),
(81,275,l),
(81,266,o),
(80,258,o),
(80,250,cs),
(80,56,o),
(205,-42,o),
(409,-42,cs),
(652,-42,o),
(738,96,o),
(738,348,cs),
(738,1441,l),
(564,1441,l),
(564,396,ls)
);
}
);
};
guides = (
{
pos = (321,-45);
}
);
layerId = "2F8B9CD4-7B7F-4ACC-ADF3-B6E0F7033A19";
shapes = (
{
closed = 1;
nodes = (
(564,165,o),
(510,92,o),
(394,92,cs),
(294,92,o),
(231,138,o),
(231,275,c),
(81,275,l),
(81,69,o),
(191,-42,o),
(402,-42,cs),
(623,-42,o),
(738,73,o),
(738,318,cs),
(738,1441,l),
(564,1441,l),
(564,306,ls)
);
}
);
width = 948;
}
);
metricRight = "=U";
note = J;
unicode = 74;
},
{
color = 3;
glyphname = K;
kernLeft = H;
kernRight = K;
layers = (
{
anchors = (
{
name = bottom;
pos = (755,0);
},
{
name = top;
pos = (741,1441);
}
);
background = {
shapes = (
{
closed = 1;
nodes = (
(391,791,l),
(391,1441,l),
(220,1441,l),
(220,0,l),
(391,0,l),
(391,638,l),
(509,638,ls),
(762,638,o),
(824,577,o),
(922,384,cs),
(1118,0,l),
(1312,-2,l),
(1115,372,ls),
(983,623,o),
(902,711,o),
(609,745,c),
(609,695,l),
(930,741,o),
(993,839,o),
(1117,1094,cs),
(1285,1441,l),
(1091,1441,l),
(918,1081,ls),
(822,881,o),
(750,791,o),
(509,791,cs)
);
}
);
};
guides = (
{
pos = (690,835);
},
{
pos = (740,695);
}
);
layerId = "2F8B9CD4-7B7F-4ACC-ADF3-B6E0F7033A19";
shapes = (
{
closed = 1;
nodes = (
(391,791,l),
(391,1441,l),
(220,1441,l),
(220,0,l),
(391,0,l),
(391,638,l),
(509,638,ls),
(762,638,o),
(824,577,o),
(922,384,cs),
(1118,0,l),
(1311,0,l),
(1115,372,ls),
(983,623,o),
(902,711,o),
(609,745,c),
(609,695,l),
(930,741,o),
(994,838,o),
(1117,1094,cs),
(1284,1441,l),
(1091,1441,l),
(918,1081,ls),
(822,881,o),
(750,791,o),
(509,791,cs)
);
}
);
width = 1406;
}
);
metricLeft = "=H";
note = K;
unicode = 75;
},
{
color = 3;
glyphname = L;
kernLeft = H;
kernRight = L;
layers = (
{
anchors = (
{
name = bottom;
pos = (679,0);
},
{
name = center;
pos = (862,811);
},
{
name = top;
pos = (324,1441);
},
{
name = topright;
pos = (498,981);
}
);
layerId = "2F8B9CD4-7B7F-4ACC-ADF3-B6E0F7033A19";
shapes = (
{
closed = 1;
nodes = (
(1069,152,l),
(394,152,l),
(394,1441,l),
(220,1441,l),
(220,0,l),
(1069,0,l)
);
}
);
width = 1119;
}
);
metricLeft = "=H";
note = L;
unicode = 76;
},
{
color = 3;
glyphname = Lslash;
kernLeft = H;
kernRight = L;
layers = (
{
background = {
shapes = (
{
closed = 1;
nodes = (
(0,541,l),
(0,377,l),
(762,873,l),
(762,1037,l)
);
},
{
closed = 1;
nodes = (
(1069,152,l),
(394,152,l),
(394,1441,l),
(220,1441,l),
(220,0,l),
(1069,0,l)
);
}
);
};
layerId = "2F8B9CD4-7B7F-4ACC-ADF3-B6E0F7033A19";
shapes = (
{
closed = 1;
nodes = (
(394,797,l),
(394,1441,l),
(220,1441,l),
(220,684,l),
(0,541,l),
(0,377,l),
(220,520,l),
(220,0,l),
(1069,0,l),
(1069,152,l),
(394,152,l),
(394,633,l),
(762,873,l),
(762,1037,l)
);
}
);
width = 1119;
}
);
metricRight = L;
metricWidth = L;
note = Lslash;
unicode = 321;
},
{
glyphname = M;
kernLeft = H;
kernRight = H;
layers = (
{
anchors = (
{
name = bottom;
pos = (940,0);
},
{
name = top;
pos = (940,1441);
}
);
layerId = "2F8B9CD4-7B7F-4ACC-ADF3-B6E0F7033A19";
shapes = (
{
closed = 1;
nodes = (
(376,0,l),
(376,1286,l),
(412,1286,l),
(828,174,l),
(1059,174,l),
(1478,1286,l),
(1514,1286,l),
(1514,0,l),
(1670,0,l),
(1670,1441,l),
(1373,1441,l),
(961,346,l),
(926,346,l),
(516,1441,l),
(220,1441,l),
(220,0,l)
);
}
);
width = 1890;
}
);
metricLeft = "=H";
metricRight = "=H";
note = M;
unicode = 77;
},
{
color = 3;
glyphname = N;
kernLeft = H;
kernRight = H;
layers = (
{
anchors = (
{
name = bottom;
pos = (841,0);
},
{
name = top;
pos = (841,1441);
}
);
layerId = "2F8B9CD4-7B7F-4ACC-ADF3-B6E0F7033A19";
shapes = (
{
closed = 1;
nodes = (
(376,0,l),
(376,1285,l),
(408,1285,l),
(1199,0,l),
(1462,0,l),
(1462,1441,l),
(1306,1441,l),
(1306,173,l),
(1274,173,l),
(493,1441,l),
(220,1441,l),
(220,0,l)
);
}
);
width = 1682;
}
);
metricLeft = "=H";
metricRight = "=H";
note = N;
unicode = 78;
},
{
color = 3;
glyphname = Eng;
kernLeft = H;
kernRight = H;
lastChange = "2023-01-25 10:50:16 +0000";
layers = (
{
anchors = (
{
name = bottom;
pos = (837,0);
},
{
name = top;
pos = (837,1441);
}
);
background = {
shapes = (
{
closed = 1;
nodes = (
(376,0,l),
(376,1285,l),
(408,1285,l),
(1199,0,l),
(1462,0,l),
(1462,1441,l),
(1306,1441,l),
(1306,173,l),
(1274,173,l),
(493,1441,l),
(220,1441,l),
(220,0,l)
);
}
);
};
layerId = "2F8B9CD4-7B7F-4ACC-ADF3-B6E0F7033A19";
shapes = (
{
closed = 1;
nodes = (
(1306,1441,l),
(1306,128,l),
(1351,173,l),
(1274,173,l),
(494,1441,l),
(220,1441,l),
(220,0,l),
(376,0,l),
(376,1285,l),
(409,1285,l),
(1199,0,l),
(1307,0,l),
(1307,-108,ls),
(1307,-222,o),
(1261,-266,o),
(1143,-266,cs),
(1103,-266,o),
(1083,-265,o),
(1037,-255,c),
(1037,-388,l),
(1069,-396,o),
(1103,-402,o),
(1153,-402,cs),
(1369,-402,o),
(1462,-316,o),
(1462,-87,cs),
(1462,1441,l)
);
}
);
width = 1682;
}
);
metricLeft = H;
metricRight = H;
unicode = 330;
},
{
glyphname = O;
kernLeft = O;
kernRight = O;
lastChange = "2023-01-25 11:11:24 +0000";
layers = (
{
anchors = (
{
name = bottom;
pos = (775,0);
},
{
name = center;
pos = (775,721);
},
{
name = ogonek;
pos = (855,-18);
},
{
name = top;
pos = (775,1441);
},
{
name = topleft;
pos = (24,1441);
},
{
name = topright;
pos = (1108,1409);
}
);
background = {
shapes = (
{
closed = 1;
nodes = (
(1155,1323,o),
(1245,1128,o),
(1245,729,cs),
(1245,325,o),
(1162,110,o),
(775,110,cs),
(391,110,o),
(304,316,o),
(304,721,cs),
(304,1122,o),
(389,1323,o),
(775,1323,cs)
);
},
{
closed = 1;
nodes = (
(125,230,o),
(288,-38,o),
(775,-38,cs),
(1262,-38,o),
(1424,230,o),
(1424,728,cs),
(1424,1215,o),
(1251,1472,o),
(775,1472,cs),
(300,1472,o),
(125,1218,o),
(125,727,cs)
);
}
);
};
layerId = "2F8B9CD4-7B7F-4ACC-ADF3-B6E0F7033A19";
shapes = (
{
closed = 1;
nodes = (
(1262,-38,o),
(1424,230,o),
(1424,728,cs),
(1424,1215,o),
(1251,1472,o),
(775,1472,cs),
(300,1472,o),
(125,1218,o),
(125,727,cs),
(125,230,o),
(288,-38,o),
(775,-38,cs)
);
},
{
closed = 1;
nodes = (
(391,111,o),
(304,316,o),
(304,721,cs),
(304,1122,o),
(389,1323,o),
(775,1323,cs),
(1155,1323,o),
(1245,1128,o),
(1245,729,cs),
(1245,325,o),
(1162,111,o),
(775,111,cs)
);
}
);
width = 1549;
}
);
note = O;
unicode = 79;
},
{
color = 3;
glyphname = OE;
kernLeft = O;
kernRight = E;
layers = (
{
anchors = (
{
name = bottom;
pos = (1181,0);
},
{
name = top;
pos = (1181,1441);
}
);
background = {
shapes = (
{
closed = 1;
nodes = (
(339,1441,o),
(125,1208,o),
(125,714,cs),
(125,228,o),
(337,0,o),
(789,0,cs),
(1267,0,l),
(1267,1441,l),
(793,1441,ls)
);
},
{
closed = 1;
nodes = (
(424,152,o),
(304,288,o),
(304,718,cs),
(304,1129,o),
(439,1289,o),
(786,1289,cs),
(1093,1289,l),
(1093,152,l),
(804,152,ls)
);
},
{
closed = 1;
nodes = (
(2058,0,l),
(2058,152,l),
(1269,152,l),
(1269,677,l),
(1937,677,l),
(1937,827,l),
(1269,827,l),
(1269,1289,l),
(2055,1289,l),
(2055,1441,l),
(1095,1441,l),
(1095,0,l)
);
}
);
};
layerId = "2F8B9CD4-7B7F-4ACC-ADF3-B6E0F7033A19";
shapes = (
{
closed = 1;
nodes = (
(339,1441,o),
(125,1208,o),
(125,714,cs),
(125,228,o),
(337,0,o),
(789,0,cs),
(2058,0,l),
(2058,152,l),
(1269,152,l),
(1269,677,l),
(1937,677,l),
(1937,827,l),
(1269,827,l),
(1269,1289,l),
(2055,1289,l),
(2055,1441,l),
(793,1441,ls)
);
},
{
closed = 1;
nodes = (
(304,1129,o),
(439,1289,o),
(786,1289,cs),
(1093,1289,l),
(1093,152,l),
(804,152,ls),
(424,152,o),
(304,288,o),
(304,718,cs)
);
}
);
width = 2168;
}
);
metricLeft = "=O";
metricRight = "=E";
note = OE;
unicode = 338;
},
{
glyphname = P;
kernLeft = H;
kernRight = P;
lastChange = "2023-01-25 11:11:44 +0000";
layers = (
{
anchors = (
{
name = bottom;
pos = (661,0);
},
{
name = top;
pos = (661,1441);
}
);
background = {
shapes = (
{
closed = 1;
nodes = (
(394,0,l),
(394,584,l),
(703,584,ls),
(944,584,o),
(1113,626,o),
(1180,758,cs),
(1206,809,o),
(1227,904,o),
(1227,1010,cs),
(1227,1100,o),
(1211,1197,o),
(1188,1249,cs),
(1115,1415,o),
(930,1441,o),
(659,1441,cs),
(220,1441,l),
(220,0,l)
);
},
{
closed = 1;
nodes = (
(951,747,o),
(898,730,o),
(659,730,cs),
(394,730,l),
(394,1300,l),
(659,1300,ls),
(898,1300,o),
(951,1283,o),
(999,1235,cs),
(1043,1191,o),
(1062,1123,o),
(1062,1010,cs),
(1062,907,o),
(1048,840,o),
(999,795,c)
);
}
);
};
guides = (
{
angle = 180;
pos = (532,1293);
},
{
pos = (791,732);
},
{
pos = (1093,586);
}
);
layerId = "2F8B9CD4-7B7F-4ACC-ADF3-B6E0F7033A19";
shapes = (
{
closed = 1;
nodes = (
(394,0,l),
(394,524,l),
(659,524,ls),
(1068,524,o),
(1227,643,o),
(1227,980,cs),
(1227,1338,o),
(1091,1441,o),
(659,1441,cs),
(220,1441,l),
(220,0,l)
);
},
{
closed = 1;
nodes = (
(394,1300,l),
(659,1300,ls),
(978,1300,o),
(1054,1242,o),
(1054,980,cs),
(1054,726,o),
(978,670,o),
(659,670,cs),
(394,670,l)
);
}
);
width = 1337;
}
);
metricLeft = "=H";
note = P;
unicode = 80;
},
{
color = 3;
glyphname = Thorn;
kernLeft = H;
kernRight = Thorn;
layers = (
{
background = {
shapes = (
{
closed = 1;
nodes = (
(394,194,l),
(394,294,l),
(659,294,ls),
(1068,294,o),
(1227,413,o),
(1227,750,cs),
(1227,1108,o),
(1091,1211,o),
(659,1211,cs),
(220,1211,l),
(220,194,l)
);
},
{
closed = 1;
nodes = (
(1054,496,o),
(978,440,o),
(659,440,cs),
(394,440,l),
(394,1070,l),
(659,1070,ls),
(978,1070,o),
(1054,1012,o),
(1054,750,cs)
);
}
);
};
layerId = "2F8B9CD4-7B7F-4ACC-ADF3-B6E0F7033A19";
shapes = (
{
closed = 1;
nodes = (
(394,0,l),
(394,294,l),
(659,294,ls),
(1068,294,o),
(1227,413,o),
(1227,750,cs),
(1227,1108,o),
(1091,1211,o),
(659,1211,cs),
(394,1211,l),
(394,1441,l),
(220,1441,l),
(220,0,l)
);
},
{
closed = 1;
nodes = (
(394,1070,l),
(659,1070,ls),
(978,1070,o),
(1054,1012,o),
(1054,750,cs),
(1054,496,o),
(978,440,o),
(659,440,cs),
(394,440,l)
);
}
);
width = 1337;
}
);
metricLeft = "=H";
metricRight = P;
note = Thorn;
unicode = 222;
},
{
color = 3;
glyphname = Q;
kernLeft = O;
kernRight = O;
lastChange = "2023-01-25 11:12:12 +0000";
layers = (
{
anchors = (
{
name = bottom;
pos = (769,0);
},
{
name = center;
pos = (775,721);
},
{
name = ogonek;
pos = (855,-18);
},
{
name = top;
pos = (769,1441);
},
{
name = topleft;
pos = (24,1441);
},
{
name = topright;
pos = (1108,1409);
}
);
layerId = "2F8B9CD4-7B7F-4ACC-ADF3-B6E0F7033A19";
shapes = (
{
closed = 1;
nodes = (
(1262,-38,o),
(1424,230,o),
(1424,728,cs),
(1424,1215,o),
(1251,1472,o),
(775,1472,cs),
(300,1472,o),
(125,1218,o),
(125,727,cs),
(125,230,o),
(288,-38,o),
(775,-38,cs)
);
},
{
closed = 1;
nodes = (
(1429,-308,l),
(1429,-158,l),
(774,-158,l),
(774,-308,l)
);
},
{
closed = 1;
nodes = (
(391,110,o),
(304,316,o),
(304,721,cs),
(304,1122,o),
(389,1323,o),
(775,1323,cs),
(1155,1323,o),
(1245,1128,o),
(1245,729,cs),
(1245,325,o),
(1162,110,o),
(775,110,cs)
);
}
);
width = 1554;
}
);
metricLeft = "=O";
metricRight = "=O";
note = Q;
unicode = 81;
},
{
color = 3;
glyphname = R;
kernLeft = H;
kernRight = R;
layers = (
{
anchors = (
{
name = bottom;
pos = (735,0);
},
{
name = top;
pos = (705,1441);
}
);
background = {
shapes = (
{
closed = 1;
nodes = (
(2294,0,l),
(2294,639,l),
(2582,639,ls),
(2807,639,o),
(2869,584,o),
(2915,371,cs),
(2996,0,l),
(3172,0,l),
(3090,366,ls),
(3036,609,o),
(3038,682,o),
(2777,725,c),
(2784,709,l),
(3036,742,o),
(3127,848,o),
(3127,1040,cs),
(3127,1345,o),
(2999,1441,o),
(2595,1441,cs),
(2120,1441,l),
(2120,0,l)
);
},
{
closed = 1;
nodes = (
(2294,1293,l),
(2591,1293,ls),
(2871,1293,o),
(2959,1232,o),
(2959,1040,cs),
(2959,856,o),
(2810,785,o),
(2582,785,cs),
(2294,785,l)
);
},
{
closed = 1;
nodes = (
(982,1294,o),
(1059,1242,o),
(1059,1079,cs),
(1059,902,o),
(979,833,o),
(772,833,cs),
(410,833,l),
(410,1294,l),
(740,1294,ls)
);
},
{
closed = 1;
nodes = (
(1016,691,o),
(1111,612,o),
(1111,410,cs),
(1111,209,o),
(1036,146,o),
(797,146,cs),
(410,146,l),
(410,691,l),
(772,691,ls)
);
},
{
closed = 1;
nodes = (
(798,0,ls),
(1141,0,o),
(1289,130,o),
(1289,411,cs),
(1289,632,o),
(1180,750,o),
(949,775,c),
(952,762,l),
(1144,799,o),
(1218,898,o),
(1218,1098,cs),
(1218,1354,o),
(1063,1441,o),
(729,1441,cs),
(240,1441,l),
(240,0,l)
);
}
);
};
layerId = "2F8B9CD4-7B7F-4ACC-ADF3-B6E0F7033A19";
shapes = (
{
closed = 1;
nodes = (
(394,0,l),
(394,639,l),
(682,639,ls),
(907,639,o),
(969,584,o),
(1015,371,cs),
(1096,0,l),
(1272,0,l),
(1176,432,ls),
(1128,646,o),
(1073,688,o),
(877,725,c),
(884,699,l),
(1116,739,o),
(1227,858,o),
(1227,1050,cs),
(1227,1335,o),
(1099,1441,o),
(695,1441,cs),
(220,1441,l),
(220,0,l)
);
},
{
closed = 1;
nodes = (
(394,1293,l),
(731,1293,ls),
(981,1293,o),
(1054,1232,o),
(1054,1040,cs),
(1054,856,o),
(940,785,o),
(722,785,cs),
(394,785,l)
);
}
);
width = 1427;
}
);
metricLeft = "=H";
note = R;
unicode = 82;
},
{
glyphname = S;
kernLeft = S;
kernRight = S;
layers = (
{
anchors = (
{
name = bottom;
pos = (655,0);
},
{
name = top;
pos = (655,1441);
}
);
background = {
shapes = (
{
closed = 1;
nodes = (
(150,82,o),
(300,-29,o),
(667,-29,cs),
(1025,-29,o),
(1184,108,o),
(1184,400,cs),
(1184,640,o),
(1051,775,o),
(737,824,cs),
(412,875,o),
(328,936,o),
(328,1101,cs),
(328,1262,o),
(421,1325,o),
(661,1325,cs),
(907,1325,o),
(985,1274,o),
(985,1111,c),
(1144,1111,l),
(1144,1375,o),
(1013,1477,o),
(676,1477,cs),
(321,1477,o),
(154,1355,o),
(154,1097,cs),
(154,860,o),
(283,728,o),
(587,684,cs),
(913,637,o),
(1010,565,o),
(1010,392,cs),
(1010,198,o),
(922,122,o),
(674,122,cs),
(406,122,o),
(315,181,o),
(315,366,c),
(150,366,l)
);
}
);
};
layerId = "2F8B9CD4-7B7F-4ACC-ADF3-B6E0F7033A19";
shapes = (
{
closed = 1;
nodes = (
(150,82,o),
(310,-29,o),
(657,-29,cs),
(1025,-29,o),
(1184,118,o),
(1184,400,cs),
(1184,640,o),
(1049,767,o),
(762,819,cs),
(584,851,ls),
(391,886,o),
(332,958,o),
(332,1093,cs),
(332,1259,o),
(435,1332,o),
(681,1332,cs),
(921,1332,o),
(989,1274,o),
(989,1111,c),
(1148,1111,l),
(1148,1375,o),
(1017,1477,o),
(686,1477,cs),
(325,1477,o),
(158,1339,o),
(158,1087,cs),
(158,854,o),
(289,740,o),
(567,690,cs),
(745,658,ls),
(943,622,o),
(1010,538,o),
(1010,392,cs),
(1010,198,o),
(922,116,o),
(674,116,cs),
(406,116,o),
(315,181,o),
(315,366,c),
(150,366,l)
);
}
);
width = 1314;
}
);
note = S;
unicode = 83;
},
{
color = 3;
glyphname = Germandbls;
kernLeft = H;
kernRight = S;
layers = (
{
background = {
shapes = (
{
closed = 1;
nodes = (
(3167,847,o),
(3110,945,o),
(3110,1081,cs),
(3110,1240,o),
(3215,1329,o),
(3401,1329,cs),
(3608,1329,l),
(3608,1477,l),
(3045,1477,ls),
(2561,1477,o),
(2410,1266,o),
(2410,905,cs),
(2410,0,l),
(2584,0,l),
(2584,901,ls),
(2584,1191,o),
(2668,1331,o),
(3055,1331,cs),
(3205,1331,l),
(3205,1387,l),
(3048,1353,o),
(2936,1227,o),
(2936,1057,cs),
(2936,839,o),
(3061,715,o),
(3325,651,cs),
(3571,592,o),
(3632,502,o),
(3632,342,cs),
(3632,184,o),
(3524,122,o),
(3346,122,cs),
(3142,122,o),
(3067,197,o),
(3067,366,c),
(2902,366,l),
(2902,111,o),
(3038,-29,o),
(3339,-29,cs),
(3615,-29,o),
(3806,83,o),
(3806,350,cs),
(3806,594,o),
(3686,723,o),
(3437,782,cs)
);
},
{
closed = 1;
nodes = (
(696,79,o),
(842,-29,o),
(1145,-29,cs),
(1466,-29,o),
(1605,114,o),
(1605,390,cs),
(1605,624,o),
(1495,750,o),
(1261,800,cs),
(1115,831,ls),
(958,864,o),
(910,934,o),
(910,1066,cs),
(910,1228,o),
(994,1295,o),
(1195,1295,cs),
(1390,1295,o),
(1446,1243,o),
(1446,1084,c),
(1569,1084,l),
(1569,1341,o),
(1458,1441,o),
(1178,1441,cs),
(872,1441,o),
(731,1306,o),
(731,1060,cs),
(731,833,o),
(839,718,o),
(1068,670,cs),
(1215,639,ls),
(1378,605,o),
(1433,524,o),
(1433,382,cs),
(1433,195,o),
(1361,121,o),
(1157,121,cs),
(936,121,o),
(861,178,o),
(861,357,c),
(696,357,l)
);
}
);
};
layerId = "2F8B9CD4-7B7F-4ACC-ADF3-B6E0F7033A19";
shapes = (
{
closed = 1;
nodes = (
(1115,827,ls),
(958,860,o),
(910,934,o),
(910,1066,cs),
(910,1228,o),
(1004,1293,o),
(1201,1293,cs),
(1408,1293,l),
(1408,1441,l),
(845,1441,ls),
(361,1441,o),
(210,1235,o),
(210,883,cs),
(210,-1,l),
(384,-1,l),
(384,879,ls),
(384,1162,o),
(468,1294,o),
(855,1294,cs),
(1005,1294,l),
(1005,1351,l),
(829,1314,o),
(733,1197,o),
(733,1031,cs),
(733,837,o),
(839,723,o),
(1068,674,cs),
(1214,643,ls),
(1378,608,o),
(1435,524,o),
(1435,382,cs),
(1435,195,o),
(1353,119,o),
(1157,119,cs),
(944,119,o),
(861,178,o),
(861,357,c),
(696,357,l),
(696,79,o),
(844,-29,o),
(1145,-29,cs),
(1466,-29,o),
(1605,114,o),
(1605,390,cs),
(1605,624,o),
(1495,746,o),
(1261,796,cs)
);
}
);
width = 1725;
}
);
unicode = 7838;
},
{
color = 3;
glyphname = T;
kernLeft = T;
kernRight = T;
layers = (
{
anchors = (
{
name = bottom;
pos = (585,0);
},
{
name = center;
pos = (585,721);
},
{
name = top;
pos = (585,1441);
}
);
layerId = "2F8B9CD4-7B7F-4ACC-ADF3-B6E0F7033A19";
shapes = (
{
closed = 1;
nodes = (
(497,1289,l),
(497,-1,l),
(670,-1,l),
(670,1289,l),
(1117,1289,l),
(1117,1441,l),
(50,1441,l),
(50,1289,l)
);
}
);
width = 1166;
}
);
note = T;
unicode = 84;
},
{
color = 3;
glyphname = Tbar;
kernLeft = T;
kernRight = T;
layers = (
{
layerId = "2F8B9CD4-7B7F-4ACC-ADF3-B6E0F7033A19";
shapes = (
{
closed = 1;
nodes = (
(492,1289,l),
(492,780,l),
(170,780,l),
(170,662,l),
(492,662,l),
(492,-1,l),
(665,-1,l),
(665,662,l),
(990,662,l),
(990,780,l),
(665,780,l),
(665,1289,l),
(1112,1289,l),
(1112,1441,l),
(45,1441,l),
(45,1289,l)
);
}
);
width = 1157;
}
);
unicode = 358;
},
{
color = 3;
glyphname = U;
kernLeft = U;
kernRight = U;
layers = (
{
anchors = (
{
name = bottom;
pos = (790,0);
},
{
name = ogonek;
pos = (870,0);
},
{
name = top;
pos = (790,1441);
},
{
name = topright;
pos = (1299,1441);
}
);
background = {
shapes = (
{
closed = 1;
nodes = (
(384,1441,l),
(210,1441,l),
(210,684,ls),
(210,497,o),
(226,373,o),
(251,279,cs),
(278,176,o),
(337,60,o),
(490,3,cs),
(563,-24,o),
(667,-48,o),
(790,-48,cs),
(911,-48,o),
(1020,-25,o),
(1093,3,cs),
(1242,60,o),
(1301,176,o),
(1328,279,cs),
(1353,376,o),
(1369,497,o),
(1369,684,cs),
(1369,1441,l),
(1195,1441,l),
(1195,681,ls),
(1195,425,o),
(1183,211,o),
(1027,151,cs),
(971,130,o),
(892,109,o),
(790,109,cs),
(690,109,o),
(607,130,o),
(552,151,cs),
(396,212,o),
(384,425,o),
(384,681,cs)
);
}
);
};
layerId = "2F8B9CD4-7B7F-4ACC-ADF3-B6E0F7033A19";
shapes = (
{
closed = 1;
nodes = (
(384,1441,l),
(210,1441,l),
(210,534,ls),
(210,162,o),
(419,-48,o),
(790,-48,cs),
(1161,-48,o),
(1369,162,o),
(1369,534,cs),
(1369,1441,l),
(1195,1441,l),
(1195,531,ls),
(1195,261,o),
(1049,109,o),
(790,109,cs),
(530,109,o),
(384,261,o),
(384,531,cs)
);
}
);
width = 1579;
}
);
note = U;
unicode = 85;
},
{
color = 3;
glyphname = V;
kernLeft = V;
kernRight = V;
layers = (
{
anchors = (
{
name = bottom;
pos = (655,0);
},
{
name = top;
pos = (655,1441);
}
);
layerId = "2F8B9CD4-7B7F-4ACC-ADF3-B6E0F7033A19";
shapes = (
{
closed = 1;
nodes = (
(1259,1441,l),
(1075,1441,l),
(729,372,l),
(671,189,l),
(638,189,l),
(580,372,l),
(229,1441,l),
(45,1441,l),
(551,0,l),
(765,0,l)
);
}
);
width = 1304;
}
);
note = V;
unicode = 86;
},
{
color = 3;
glyphname = W;
kernLeft = V;
kernRight = V;
layers = (
{
anchors = (
{
name = bottom;
pos = (990,0);
},
{
name = top;
pos = (990,1441);
}
);
background = {
shapes = (
{
closed = 1;
nodes = (
(481,0,l),
(695,0,l),
(991,1235,l),
(1026,1235,l),
(1311,0,l),
(1525,0,l),
(1877,1441,l),
(1713,1441,l),
(1428,193,l),
(1399,193,l),
(1339,474,l),
(1116,1441,l),
(891,1441,l),
(667,476,l),
(609,194,l),
(580,194,l),
(294,1441,l),
(130,1441,l)
);
}
);
};
layerId = "2F8B9CD4-7B7F-4ACC-ADF3-B6E0F7033A19";
shapes = (
{
closed = 1;
nodes = (
(471,0,l),
(705,0,l),
(991,1235,l),
(1026,1235,l),
(1301,0,l),
(1535,0,l),
(1877,1441,l),
(1703,1441,l),
(1428,193,l),
(1399,193,l),
(1339,474,l),
(1126,1441,l),
(881,1441,l),
(667,476,l),
(609,194,l),
(580,194,l),
(304,1441,l),
(130,1441,l)
);
}
);
width = 2017;
}
);
note = W;
unicode = 87;
},
{
color = 3;
glyphname = X;
kernLeft = X;
kernRight = X;
layers = (
{
anchors = (
{
name = bottom;
pos = (647,0);
},
{
name = top;
pos = (647,1441);
}
);
background = {
shapes = (
{
closed = 1;
nodes = (
(579,665,l),
(596,665,l),
(1045,0,l),
(1239,0,l),
(705,784,l),
(689,784,l),
(259,1441,l),
(65,1441,l)
);
},
{
closed = 1;
nodes = (
(1046,1441,l),
(615,779,l),
(595,779,l),
(66,0,l),
(257,0,l),
(703,661,l),
(723,661,l),
(1237,1441,l)
);
}
);
};
layerId = "2F8B9CD4-7B7F-4ACC-ADF3-B6E0F7033A19";
shapes = (
{
closed = 1;
nodes = (
(574,673,l),
(574,748,l),
(66,0,l),
(257,0,l),
(676,621,l),
(626,621,l),
(1045,0,l),
(1239,0,l),
(730,747,l),
(730,672,l),
(1237,1441,l),
(1046,1441,l),
(629,800,l),
(679,800,l),
(259,1441,l),
(65,1441,l)
);
}
);
width = 1304;
}
);
note = X;
unicode = 88;
},
{
glyphname = Y;
kernLeft = Y;
kernRight = Y;
layers = (
{
anchors = (
{
name = bottom;
pos = (593,0);
},
{
name = top;
pos = (593,1441);
},
{
name = topleft;
pos = (39,1441);
}
);
layerId = "2F8B9CD4-7B7F-4ACC-ADF3-B6E0F7033A19";
shapes = (
{
closed = 1;
nodes = (
(678,0,l),
(678,596,l),
(1171,1441,l),
(990,1441,l),
(606,773,l),
(578,773,l),
(199,1441,l),
(15,1441,l),
(504,596,l),
(504,0,l)
);
}
);
width = 1186;
}
);
note = Y;
unicode = 89;
},
{
glyphname = Z;
kernLeft = Z;
kernRight = Z;
layers = (
{
anchors = (
{
name = bottom;
pos = (643,0);
},
{
name = top;
pos = (613,1441);
}
);
layerId = "2F8B9CD4-7B7F-4ACC-ADF3-B6E0F7033A19";
shapes = (
{
closed = 1;
nodes = (
(994,1289,l),
(966,1325,l),
(100,126,l),
(100,0,l),
(1145,0,l),
(1145,152,l),
(264,152,l),
(293,115,l),
(1142,1313,l),
(1142,1441,l),
(114,1441,l),
(114,1289,l)
);
}
);
width = 1245;
}
);
note = Z;
unicode = 90;
},
{
glyphname = a;
kernLeft = a;
kernRight = a;
layers = (
{
anchors = (
{
name = bottom;
pos = (566,0);
},
{
name = ogonek;
pos = (938,-14);
},
{
name = top;
pos = (566,1011);
}
);
background = {
shapes = (
{
closed = 1;
nodes = (
(292,793,o),
(321,849,o),
(353,871,cs),
(395,900,o),
(452,909,o),
(549,909,cs),
(652,909,o),
(710,899,o),
(745,871,cs),
(780,844,o),
(797,819,o),
(797,738,cs),
(797,701,o),
(797,652,o),
(797,593,c),
(689,593,o),
(643,593,o),
(554,593,cs),
(291,593,o),
(119,520,o),
(119,282,cs),
(119,77,o),
(273,-23,o),
(470,-23,cs),
(601,-23,o),
(751,26,o),
(819,118,c),
(819,42,o),
(885,-24,o),
(981,-24,cs),
(1009,-24,o),
(1025,-24,o),
(1051,-15,c),
(1051,107,l),
(961,99,o),
(951,122,o),
(951,211,cs),
(951,727,ls),
(951,926,o),
(849,1033,o),
(549,1033,cs),
(316,1033,o),
(153,953,o),
(153,738,c),
(292,738,l)
);
},
{
closed = 1;
nodes = (
(798,233,o),
(771,194,o),
(722,158,cs),
(673,122,o),
(600,99,o),
(507,99,cs),
(374,99,o),
(277,159,o),
(277,285,cs),
(277,472,o),
(409,479,o),
(731,479,cs),
(752,479,o),
(775,479,o),
(798,479,c),
(798,305,ls)
);
}
);
};
layerId = "2F8B9CD4-7B7F-4ACC-ADF3-B6E0F7033A19";
shapes = (
{
closed = 1;
nodes = (
(292,861,o),
(364,909,o),
(549,909,cs),
(728,909,o),
(797,858,o),
(797,728,cs),
(797,593,l),
(587,593,ls),
(250,593,o),
(119,506,o),
(119,282,cs),
(119,87,o),
(245,-23,o),
(470,-23,cs),
(627,-23,o),
(752,28,o),
(819,118,c),
(819,33,o),
(884,-24,o),
(981,-24,cs),
(1009,-24,o),
(1025,-24,o),
(1051,-15,c),
(1051,107,l),
(971,100,o),
(951,121,o),
(951,211,cs),
(951,727,ls),
(951,935,o),
(822,1033,o),
(549,1033,cs),
(280,1033,o),
(153,939,o),
(153,738,c),
(292,738,l)
);
},
{
closed = 1;
nodes = (
(798,173,o),
(693,102,o),
(507,102,cs),
(360,102,o),
(277,166,o),
(277,285,cs),
(277,425,o),
(364,479,o),
(586,479,cs),
(798,479,l),
(798,305,ls)
);
}
);
width = 1131;
}
);
note = a;
unicode = 97;
},
{
glyphname = ae;
kernLeft = a;
kernRight = e;
lastChange = "2023-01-25 11:11:56 +0000";
layers = (
{
anchors = (
{
name = bottom;
pos = (886,0);
},
{
name = top;
pos = (886,1011);
}
);
background = {
shapes = (
{
closed = 1;
nodes = (
(960,835,o),
(1030,911,o),
(1234,911,cs),
(1438,911,o),
(1507,835,o),
(1515,594,c),
(952,594,l)
);
},
{
closed = 1;
nodes = (
(1500,148,o),
(1429,102,o),
(1252,102,cs),
(1035,102,o),
(950,209,o),
(950,480,c),
(1671,480,l),
(1671,858,o),
(1571,1034,o),
(1234,1034,cs),
(907,1034,o),
(794,858,o),
(794,505,cs),
(794,125,o),
(921,-23,o),
(1248,-23,cs),
(1530,-23,o),
(1663,73,o),
(1663,278,c),
(1506,278,l)
);
}
);
};
layerId = "2F8B9CD4-7B7F-4ACC-ADF3-B6E0F7033A19";
shapes = (
{
closed = 1;
nodes = (
(680,-23,o),
(819,51,o),
(861,216,c),
(840,216,l),
(905,55,o),
(1039,-23,o),
(1248,-23,cs),
(1530,-23,o),
(1663,73,o),
(1663,278,c),
(1506,278,l),
(1500,148,o),
(1429,102,o),
(1252,102,cs),
(1035,102,o),
(950,209,o),
(950,480,c),
(1671,480,l),
(1671,858,o),
(1571,1034,o),
(1234,1034,cs),
(1056,1034,o),
(954,987,o),
(886,861,c),
(911,861,l),
(867,978,o),
(755,1033,o),
(549,1033,cs),
(280,1033,o),
(153,939,o),
(153,738,c),
(292,738,l),
(292,861,o),
(364,909,o),
(549,909,cs),
(728,909,o),
(797,858,o),
(797,728,cs),
(797,593,l),
(587,593,ls),
(250,593,o),
(119,506,o),
(119,282,cs),
(119,87,o),
(245,-23,o),
(470,-23,cs)
);
},
{
closed = 1;
nodes = (
(360,102,o),
(277,166,o),
(277,285,cs),
(277,425,o),
(364,479,o),
(586,479,cs),
(798,479,l),
(798,305,ls),
(798,173,o),
(693,102,o),
(507,102,cs)
);
},
{
closed = 1;
nodes = (
(960,835,o),
(1030,911,o),
(1234,911,cs),
(1438,911,o),
(1507,835,o),
(1515,594,c),
(952,594,l)
);
}
);
width = 1781;
}
);
metricLeft = "=a";
metricRight = "=e";
note = ae;
unicode = 230;
},
{
color = 3;
glyphname = b;
kernLeft = h;
kernRight = o;
lastChange = "2023-01-25 11:11:24 +0000";
layers = (
{
anchors = (
{
name = bottom;
pos = (639,0);
},
{
name = top;
pos = (639,1441);
}
);
background = {
shapes = (
{
closed = 1;
nodes = (
(840,909,o),
(915,812,o),
(915,504,cs),
(915,198,o),
(842,102,o),
(609,102,cs),
(370,102,o),
(295,198,o),
(295,502,cs),
(295,811,o),
(369,909,o),
(603,909,c)
);
},
{
closed = 1;
nodes = (
(268,1034,o),
(138,886,o),
(138,506,cs),
(138,125,o),
(268,-23,o),
(603,-23,cs),
(941,-23,o),
(1072,126,o),
(1072,509,cs),
(1072,887,o),
(941,1034,o),
(603,1034,cs)
);
}
);
};
layerId = "2F8B9CD4-7B7F-4ACC-ADF3-B6E0F7033A19";
shapes = (
{
closed = 1;
nodes = (
(941,-23,o),
(1071,123,o),
(1071,497,cs),
(1071,891,o),
(941,1034,o),
(665,1034,cs),
(494,1034,o),
(401,995,o),
(334,898,c),
(334,1441,l),
(180,1441,l),
(180,0,l),
(303,0,l),
(321,134,l),
(369,59,o),
(449,-23,o),
(667,-23,cs)
);
},
{
closed = 1;
nodes = (
(406,102,o),
(334,199,o),
(334,505,cs),
(334,828,o),
(393,909,o),
(629,909,cs),
(846,909,o),
(915,810,o),
(915,495,cs),
(915,196,o),
(847,102,o),
(632,102,cs)
);
}
);
width = 1191;
}
);
metricLeft = "=h";
metricRight = "=o";
note = b;
unicode = 98;
},
{
glyphname = c;
kernLeft = o;
kernRight = c;
layers = (
{
anchors = (
{
name = bottom;
pos = (545,0);
},
{
name = top;
pos = (545,1011);
}
);
background = {
shapes = (
{
closed = 1;
nodes = (
(2121,157,o),
(2055,97,o),
(1888,97,cs),
(1638,97,o),
(1576,179,o),
(1576,507,cs),
(1576,813,o),
(1650,910,o),
(1883,910,cs),
(2046,910,o),
(2113,852,o),
(2124,702,c),
(2281,702,l),
(2277,928,o),
(2151,1035,o),
(1887,1035,cs),
(1551,1035,o),
(1420,888,o),
(1420,509,cs),
(1420,126,o),
(1550,-23,o),
(1886,-23,cs),
(2168,-23,o),
(2279,70,o),
(2281,310,c),
(2124,310,l)
);
},
{
closed = 1;
nodes = (
(822,909,o),
(897,812,o),
(897,504,cs),
(897,198,o),
(824,102,o),
(591,102,cs),
(352,102,o),
(277,198,o),
(277,502,cs),
(277,811,o),
(351,909,o),
(585,909,c)
);
},
{
closed = 1;
nodes = (
(250,1034,o),
(120,886,o),
(120,506,cs),
(120,125,o),
(250,-23,o),
(585,-23,cs),
(923,-23,o),
(1054,126,o),
(1054,509,cs),
(1054,887,o),
(923,1034,o),
(585,1034,cs)
);
}
);
};
layerId = "2F8B9CD4-7B7F-4ACC-ADF3-B6E0F7033A19";
shapes = (
{
closed = 1;
nodes = (
(821,157,o),
(758,102,o),
(591,102,cs),
(352,102,o),
(277,198,o),
(277,507,cs),
(277,813,o),
(350,910,o),
(583,910,cs),
(746,910,o),
(813,852,o),
(824,702,c),
(981,702,l),
(977,928,o),
(851,1035,o),
(587,1035,cs),
(251,1035,o),
(120,888,o),
(120,509,cs),
(120,126,o),
(250,-23,o),
(586,-23,cs),
(868,-23,o),
(979,70,o),
(981,310,c),
(824,310,l)
);
}
);
width = 1086;
}
);
metricLeft = "=o";
note = c;
unicode = 99;
},
{
color = 3;
glyphname = d;
kernLeft = o;
kernRight = d;
layers = (
{
anchors = (
{
name = bottom;
pos = (588,0);
},
{
name = center;
pos = (806,1214);
},
{
name = top;
pos = (588,1011);
},
{
name = topright;
pos = (1059,1011);
}
);
background = {
shapes = (
{
closed = 1;
nodes = (
(798,909,o),
(857,828,o),
(857,505,cs),
(857,199,o),
(785,102,o),
(559,102,cs),
(344,102,o),
(276,196,o),
(276,495,cs),
(276,826,o),
(333,909,o),
(562,909,cs)
);
},
{
closed = 1;
nodes = (
(789,997,o),
(697,1033,o),
(526,1033,cs),
(217,1033,o),
(120,904,o),
(120,497,cs),
(120,123,o),
(233,-23,o),
(524,-23,cs),
(742,-23,o),
(822,59,o),
(870,134,c),
(888,0,l),
(1011,0,l),
(1011,1441,l),
(857,1441,l),
(857,905,l)
);
}
);
};
layerId = "2F8B9CD4-7B7F-4ACC-ADF3-B6E0F7033A19";
shapes = (
{
closed = 1;
nodes = (
(742,-23,o),
(822,59,o),
(870,134,c),
(888,0,l),
(1011,0,l),
(1011,1441,l),
(857,1441,l),
(857,898,l),
(790,995,o),
(697,1034,o),
(526,1034,cs),
(250,1034,o),
(120,891,o),
(120,497,cs),
(120,123,o),
(250,-23,o),
(524,-23,cs)
);
},
{
closed = 1;
nodes = (
(344,102,o),
(276,196,o),
(276,495,cs),
(276,810,o),
(345,909,o),
(562,909,cs),
(798,909,o),
(857,828,o),
(857,505,cs),
(857,199,o),
(785,102,o),
(559,102,cs)
);
}
);
width = 1191;
}
);
metricLeft = "=o";
note = d;
unicode = 100;
},
{
color = 3;
glyphname = eth;
kernLeft = o;
kernRight = d;
lastChange = "2023-01-25 11:11:24 +0000";
layers = (
{
background = {
shapes = (
{
closed = 1;
nodes = (
(364,93,o),
(272,195,o),
(272,413,cs),
(272,614,o),
(359,710,o),
(545,710,cs),
(728,710,o),
(816,665,o),
(857,550,c),
(857,380,ls),
(857,184,o),
(763,93,o),
(559,93,cs)
);
},
{
closed = 1;
nodes = (
(571,1111,l),
(643,1005,l),
(1118,1338,l),
(1046,1444,l)
);
},
{
closed = 1;
nodes = (
(1004,1093,ls),
(1004,1340,o),
(864,1471,o),
(568,1471,cs),
(286,1471,o),
(153,1359,o),
(153,1121,c),
(295,1121,l),
(295,1283,o),
(373,1346,o),
(572,1346,cs),
(775,1346,o),
(857,1272,o),
(857,1081,cs),
(857,705,l),
(793,803,o),
(700,840,o),
(524,840,cs),
(269,840,o),
(120,703,o),
(120,413,cs),
(120,111,o),
(270,-32,o),
(557,-32,cs),
(861,-32,o),
(1004,122,o),
(1004,450,c)
);
}
);
};
guides = (
{
pos = (858,1011);
}
);
layerId = "2F8B9CD4-7B7F-4ACC-ADF3-B6E0F7033A19";
shapes = (
{
closed = 1;
nodes = (
(861,-32,o),
(1004,122,o),
(1004,450,cs),
(1004,1093,ls),
(1004,1149,o),
(997,1199,o),
(982,1243,c),
(1118,1338,l),
(1046,1444,l),
(918,1354,l),
(847,1431,o),
(731,1471,o),
(568,1471,cs),
(286,1471,o),
(153,1359,o),
(153,1121,c),
(295,1121,l),
(295,1283,o),
(373,1346,o),
(572,1346,cs),
(683,1346,o),
(757,1324,o),
(802,1273,c),
(571,1111,l),
(643,1005,l),
(852,1152,l),
(856,1130,o),
(857,1107,o),
(857,1081,cs),
(857,705,l),
(793,803,o),
(700,840,o),
(524,840,cs),
(269,840,o),
(120,703,o),
(120,413,cs),
(120,111,o),
(270,-32,o),
(557,-32,cs)
);
},
{
closed = 1;
nodes = (
(364,93,o),
(272,195,o),
(272,413,cs),
(272,614,o),
(359,710,o),
(545,710,cs),
(728,710,o),
(816,665,o),
(857,550,c),
(857,380,ls),
(857,184,o),
(763,93,o),
(559,93,cs)
);
}
);
width = 1184;
}
);
note = eth;
unicode = 240;
},
{
color = 3;
glyphname = dcroat;
kernLeft = o;
kernRight = d;
layers = (
{
layerId = "2F8B9CD4-7B7F-4ACC-ADF3-B6E0F7033A19";
shapes = (
{
closed = 1;
nodes = (
(742,-23,o),
(822,59,o),
(870,134,c),
(888,0,l),
(1011,0,l),
(1011,1155,l),
(1134,1155,l),
(1134,1273,l),
(1011,1273,l),
(1011,1441,l),
(857,1441,l),
(857,1273,l),
(478,1273,l),
(478,1155,l),
(857,1155,l),
(857,898,l),
(790,995,o),
(697,1034,o),
(526,1034,cs),
(250,1034,o),
(120,891,o),
(120,497,cs),
(120,123,o),
(250,-23,o),
(524,-23,cs)
);
},
{
closed = 1;
nodes = (
(276,810,o),
(345,909,o),
(562,909,cs),
(798,909,o),
(857,828,o),
(857,505,cs),
(857,199,o),
(785,102,o),
(559,102,cs),
(344,102,o),
(276,196,o),
(276,495,cs)
);
}
);
width = 1191;
}
);
unicode = 273;
},
{
color = 3;
glyphname = e;
kernLeft = o;
kernRight = e;
lastChange = "2023-01-25 11:11:24 +0000";
layers = (
{
anchors = (
{
name = bottom;
pos = (558,0);
},
{
name = ogonek;
pos = (776,0);
},
{
name = top;
pos = (558,1011);
}
);
background = {
shapes = (
{
closed = 1;
nodes = (
(1677,594,l),
(1672,822,o),
(1749,911,o),
(1952,911,cs),
(2162,911,o),
(2232,835,o),
(2240,594,c)
);
},
{
closed = 1;
nodes = (
(1529,278,l),
(1529,73,o),
(1662,-23,o),
(1944,-23,cs),
(2271,-23,o),
(2398,125,o),
(2398,505,cs),
(2398,858,o),
(2275,1034,o),
(1948,1034,cs),
(1640,1034,o),
(1520,906,o),
(1520,577,cs),
(1520,543,o),
(1521,510,o),
(1521,480,c),
(2242,480,l),
(2242,204,o),
(2157,97,o),
(1940,97,cs),
(1763,97,o),
(1692,148,o),
(1686,278,c)
);
},
{
closed = 1;
nodes = (
(831,157,o),
(768,102,o),
(601,102,cs),
(362,102,o),
(287,198,o),
(287,507,cs),
(287,813,o),
(360,910,o),
(593,910,cs),
(756,910,o),
(823,852,o),
(834,702,c),
(991,702,l),
(987,928,o),
(861,1035,o),
(597,1035,cs),
(261,1035,o),
(130,888,o),
(130,509,cs),
(130,126,o),
(260,-23,o),
(596,-23,cs),
(878,-23,o),
(989,70,o),
(991,310,c),
(834,310,l)
);
}
);
};
guides = (
{
pos = (727,129);
}
);
layerId = "2F8B9CD4-7B7F-4ACC-ADF3-B6E0F7033A19";
shapes = (
{
closed = 1;
nodes = (
(856,-23,o),
(989,73,o),
(989,278,c),
(832,278,l),
(826,148,o),
(755,102,o),
(578,102,cs),
(361,102,o),
(276,209,o),
(276,480,c),
(997,480,l),
(997,858,o),
(897,1034,o),
(560,1034,cs),
(233,1034,o),
(120,858,o),
(120,505,cs),
(120,125,o),
(247,-23,o),
(574,-23,cs)
);
},
{
closed = 1;
nodes = (
(286,835,o),
(356,911,o),
(560,911,cs),
(764,911,o),
(833,835,o),
(841,594,c),
(278,594,l)
);
}
);
width = 1107;
}
);
metricLeft = "=o";
note = e;
unicode = 101;
},
{
glyphname = schwa;
kernLeft = o;
kernRight = o;
lastChange = "2023-01-25 11:11:24 +0000";
layers = (
{
background = {
shapes = (
{
closed = 1;
nodes = (
(767,333,o),
(755,280,o),
(742,240,cs),
(708,134,o),
(620,100,o),
(482,100,cs),
(351,100,o),
(272,127,o),
(237,222,cs),
(221,265,o),
(205,325,o),
(207,417,c),
(770,417,l)
);
},
{
closed = 1;
nodes = (
(200,898,o),
(326,914,o),
(470,914,cs),
(527,914,o),
(610,906,o),
(649,882,c),
(738,832,o),
(772,680,o),
(772,531,c),
(51,531,l),
(51,438,o),
(42,312,o),
(77,214,cs),
(94,166,o),
(111,133,o),
(126,113,cs),
(202,12,o),
(334,-23,o),
(478,-23,cs),
(684,-23,o),
(823,44,o),
(886,219,cs),
(909,283,o),
(928,374,o),
(928,506,cs),
(928,637,o),
(911,729,o),
(887,794,cs),
(849,898,o),
(798,959,o),
(707,996,cs),
(653,1018,o),
(578,1034,o),
(474,1034,cs),
(346,1034,o),
(199,1014,o),
(129,931,cs),
(83,877,o),
(59,816,o),
(59,733,c),
(193,733,l)
);
}
);
};
layerId = "2F8B9CD4-7B7F-4ACC-ADF3-B6E0F7033A19";
shapes = (
{
closed = 1;
nodes = (
(874,-23,o),
(987,163,o),
(987,506,cs),
(987,886,o),
(860,1034,o),
(533,1034,cs),
(271,1034,o),
(128,918,o),
(118,713,c),
(275,713,l),
(281,843,o),
(372,909,o),
(529,909,cs),
(746,909,o),
(831,802,o),
(831,531,c),
(110,531,l),
(110,153,o),
(210,-23,o),
(547,-23,cs)
);
},
{
closed = 1;
nodes = (
(345,100,o),
(278,176,o),
(270,417,c),
(829,417,l),
(821,176,o),
(753,100,o),
(549,100,cs)
);
}
);
width = 1107;
}
);
metricLeft = "=|e";
metricRight = o;
unicode = 601;
},
{
color = 3;
glyphname = f;
kernLeft = f;
kernRight = f;
layers = (
{
anchors = (
{
name = bottom;
pos = (312,0);
},
{
name = top;
pos = (312,1441);
}
);
background = {
shapes = (
{
closed = 1;
nodes = (
(386,1011,l),
(386,1196,l),
(386,1255,o),
(397,1279,o),
(424,1300,cs),
(445,1316,o),
(492,1321,o),
(534,1321,cs),
(596,1321,o),
(607,1318,o),
(651,1313,c),
(651,1437,l),
(627,1441,o),
(592,1448,o),
(530,1448,cs),
(417,1448,o),
(363,1431,o),
(323,1406,cs),
(268,1372,o),
(232,1316,o),
(232,1135,cs),
(232,1011,l),
(50,1011,l),
(50,889,l),
(232,889,l),
(232,0,l),
(385,0,l),
(385,889,l),
(634,889,l),
(634,1011,l)
);
}
);
};
layerId = "2F8B9CD4-7B7F-4ACC-ADF3-B6E0F7033A19";
shapes = (
{
closed = 1;
nodes = (
(386,1011,l),
(386,1196,ls),
(386,1291,o),
(422,1321,o),
(534,1321,cs),
(564,1321,o),
(606,1318,o),
(651,1313,c),
(651,1437,l),
(609,1444,o),
(565,1448,o),
(530,1448,cs),
(304,1448,o),
(232,1373,o),
(232,1155,cs),
(232,1011,l),
(50,1011,l),
(50,889,l),
(232,889,l),
(232,0,l),
(386,0,l),
(386,889,l),
(634,889,l),
(634,1011,l)
);
}
);
width = 716;
}
);
note = f;
unicode = 102;
},
{
glyphname = g;
kernLeft = o;
kernRight = u;
lastChange = "2023-01-25 11:11:24 +0000";
layers = (
{
anchors = (
{
name = bottom;
pos = (586,-389);
},
{
name = top;
pos = (586,1011);
}
);
background = {
shapes = (
{
closed = 1;
nodes = (
(2039,911,o),
(2090,901,o),
(2126,888,cs),
(2180,868,o),
(2219,807,o),
(2236,731,cs),
(2248,676,o),
(2257,608,o),
(2257,496,cs),
(2257,389,o),
(2247,340,o),
(2236,293,cs),
(2209,174,o),
(2121,115,o),
(1965,115,cs),
(1886,115,o),
(1834,126,o),
(1798,140,cs),
(1738,163,o),
(1713,207,o),
(1696,283,cs),
(1684,332,o),
(1677,406,o),
(1677,518,cs),
(1677,632,o),
(1684,773,o),
(1732,837,cs),
(1777,897,o),
(1869,911,o),
(1962,911,cs)
);
},
{
closed = 1;
nodes = (
(2275,7,o),
(2273,-33,o),
(2269,-64,cs),
(2255,-174,o),
(2219,-231,o),
(2136,-262,cs),
(2085,-281,o),
(2035,-282,o),
(1966,-282,cs),
(1912,-282,o),
(1869,-283,o),
(1820,-262,cs),
(1746,-230,o),
(1722,-193,o),
(1720,-120,c),
(1563,-120,l),
(1564,-253,o),
(1638,-342,o),
(1737,-377,cs),
(1790,-396,o),
(1858,-407,o),
(1968,-407,cs),
(2089,-407,o),
(2212,-394,o),
(2294,-316,cs),
(2378,-236,o),
(2410,-108,o),
(2410,62,cs),
(2410,1011,l),
(2292,1011,l),
(2276,876,l),
(2192,1012,o),
(2103,1034,o),
(1927,1034,cs),
(1830,1034,o),
(1759,1015,o),
(1707,991,cs),
(1655,966,o),
(1622,935,o),
(1605,911,c),
(1534,821,o),
(1520,660,o),
(1520,507,cs),
(1520,380,o),
(1532,293,o),
(1549,232,cs),
(1574,138,o),
(1617,72,o),
(1703,32,cs),
(1754,7,o),
(1825,-12,o),
(1921,-12,cs),
(2085,-12,o),
(2210,20,o),
(2273,140,c),
(2274,56,ls)
);
},
{
closed = 1;
nodes = (
(786,909,o),
(856,813,o),
(856,510,cs),
(856,208,o),
(788,113,o),
(570,113,cs),
(347,113,o),
(277,208,o),
(277,508,cs),
(277,812,o),
(346,909,o),
(565,909,c)
);
},
{
closed = 1;
nodes = (
(244,1034,o),
(120,888,o),
(120,511,cs),
(120,134,o),
(244,-12,o),
(563,-12,cs),
(884,-12,o),
(1009,135,o),
(1009,514,cs),
(1009,889,o),
(884,1034,o),
(563,1034,cs)
);
}
);
};
layerId = "2F8B9CD4-7B7F-4ACC-ADF3-B6E0F7033A19";
shapes = (
{
closed = 1;
nodes = (
(886,-407,o),
(1010,-276,o),
(1010,62,cs),
(1010,1011,l),
(892,1011,l),
(876,876,l),
(806,990,o),
(708,1034,o),
(527,1034,cs),
(235,1034,o),
(120,887,o),
(120,512,cs),
(120,137,o),
(235,-12,o),
(521,-12,cs),
(697,-12,o),
(828,25,o),
(886,168,c),
(862,185,l),
(862,56,ls),
(862,-201,o),
(805,-282,o),
(566,-282,cs),
(392,-282,o),
(324,-237,o),
(320,-120,c),
(163,-120,l),
(165,-315,o),
(294,-407,o),
(568,-407,cs)
);
},
{
closed = 1;
nodes = (
(335,114,o),
(277,223,o),
(277,512,cs),
(277,801,o),
(334,910,o),
(562,910,cs),
(786,910,o),
(857,801,o),
(857,512,cs),
(857,223,o),
(797,114,o),
(565,114,cs)
);
}
);
width = 1190;
}
);
metricLeft = "=o";
metricRight = "=u";
note = g;
unicode = 103;
},
{
color = 3;
glyphname = h;
kernLeft = h;
kernRight = n;
lastChange = "2023-01-25 11:12:00 +0000";
layers = (
{
anchors = (
{
name = bottom;
pos = (593,0);
},
{
name = center;
pos = (385,1216);
},
{
name = top;
pos = (606,1441);
}
);
background = {
shapes = (
{
closed = 1;
nodes = (
(1926,994,o),
(1829,1038,o),
(1674,1038,cs),
(1579,1038,o),
(1509,1033,o),
(1444,998,cs),
(1394,971,o),
(1354,916,o),
(1329,871,c),
(1332,1442,l),
(1179,1442,l),
(1180,1,l),
(1334,1,l),
(1334,598,ls),
(1334,698,o),
(1359,783,o),
(1396,822,cs),
(1453,883,o),
(1514,909,o),
(1629,909,cs),
(1671,909,o),
(1695,906,o),
(1719,902,cs),
(1838,882,o),
(1879,784,o),
(1879,618,cs),
(1879,1,l),
(2033,1,l),
(2033,588,ls),
(2033,751,o),
(2019,838,o),
(1974,909,c)
);
},
{
closed = 1;
nodes = (
(931,1037,o),
(673,1037,cs),
(483,1037,o),
(384,990,o),
(317,868,c),
(305,1011,l),
(179,1011,l),
(179,0,l),
(333,0,l),
(333,609,ls),
(333,824,o),
(416,908,o),
(628,908,cs),
(808,908,o),
(878,827,o),
(878,617,cs),
(878,0,l),
(1032,0,l),
(1032,617,ls),
(1032,919,o)
);
}
);
};
layerId = "2F8B9CD4-7B7F-4ACC-ADF3-B6E0F7033A19";
shapes = (
{
closed = 1;
nodes = (
(334,0,l),
(334,606,ls),
(334,821,o),
(416,905,o),
(628,905,cs),
(808,905,o),
(878,823,o),
(878,614,cs),
(878,0,l),
(1032,0,l),
(1032,614,ls),
(1032,916,o),
(931,1034,o),
(673,1034,cs),
(483,1034,o),
(400,990,o),
(334,890,c),
(334,1442,l),
(180,1442,l),
(180,0,l)
);
}
);
width = 1207;
}
);
metricLeft = "=n";
metricRight = "=n";
note = h;
unicode = 104;
},
{
color = 3;
glyphname = hbar;
kernLeft = h;
kernRight = n;
layers = (
{
layerId = "2F8B9CD4-7B7F-4ACC-ADF3-B6E0F7033A19";
shapes = (
{
closed = 1;
nodes = (
(1032,916,o),
(931,1034,o),
(673,1034,cs),
(483,1034,o),
(400,990,o),
(334,890,c),
(334,1157,l),
(713,1157,l),
(713,1275,l),
(334,1275,l),
(334,1442,l),
(180,1442,l),
(180,1275,l),
(57,1275,l),
(57,1157,l),
(180,1157,l),
(180,0,l),
(334,0,l),
(334,606,ls),
(334,821,o),
(416,905,o),
(628,905,cs),
(808,905,o),
(878,823,o),
(878,614,cs),
(878,0,l),
(1032,0,l),
(1032,614,ls)
);
}
);
width = 1207;
}
);
unicode = 295;
},
{
color = 3;
glyphname = i;
kernLeft = i;
kernRight = i;
layers = (
{
anchors = (
{
name = bottom;
pos = (258,0);
},
{
name = ogonek;
pos = (334,0);
}
);
background = {
shapes = (
{
closed = 1;
nodes = (
(358,1211,o),
(334,1184,o),
(261,1184,c),
(187,1184,o),
(156,1211,o),
(156,1282,c),
(156,1353,o),
(186,1381,o),
(261,1381,c),
(334,1381,o),
(358,1353,o),
(358,1282,c)
);
}
);
};
layerId = "2F8B9CD4-7B7F-4ACC-ADF3-B6E0F7033A19";
shapes = (
{
closed = 1;
nodes = (
(335,1011,l),
(181,1011,l),
(181,0,l),
(335,0,l)
);
},
{
closed = 1;
nodes = (
(155,1194,l),
(361,1194,l),
(361,1386,l),
(155,1386,l)
);
}
);
width = 515;
}
);
note = i;
unicode = 105;
},
{
glyphname = idotless;
kernLeft = i;
kernRight = i;
layers = (
{
anchors = (
{
name = bottom;
pos = (261,0);
},
{
name = ogonek;
pos = (334,0);
},
{
name = top;
pos = (257,1011);
}
);
layerId = "2F8B9CD4-7B7F-4ACC-ADF3-B6E0F7033A19";
shapes = (
{
closed = 1;
nodes = (
(334,1011,l),
(180,1011,l),
(180,0,l),
(334,0,l)
);
}
);
width = 514;
}
);
metricLeft = n;
metricRight = "=|n";
note = dotlessi;
unicode = 305;
},
{
color = 3;
glyphname = j;
kernLeft = j;
kernRight = i;
layers = (
{
background = {
shapes = (
{
closed = 1;
nodes = (
(382,1211,o),
(358,1184,o),
(285,1184,c),
(211,1184,o),
(180,1211,o),
(180,1282,c),
(180,1353,o),
(210,1381,o),
(285,1381,c),
(358,1381,o),
(382,1353,o),
(382,1282,c)
);
}
);
};
guides = (
{
pos = (301,-402);
}
);
layerId = "2F8B9CD4-7B7F-4ACC-ADF3-B6E0F7033A19";
shapes = (
{
closed = 1;
nodes = (
(200,-108,ls),
(200,-234,o),
(167,-266,o),
(36,-266,cs),
(1,-266,o),
(-38,-262,o),
(-70,-255,c),
(-70,-388,l),
(-34,-397,o),
(11,-402,o),
(56,-402,cs),
(271,-402,o),
(354,-314,o),
(354,-87,cs),
(354,1011,l),
(200,1011,l)
);
},
{
closed = 1;
nodes = (
(177,1194,l),
(383,1194,l),
(383,1386,l),
(177,1386,l)
);
}
);
width = 534;
}
);
note = j;
unicode = 106;
},
{
color = 3;
glyphname = jdotless;
kernLeft = j;
kernRight = i;
layers = (
{
anchors = (
{
name = bottom;
pos = (275,0);
},
{
name = top;
pos = (277,1011);
}
);
layerId = "2F8B9CD4-7B7F-4ACC-ADF3-B6E0F7033A19";
shapes = (
{
closed = 1;
nodes = (
(200,-108,ls),
(200,-234,o),
(167,-266,o),
(36,-266,cs),
(1,-266,o),
(-38,-262,o),
(-70,-255,c),
(-70,-388,l),
(-34,-397,o),
(11,-402,o),
(56,-402,cs),
(271,-402,o),
(354,-314,o),
(354,-87,cs),
(354,1011,l),
(200,1011,l)
);
}
);
width = 534;
}
);
unicode = 567;
},
{
glyphname = k;
kernLeft = h;
kernRight = k;
layers = (
{
anchors = (
{
name = bottom;
pos = (579,0);
},
{
name = top;
pos = (561,1441);
}
);
background = {
shapes = (
{
closed = 1;
nodes = (
(333,0,l),
(333,474,l),
(547,474,l),
(706,474,o),
(738,457,o),
(825,0,c),
(985,0,l),
(891,436,o),
(865,504,o),
(715,547,c),
(910,597,o),
(942,656,o),
(942,1011,c),
(789,1011,l),
(789,933,o),
(789,875,o),
(789,830,cs),
(789,752,o),
(757,697,o),
(727,671,cs),
(686,636,o),
(619,620,o),
(514,620,c),
(333,620,l),
(333,1441,l),
(180,1441,l),
(180,0,l)
);
}
);
};
layerId = "2F8B9CD4-7B7F-4ACC-ADF3-B6E0F7033A19";
shapes = (
{
closed = 1;
nodes = (
(333,0,l),
(333,474,l),
(427,474,ls),
(565,474,o),
(621,428,o),
(708,246,cs),
(825,0,l),
(995,0,l),
(870,259,ls),
(768,471,o),
(729,530,o),
(569,554,c),
(561,539,l),
(739,566,o),
(781,628,o),
(860,805,cs),
(952,1011,l),
(789,1011,l),
(697,813,ls),
(629,667,o),
(572,620,o),
(426,620,cs),
(333,620,l),
(333,1441,l),
(180,1441,l),
(180,0,l)
);
}
);
width = 1115;
}
);
metricLeft = "=h";
note = k;
unicode = 107;
},
{
color = 3;
glyphname = kgreenlandic;
kernLeft = n;
kernRight = k;
layers = (
{
anchors = (
{
name = bottom;
pos = (542,0);
},
{
name = top;
pos = (542,1011);
}
);
background = {
shapes = (
{
closed = 1;
nodes = (
(333,0,l),
(333,414,l),
(427,414,ls),
(565,414,o),
(600,358,o),
(708,186,cs),
(825,0,l),
(995,0,l),
(870,199,ls),
(746,397,o),
(729,470,o),
(569,494,c),
(561,479,l),
(739,506,o),
(772,568,o),
(867,790,cs),
(962,1011,l),
(799,1011,l),
(705,798,ls),
(620,606,o),
(572,560,o),
(426,560,cs),
(333,560,l),
(333,1011,l),
(180,1011,l),
(180,0,l)
);
}
);
};
layerId = "2F8B9CD4-7B7F-4ACC-ADF3-B6E0F7033A19";
shapes = (
{
closed = 1;
nodes = (
(333,0,l),
(333,414,l),
(427,414,ls),
(550,414,o),
(587,379,o),
(677,235,cs),
(825,0,l),
(995,0,l),
(784,339,ls),
(722,439,o),
(686,476,o),
(569,494,c),
(561,479,l),
(723,504,o),
(761,543,o),
(867,790,cs),
(962,1011,l),
(799,1011,l),
(705,798,ls),
(620,606,o),
(572,560,o),
(426,560,cs),
(333,560,l),
(333,1011,l),
(180,1011,l),
(180,0,l)
);
}
);
width = 1105;
}
);
metricLeft = "=k";
unicode = 312;
},
{
color = 3;
glyphname = l;
kernLeft = h;
kernRight = d;
layers = (
{
anchors = (
{
name = bottom;
pos = (257,0);
},
{
name = center;
pos = (554,662);
},
{
name = top;
pos = (257,1441);
},
{
name = topright;
pos = (380,1011);
}
);
layerId = "2F8B9CD4-7B7F-4ACC-ADF3-B6E0F7033A19";
shapes = (
{
closed = 1;
nodes = (
(334,0,l),
(334,1441,l),
(180,1441,l),
(180,0,l)
);
}
);
width = 514;
}
);
metricLeft = "=h";
metricRight = "=d";
note = l;
unicode = 108;
},
{
color = 3;
glyphname = lslash;
kernLeft = l;
kernRight = l;
layers = (
{
background = {
shapes = (
{
closed = 1;
nodes = (
(5,722,l),
(5,578,l),
(509,895,l),
(509,1037,l)
);
},
{
closed = 1;
nodes = (
(334,0,l),
(334,1441,l),
(180,1441,l),
(180,0,l)
);
}
);
};
layerId = "2F8B9CD4-7B7F-4ACC-ADF3-B6E0F7033A19";
shapes = (
{
closed = 1;
nodes = (
(334,924,l),
(334,1441,l),
(180,1441,l),
(180,835,l),
(5,722,l),
(5,578,l),
(180,692,l),
(180,0,l),
(334,0,l),
(334,781,l),
(509,895,l),
(509,1037,l)
);
}
);
width = 514;
}
);
note = lslash;
unicode = 322;
},
{
color = 3;
glyphname = m;
kernLeft = n;
kernRight = n;
lastChange = "2023-01-25 11:11:56 +0000";
layers = (
{
anchors = (
{
name = bottom;
pos = (892,0);
},
{
name = top;
pos = (892,1011);
}
);
background = {
shapes = (
{
closed = 1;
nodes = (
(3382,851,o),
(3364,924,o),
(3300,972,cs),
(3259,1003,o),
(3190,1034,o),
(3077,1034,cs),
(2987,1034,o),
(2897,1024,o),
(2825,972,cs),
(2792,948,o),
(2754,900,o),
(2738,865,c),
(2685,986,o),
(2597,1034,o),
(2441,1034,cs),
(2345,1034,o),
(2275,1017,o),
(2224,982,cs),
(2173,946,o),
(2141,910,o),
(2119,868,c),
(2108,1011,l),
(1981,1011,l),
(1981,0,l),
(2134,0,l),
(2134,538,ls),
(2134,595,o),
(2136,642,o),
(2140,679,cs),
(2148,754,o),
(2162,800,o),
(2180,825,cs),
(2227,890,o),
(2301,910,o),
(2397,910,cs),
(2498,910,o),
(2570,883,o),
(2595,799,cs),
(2607,759,o),
(2615,698,o),
(2615,603,cs),
(2615,0,l),
(2769,0,l),
(2769,582,ls),
(2769,730,o),
(2786,847,o),
(2884,886,cs),
(2916,899,o),
(2962,909,o),
(3033,909,cs),
(3215,909,o),
(3251,823,o),
(3251,619,cs),
(3251,0,l),
(3404,0,l),
(3404,586,ls),
(3404,651,o),
(3401,704,o),
(3396,745,cs)
);
},
{
closed = 1;
nodes = (
(2147,1034,o),
(1912,1034,cs),
(1735,1034,o),
(1626,980,o),
(1573,865,c),
(1520,986,o),
(1432,1034,o),
(1276,1034,cs),
(1126,1034,o),
(1010,974,o),
(954,868,c),
(941,1011,l),
(815,1011,l),
(815,0,l),
(969,0,l),
(969,626,ls),
(969,821,o),
(1042,905,o),
(1229,905,cs),
(1388,905,o),
(1450,824,o),
(1450,644,cs),
(1450,0,l),
(1604,0,l),
(1604,653,ls),
(1604,824,o),
(1688,904,o),
(1868,904,cs),
(2025,904,o),
(2086,834,o),
(2086,653,cs),
(2086,0,l),
(2240,0,l),
(2240,653,ls),
(2240,908,o)
);
}
);
};
layerId = "2F8B9CD4-7B7F-4ACC-ADF3-B6E0F7033A19";
shapes = (
{
closed = 1;
nodes = (
(334,0,l),
(334,626,ls),
(334,821,o),
(407,905,o),
(594,905,cs),
(753,905,o),
(815,824,o),
(815,644,cs),
(815,0,l),
(969,0,l),
(969,626,ls),
(969,821,o),
(1042,905,o),
(1229,905,cs),
(1388,905,o),
(1450,824,o),
(1450,644,cs),
(1450,0,l),
(1604,0,l),
(1604,653,ls),
(1604,908,o),
(1512,1034,o),
(1277,1034,cs),
(1100,1034,o),
(991,980,o),
(938,865,c),
(885,986,o),
(797,1034,o),
(641,1034,cs),
(491,1034,o),
(375,974,o),
(319,868,c),
(306,1011,l),
(180,1011,l),
(180,0,l)
);
}
);
width = 1779;
}
);
metricLeft = "=n";
metricRight = "=n";
note = m;
unicode = 109;
},
{
color = 3;
glyphname = n;
kernLeft = n;
kernRight = n;
lastChange = "2023-01-25 11:11:56 +0000";
layers = (
{
anchors = (
{
name = bottom;
pos = (602,0);
},
{
name = top;
pos = (602,1011);
}
);
background = {
shapes = (
{
closed = 1;
nodes = (
(926,993,o),
(829,1037,o),
(674,1037,cs),
(579,1037,o),
(509,1032,o),
(444,997,cs),
(394,970,o),
(343,913,o),
(318,868,c),
(306,1011,l),
(180,1011,l),
(180,0,l),
(334,0,l),
(334,609,ls),
(334,709,o),
(357,791,o),
(394,830,cs),
(451,891,o),
(514,908,o),
(629,908,cs),
(671,908,o),
(695,905,o),
(719,901,cs),
(838,883,o),
(879,783,o),
(879,617,cs),
(879,0,l),
(1033,0,l),
(1033,587,ls),
(1033,750,o),
(1019,837,o),
(974,908,c)
);
}
);
};
layerId = "2F8B9CD4-7B7F-4ACC-ADF3-B6E0F7033A19";
shapes = (
{
closed = 1;
nodes = (
(334,0,l),
(334,606,ls),
(334,821,o),
(417,905,o),
(629,905,cs),
(809,905,o),
(879,824,o),
(879,614,cs),
(879,0,l),
(1033,0,l),
(1033,614,ls),
(1033,916,o),
(932,1034,o),
(674,1034,cs),
(484,1034,o),
(385,987,o),
(318,865,c),
(306,1011,l),
(180,1011,l),
(180,0,l)
);
}
);
width = 1208;
}
);
note = n;
unicode = 110;
},
{
color = 3;
glyphname = eng;
kernLeft = n;
kernRight = n;
layers = (
{
anchors = (
{
name = bottom;
pos = (602,0);
},
{
name = top;
pos = (602,1011);
}
);
background = {
shapes = (
{
closed = 1;
nodes = (
(932,1034,o),
(674,1034,cs),
(484,1034,o),
(385,987,o),
(318,865,c),
(306,1011,l),
(180,1011,l),
(180,0,l),
(334,0,l),
(334,606,ls),
(334,821,o),
(417,905,o),
(629,905,cs),
(809,905,o),
(879,824,o),
(879,614,cs),
(879,0,l),
(1033,0,l),
(1033,614,ls),
(1033,916,o)
);
}
);
};
layerId = "2F8B9CD4-7B7F-4ACC-ADF3-B6E0F7033A19";
shapes = (
{
closed = 1;
nodes = (
(484,1034,o),
(385,987,o),
(318,865,c),
(306,1011,l),
(180,1011,l),
(180,0,l),
(334,0,l),
(334,606,ls),
(334,821,o),
(417,905,o),
(629,905,cs),
(809,905,o),
(879,824,o),
(879,614,cs),
(879,-108,ls),
(879,-234,o),
(846,-266,o),
(715,-266,cs),
(680,-266,o),
(641,-262,o),
(609,-255,c),
(609,-388,l),
(645,-397,o),
(690,-402,o),
(735,-402,cs),
(950,-402,o),
(1033,-314,o),
(1033,-87,cs),
(1033,614,ls),
(1033,916,o),
(932,1034,o),
(674,1034,cs)
);
}
);
width = 1208;
}
);
metricLeft = "=n";
metricRight = "=n";
unicode = 331;
},
{
color = 3;
glyphname = o;
kernLeft = o;
kernRight = o;
lastChange = "2023-01-25 11:11:24 +0000";
layers = (
{
anchors = (
{
name = bottom;
pos = (588,0);
},
{
name = center;
pos = (588,506);
},
{
name = ogonek;
pos = (665,0);
},
{
name = top;
pos = (587,1011);
},
{
name = topright;
pos = (760,1012);
}
);
background = {
shapes = (
{
closed = 1;
nodes = (
(685,909,o),
(768,898,o),
(820,836,cs),
(876,769,o),
(897,634,o),
(897,504,cs),
(897,393,o),
(889,321,o),
(876,272,cs),
(842,141,o),
(753,102,o),
(591,102,cs),
(429,102,o),
(334,137,o),
(300,270,cs),
(288,319,o),
(277,391,o),
(277,502,cs),
(277,636,o),
(287,746,o),
(352,831,cs),
(399,893,o),
(489,909,o),
(585,909,c)
);
},
{
closed = 1;
nodes = (
(452,1034,o),
(300,997,o),
(225,912,cs),
(143,819,o),
(120,663,o),
(120,506,cs),
(120,379,o),
(136,289,o),
(157,225,cs),
(215,46,o),
(368,-23,o),
(585,-23,cs),
(801,-23,o),
(957,38,o),
(1017,225,cs),
(1038,289,o),
(1054,381,o),
(1054,509,cs),
(1054,663,o),
(1033,816,o),
(948,913,cs),
(872,996,o),
(722,1034,o),
(585,1034,cs)
);
}
);
};
layerId = "2F8B9CD4-7B7F-4ACC-ADF3-B6E0F7033A19";
shapes = (
{
closed = 1;
nodes = (
(923,-23,o),
(1054,126,o),
(1054,509,cs),
(1054,887,o),
(923,1034,o),
(585,1034,cs),
(250,1034,o),
(120,886,o),
(120,506,cs),
(120,125,o),
(250,-23,o),
(585,-23,cs)
);
},
{
closed = 1;
nodes = (
(352,102,o),
(277,198,o),
(277,502,cs),
(277,811,o),
(351,909,o),
(585,909,c),
(822,909,o),
(897,812,o),
(897,504,cs),
(897,198,o),
(824,102,o),
(591,102,cs)
);
}
);
width = 1174;
}
);
note = o;
unicode = 111;
},
{
color = 3;
glyphname = oslash;
kernLeft = o;
kernRight = o;
lastChange = "2023-01-25 11:11:24 +0000";
layers = (
{
anchors = (
{
name = bottom;
pos = (588,0);
},
{
name = top;
pos = (577,1011);
}
);
background = {
shapes = (
{
closed = 1;
nodes = (
(822,909,o),
(897,812,o),
(897,504,cs),
(897,198,o),
(824,102,o),
(591,102,cs),
(352,102,o),
(277,198,o),
(277,502,cs),
(277,811,o),
(351,909,o),
(585,909,c)
);
},
{
closed = 1;
nodes = (
(250,1034,o),
(120,886,o),
(120,506,cs),
(120,125,o),
(250,-23,o),
(585,-23,cs),
(923,-23,o),
(1054,126,o),
(1054,509,cs),
(1054,887,o),
(923,1034,o),
(585,1034,cs)
);
},
{
closed = 1;
nodes = (
(337,-134,l),
(949,1155,l),
(828,1155,l),
(217,-134,l)
);
}
);
};
layerId = "2F8B9CD4-7B7F-4ACC-ADF3-B6E0F7033A19";
shapes = (
{
closed = 1;
nodes = (
(337,-134,l),
(399,-2,l),
(453,-16,o),
(514,-23,o),
(585,-23,cs),
(923,-23,o),
(1054,126,o),
(1054,509,cs),
(1054,756,o),
(998,905,o),
(865,978,c),
(949,1155,l),
(828,1155,l),
(762,1016,l),
(711,1028,o),
(652,1034,o),
(585,1034,cs),
(250,1034,o),
(120,886,o),
(120,506,cs),
(120,262,o),
(173,114,o),
(299,39,c),
(217,-134,l)
);
},
{
closed = 1;
nodes = (
(300,229,o),
(277,334,o),
(277,502,cs),
(277,811,o),
(351,909,o),
(585,909,cs),
(631,909,o),
(671,905,o),
(706,897,c),
(361,170,l)
);
},
{
closed = 1;
nodes = (
(538,102,o),
(494,107,o),
(456,117,c),
(804,850,l),
(872,791,o),
(897,683,o),
(897,504,cs),
(897,198,o),
(824,102,o),
(591,102,cs)
);
}
);
width = 1174;
}
);
metricLeft = o;
metricWidth = o;
note = oslash;
unicode = 248;
},
{
color = 3;
glyphname = oe;
kernLeft = o;
kernRight = e;
lastChange = "2023-01-25 11:11:24 +0000";
layers = (
{
anchors = (
{
name = bottom;
pos = (943,0);
},
{
name = top;
pos = (943,1011);
}
);
background = {
shapes = (
{
closed = 1;
nodes = (
(2822,909,o),
(2897,812,o),
(2897,504,cs),
(2897,198,o),
(2824,102,o),
(2591,102,cs),
(2352,102,o),
(2277,198,o),
(2277,502,cs),
(2277,811,o),
(2351,909,o),
(2585,909,c)
);
},
{
closed = 1;
nodes = (
(2250,1034,o),
(2120,886,o),
(2120,506,cs),
(2120,125,o),
(2250,-23,o),
(2585,-23,cs),
(2923,-23,o),
(3034,126,o),
(3034,509,cs),
(3034,887,o),
(2923,1034,o),
(2585,1034,cs)
);
},
{
closed = 1;
nodes = (
(3065,835,o),
(3135,911,o),
(3345,911,cs),
(3548,911,o),
(3625,822,o),
(3620,594,c),
(3057,594,l)
);
},
{
closed = 1;
nodes = (
(3605,148,o),
(3534,97,o),
(3357,97,cs),
(3140,97,o),
(3055,204,o),
(3055,480,c),
(3776,480,l),
(3776,510,o),
(3777,543,o),
(3777,577,cs),
(3777,906,o),
(3657,1034,o),
(3349,1034,cs),
(3022,1034,o),
(2919,858,o),
(2919,505,cs),
(2919,125,o),
(3026,-23,o),
(3353,-23,cs),
(3635,-23,o),
(3768,73,o),
(3768,278,c),
(3611,278,l)
);
},
{
closed = 1;
nodes = (
(1065,835,o),
(1135,911,o),
(1339,911,cs),
(1543,911,o),
(1612,835,o),
(1620,594,c),
(1057,594,l)
);
},
{
closed = 1;
nodes = (
(1605,148,o),
(1534,102,o),
(1357,102,cs),
(1140,102,o),
(1055,209,o),
(1055,480,c),
(1776,480,l),
(1776,858,o),
(1676,1034,o),
(1339,1034,cs),
(1012,1034,o),
(899,858,o),
(899,505,cs),
(899,125,o),
(1026,-23,o),
(1353,-23,cs),
(1635,-23,o),
(1768,73,o),
(1768,278,c),
(1611,278,l)
);
}
);
};
layerId = "2F8B9CD4-7B7F-4ACC-ADF3-B6E0F7033A19";
shapes = (
{
closed = 1;
nodes = (
(790,-23,o),
(911,32,o),
(975,160,c),
(1037,32,o),
(1154,-23,o),
(1353,-23,cs),
(1635,-23,o),
(1768,73,o),
(1768,278,c),
(1611,278,l),
(1605,148,o),
(1534,102,o),
(1357,102,cs),
(1140,102,o),
(1055,209,o),
(1055,480,c),
(1776,480,l),
(1776,858,o),
(1676,1034,o),
(1339,1034,cs),
(1145,1034,o),
(1040,972,o),
(978,848,c),
(915,978,o),
(793,1034,o),
(585,1034,cs),
(250,1034,o),
(120,886,o),
(120,506,cs),
(120,125,o),
(250,-23,o),
(585,-23,cs)
);
},
{
closed = 1;
nodes = (
(352,102,o),
(277,198,o),
(277,502,cs),
(277,811,o),
(351,909,o),
(585,909,cs),
(822,909,o),
(897,812,o),
(897,504,cs),
(897,198,o),
(824,102,o),
(591,102,cs)
);
},
{
closed = 1;
nodes = (
(1065,835,o),
(1135,911,o),
(1339,911,cs),
(1542,911,o),
(1612,835,o),
(1620,594,c),
(1057,594,l)
);
}
);
width = 1886;
}
);
metricLeft = "=o";
metricRight = "=e";
note = oe;
unicode = 339;
},
{
color = 3;
glyphname = p;
kernLeft = n;
kernRight = o;
layers = (
{
anchors = (
{
name = bottom;
pos = (604,-389);
},
{
name = top;
pos = (604,1011);
}
);
background = {
shapes = (
{
closed = 1;
nodes = (
(405,102,o),
(334,251,o),
(334,510,cs),
(334,828,o),
(394,907,o),
(632,907,cs),
(857,907,o),
(913,829,o),
(913,517,cs),
(913,185,o),
(856,102,o),
(628,102,cs)
);
},
{
closed = 1;
nodes = (
(402,12,o),
(495,-23,o),
(665,-23,cs),
(957,-23,o),
(1071,128,o),
(1071,518,cs),
(1071,889,o),
(958,1033,o),
(667,1033,cs),
(489,1033,o),
(392,989,o),
(321,875,c),
(303,1010,l),
(180,1010,l),
(180,-389,l),
(334,-389,l),
(334,103,l)
);
}
);
};
layerId = "2F8B9CD4-7B7F-4ACC-ADF3-B6E0F7033A19";
shapes = (
{
closed = 1;
nodes = (
(334,-389,l),
(334,113,l),
(401,16,o),
(494,-23,o),
(665,-23,cs),
(941,-23,o),
(1071,120,o),
(1071,514,cs),
(1071,888,o),
(941,1034,o),
(667,1034,cs),
(449,1034,o),
(369,952,o),
(321,877,c),
(303,1011,l),
(180,1011,l),
(180,-389,l)
);
},
{
closed = 1;
nodes = (
(393,102,o),
(334,183,o),
(334,506,cs),
(334,812,o),
(406,909,o),
(632,909,cs),
(847,909,o),
(915,815,o),
(915,516,cs),
(915,201,o),
(846,102,o),
(629,102,cs)
);
}
);
width = 1191;
}
);
metricLeft = n;
metricRight = "=o";
note = p;
unicode = 112;
},
{
color = 3;
glyphname = thorn;
kernLeft = h;
kernRight = o;
layers = (
{
background = {
shapes = (
{
closed = 1;
nodes = (
(398,17,o),
(504,-23,o),
(665,-23,cs),
(959,-23,o),
(1073,126,o),
(1073,510,cs),
(1073,887,o),
(959,1033,o),
(667,1033,cs),
(449,1033,o),
(373,950,o),
(323,875,c),
(323,1441,l),
(180,1441,l),
(180,-302,l),
(334,-302,l),
(334,103,l)
);
},
{
closed = 1;
nodes = (
(428,102,o),
(334,233,o),
(334,510,cs),
(334,812,o),
(406,907,o),
(632,907,cs),
(857,907,o),
(913,829,o),
(913,517,cs),
(913,185,o),
(856,102,o),
(628,102,cs)
);
}
);
};
layerId = "2F8B9CD4-7B7F-4ACC-ADF3-B6E0F7033A19";
shapes = (
{
closed = 1;
nodes = (
(334,-389,l),
(334,113,l),
(401,16,o),
(494,-23,o),
(665,-23,cs),
(941,-23,o),
(1071,120,o),
(1071,514,cs),
(1071,888,o),
(941,1034,o),
(667,1034,cs),
(449,1034,o),
(369,952,o),
(323,878,c),
(323,1441,l),
(180,1441,l),
(180,-389,l)
);
},
{
closed = 1;
nodes = (
(393,102,o),
(334,183,o),
(334,506,cs),
(334,812,o),
(406,909,o),
(632,909,cs),
(847,909,o),
(915,815,o),
(915,516,cs),
(915,201,o),
(846,102,o),
(629,102,cs)
);
}
);
width = 1191;
}
);
metricLeft = n;
metricRight = o;
note = thorn;
unicode = 254;
},
{
color = 3;
glyphname = q;
kernLeft = o;
kernRight = u;
layers = (
{
background = {
shapes = (
{
closed = 1;
nodes = (
(335,102,o),
(278,185,o),
(278,517,cs),
(278,829,o),
(334,907,o),
(559,907,cs),
(785,907,o),
(857,812,o),
(857,510,cs),
(857,233,o),
(763,102,o),
(563,102,cs)
);
},
{
closed = 1;
nodes = (
(857,-389,l),
(1011,-389,l),
(1011,1010,l),
(888,1010,l),
(870,875,l),
(803,982,o),
(692,1033,o),
(524,1033,cs),
(233,1033,o),
(120,889,o),
(120,518,cs),
(120,107,o),
(217,-23,o),
(526,-23,cs),
(696,-23,o),
(789,12,o),
(857,103,c)
);
}
);
};
layerId = "2F8B9CD4-7B7F-4ACC-ADF3-B6E0F7033A19";
shapes = (
{
closed = 1;
nodes = (
(1011,-389,l),
(1011,1011,l),
(888,1011,l),
(870,877,l),
(822,952,o),
(742,1034,o),
(524,1034,cs),
(250,1034,o),
(120,888,o),
(120,514,cs),
(120,120,o),
(250,-23,o),
(526,-23,cs),
(697,-23,o),
(790,16,o),
(857,113,c),
(857,-389,l)
);
},
{
closed = 1;
nodes = (
(345,102,o),
(276,201,o),
(276,516,cs),
(276,815,o),
(344,909,o),
(559,909,cs),
(785,909,o),
(857,812,o),
(857,506,cs),
(857,183,o),
(798,102,o),
(562,102,cs)
);
}
);
width = 1191;
}
);
metricLeft = "=o";
metricRight = "=u";
note = q;
unicode = 113;
},
{
color = 3;
glyphname = r;
kernLeft = n;
kernRight = r;
layers = (
{
anchors = (
{
name = bottom;
pos = (257,0);
},
{
name = top;
pos = (416,1011);
}
);
background = {
shapes = (
{
closed = 1;
nodes = (
(1480,1011,l),
(1480,817,l),
(1480,0,l),
(1628,0,l),
(1628,698,l),
(1652,771,o),
(1702,818,o),
(1761,846,cs),
(1820,873,o),
(1887,882,o),
(1943,882,cs),
(1952,882,o),
(1952,882,o),
(1965,881,c),
(1965,1034,l),
(1946,1034,ls),
(1867,1034,o),
(1806,1014,o),
(1755,982,cs),
(1704,950,o),
(1662,905,o),
(1625,854,c),
(1619,1011,l)
);
},
{
closed = 1;
nodes = (
(932,1034,o),
(674,1034,cs),
(484,1034,o),
(385,987,o),
(318,865,c),
(306,1011,l),
(180,1011,l),
(180,0,l),
(334,0,l),
(334,606,ls),
(334,821,o),
(417,905,o),
(629,905,cs),
(809,905,o),
(879,824,o),
(879,614,cs),
(879,0,l),
(1033,0,l),
(1033,614,ls),
(1033,916,o)
);
}
);
};
layerId = "2F8B9CD4-7B7F-4ACC-ADF3-B6E0F7033A19";
shapes = (
{
closed = 1;
nodes = (
(180,1011,l),
(180,0,l),
(334,0,l),
(334,698,l),
(377,827,o),
(503,881,o),
(649,881,cs),
(671,881,l),
(671,1034,l),
(652,1034,ls),
(526,1034,o),
(396,996,o),
(325,854,c),
(306,1011,l)
);
}
);
width = 733;
}
);
metricLeft = "=n";
note = r;
unicode = 114;
},
{
color = 3;
glyphname = s;
kernLeft = s;
kernRight = s;
layers = (
{
anchors = (
{
name = bottom;
pos = (472,0);
},
{
name = top;
pos = (472,1011);
}
);
background = {
shapes = (
{
closed = 1;
nodes = (
(110,60,o),
(220,-23,o),
(503,-23,cs),
(764,-23,o),
(866,62,o),
(866,279,cs),
(866,468,o),
(772,541,o),
(535,575,cs),
(322,605,o),
(259,649,o),
(259,741,cs),
(259,868,o),
(325,918,o),
(494,918,cs),
(656,918,o),
(719,868,o),
(719,739,c),
(857,739,l),
(865,951,o),
(764,1034,o),
(494,1034,cs),
(233,1034,o),
(110,943,o),
(110,749,cs),
(110,573,o),
(212,491,o),
(436,459,cs),
(652,429,o),
(724,380,o),
(724,279,cs),
(724,139,o),
(670,95,o),
(499,95,cs),
(309,95,o),
(248,137,o),
(246,272,c),
(110,272,l)
);
}
);
};
layerId = "2F8B9CD4-7B7F-4ACC-ADF3-B6E0F7033A19";
shapes = (
{
closed = 1;
nodes = (
(105,60,o),
(220,-23,o),
(493,-23,cs),
(752,-23,o),
(866,71,o),
(866,271,cs),
(866,448,o),
(774,532,o),
(539,570,cs),
(433,587,ls),
(311,607,o),
(259,653,o),
(259,745,cs),
(259,864,o),
(328,914,o),
(494,914,cs),
(656,914,o),
(716,864,o),
(716,737,c),
(862,737,l),
(862,949,o),
(763,1034,o),
(494,1034,cs),
(236,1034,o),
(110,935,o),
(110,743,cs),
(110,575,o),
(203,491,o),
(428,455,cs),
(534,438,ls),
(666,417,o),
(724,363,o),
(724,269,cs),
(724,146,o),
(669,97,o),
(499,97,cs),
(309,97,o),
(253,139,o),
(251,272,c),
(105,272,l)
);
}
);
width = 971;
}
);
note = s;
unicode = 115;
},
{
glyphname = germandbls;
kernLeft = h;
kernRight = B;
lastChange = "2023-01-25 10:50:43 +0000";
layers = (
{
background = {
shapes = (
{
closed = 1;
nodes = (
(2531,-23,o),
(2646,104,o),
(2646,432,cs),
(2646,669,o),
(2559,798,o),
(2323,838,c),
(2321,820,l),
(2489,849,o),
(2555,956,o),
(2555,1117,cs),
(2555,1389,o),
(2397,1472,o),
(2113,1472,cs),
(1802,1472,o),
(1681,1369,o),
(1681,1105,cs),
(1681,0,l),
(1834,0,l),
(1834,1087,ls),
(1834,1296,o),
(1890,1348,o),
(2113,1348,cs),
(2328,1348,o),
(2396,1292,o),
(2396,1114,cs),
(2396,962,o),
(2344,891,o),
(2184,891,cs),
(2055,891,l),
(2055,755,l),
(2183,755,ls),
(2414,755,o),
(2485,664,o),
(2485,429,cs),
(2485,170,o),
(2435,105,o),
(2233,105,cs),
(2158,105,o),
(2057,113,o),
(1955,127,c),
(1955,0,l),
(2045,-15,o),
(2145,-23,o),
(2234,-23,cs)
);
},
{
closed = 1;
nodes = (
(829,1347,o),
(897,1291,o),
(897,1115,cs),
(897,939,o),
(830,884,o),
(619,884,cs),
(401,884,o),
(333,939,o),
(333,1113,cs),
(333,1291,o),
(401,1347,o),
(614,1347,c)
);
},
{
closed = 1;
nodes = (
(303,1472,o),
(182,1372,o),
(182,1116,cs),
(182,859,o),
(303,759,o),
(616,759,cs),
(932,759,o),
(1054,859,o),
(1054,1118,cs),
(1054,1373,o),
(932,1472,o),
(616,1472,cs)
);
}
);
};
layerId = "2F8B9CD4-7B7F-4ACC-ADF3-B6E0F7033A19";
shapes = (
{
closed = 1;
nodes = (
(1010,-23,o),
(1145,105,o),
(1145,432,cs),
(1145,670,o),
(1078,808,o),
(842,838,c),
(842,820,l),
(988,849,o),
(1052,956,o),
(1052,1117,cs),
(1052,1373,o),
(922,1472,o),
(616,1472,cs),
(313,1472,o),
(180,1349,o),
(180,1085,cs),
(180,0,l),
(333,0,l),
(333,1067,ls),
(333,1281,o),
(411,1347,o),
(614,1347,cs),
(819,1347,o),
(898,1291,o),
(898,1115,cs),
(898,949,o),
(830,884,o),
(663,884,cs),
(564,884,l),
(564,762,l),
(702,762,ls),
(916,762,o),
(988,683,o),
(988,432,cs),
(988,181,o),
(916,102,o),
(732,102,cs),
(627,102,o),
(556,119,o),
(468,147,c),
(468,15,l),
(544,-10,o),
(644,-23,o),
(723,-23,cs)
);
}
);
width = 1265;
}
);
metricLeft = n;
note = germandbls;
unicode = 223;
},
{
glyphname = t;
kernLeft = t;
kernRight = t;
layers = (
{
anchors = (
{
name = bottom;
pos = (435,0);
},
{
name = center;
pos = (332,506);
},
{
name = top;
pos = (425,1011);
},
{
name = topright;
pos = (425,1084);
}
);
layerId = "2F8B9CD4-7B7F-4ACC-ADF3-B6E0F7033A19";
shapes = (
{
closed = 1;
nodes = (
(634,1014,l),
(385,1014,l),
(385,1291,l),
(232,1291,l),
(232,1014,l),
(50,1014,l),
(50,892,l),
(232,892,l),
(232,289,ls),
(232,75,o),
(327,-26,o),
(510,-26,cs),
(576,-26,o),
(621,-19,o),
(656,-12,c),
(656,121,l),
(623,115,o),
(582,110,o),
(540,110,cs),
(432,110,o),
(386,154,o),
(386,268,c),
(386,892,l),
(634,892,l)
);
}
);
width = 726;
}
);
note = t;
unicode = 116;
},
{
color = 3;
glyphname = tbar;
kernLeft = t;
kernRight = t;
layers = (
{
layerId = "2F8B9CD4-7B7F-4ACC-ADF3-B6E0F7033A19";
shapes = (
{
closed = 1;
nodes = (
(634,1014,l),
(385,1014,l),
(385,1291,l),
(232,1291,l),
(232,1014,l),
(50,1014,l),
(50,892,l),
(232,892,l),
(232,565,l),
(62,565,l),
(62,447,l),
(232,447,l),
(232,289,ls),
(232,75,o),
(327,-26,o),
(510,-26,cs),
(576,-26,o),
(621,-19,o),
(656,-12,c),
(656,121,l),
(623,115,o),
(582,110,o),
(540,110,cs),
(432,110,o),
(386,154,o),
(386,268,cs),
(386,447,l),
(602,447,l),
(602,565,l),
(386,565,l),
(386,892,l),
(634,892,l)
);
}
);
width = 726;
}
);
unicode = 359;
},
{
color = 3;
glyphname = u;
kernLeft = u;
kernRight = u;
lastChange = "2023-01-25 11:11:56 +0000";
layers = (
{
anchors = (
{
name = bottom;
pos = (589,0);
},
{
name = ogonek;
pos = (955,0);
},
{
name = top;
pos = (589,1011);
},
{
name = topright;
pos = (935,1011);
}
);
background = {
shapes = (
{
closed = 1;
nodes = (
(175,73,o),
(260,-23,o),
(529,-23,cs),
(684,-23,o),
(808,34,o),
(874,135,c),
(887,0,l),
(1015,0,l),
(1015,1011,l),
(862,1011,l),
(862,422,ls),
(862,204,o),
(769,102,o),
(571,102,cs),
(387,102,o),
(329,174,o),
(329,403,cs),
(329,1011,l),
(175,1011,l),
(175,376,ls)
);
}
);
};
layerId = "2F8B9CD4-7B7F-4ACC-ADF3-B6E0F7033A19";
shapes = (
{
closed = 1;
nodes = (
(715,-23,o),
(812,24,o),
(878,146,c),
(890,0,l),
(1016,0,l),
(1016,1011,l),
(862,1011,l),
(862,405,ls),
(862,190,o),
(781,106,o),
(573,106,cs),
(397,106,o),
(329,187,o),
(329,397,cs),
(329,1011,l),
(175,1011,l),
(175,397,ls),
(175,95,o),
(274,-23,o),
(528,-23,cs)
);
}
);
width = 1196;
}
);
metricLeft = "=|n";
metricRight = "=|n";
note = u;
unicode = 117;
},
{
glyphname = v;
kernLeft = v;
kernRight = v;
layers = (
{
anchors = (
{
name = bottom;
pos = (521,0);
},
{
name = top;
pos = (521,1011);
}
);
layerId = "2F8B9CD4-7B7F-4ACC-ADF3-B6E0F7033A19";
shapes = (
{
closed = 1;
nodes = (
(622,0,l),
(991,1011,l),
(833,1011,l),
(523,141,l),
(210,1011,l),
(50,1011,l),
(423,0,l)
);
}
);
width = 1041;
}
);
note = v;
unicode = 118;
},
{
glyphname = w;
kernLeft = v;
kernRight = v;
layers = (
{
anchors = (
{
name = bottom;
pos = (796,0);
},
{
name = top;
pos = (796,1011);
}
);
layerId = "2F8B9CD4-7B7F-4ACC-ADF3-B6E0F7033A19";
shapes = (
{
closed = 1;
nodes = (
(536,0,l),
(792,874,l),
(1046,0,l),
(1221,0,l),
(1511,1011,l),
(1353,1011,l),
(1199,383,l),
(1140,127,l),
(1077,383,l),
(888,1011,l),
(698,1011,l),
(505,376,l),
(446,125,l),
(389,387,l),
(231,1011,l),
(70,1011,l),
(360,0,l)
);
}
);
width = 1581;
}
);
note = w;
unicode = 119;
},
{
color = 3;
glyphname = x;
kernLeft = x;
kernRight = x;
lastChange = "2023-01-25 11:11:24 +0000";
layers = (
{
anchors = (
{
name = bottom;
pos = (506,0);
},
{
name = top;
pos = (506,1011);
}
);
background = {
shapes = (
{
closed = 1;
nodes = (
(40,1011,l),
(219,1011,l),
(536,568,l),
(555,568,l),
(971,0,l),
(792,0,l),
(465,451,l),
(446,451,l)
);
},
{
closed = 1;
nodes = (
(544,451,l),
(217,0,l),
(43,0,l),
(459,568,l),
(478,568,l),
(795,1011,l),
(969,1011,l),
(563,451,l)
);
}
);
};
layerId = "2F8B9CD4-7B7F-4ACC-ADF3-B6E0F7033A19";
shapes = (
{
closed = 1;
nodes = (
(217,0,l),
(531,433,l),
(479,433,l),
(792,0,l),
(971,0,l),
(575,540,l),
(575,468,l),
(969,1011,l),
(795,1011,l),
(481,572,l),
(533,572,l),
(219,1011,l),
(40,1011,l),
(437,465,l),
(437,537,l),
(43,0,l)
);
}
);
width = 1011;
}
);
note = x;
unicode = 120;
},
{
color = 3;
glyphname = y;
kernLeft = u;
kernRight = u;
layers = (
{
anchors = (
{
name = bottom;
pos = (1179,0);
},
{
name = top;
pos = (602,1011);
}
);
background = {
shapes = (
{
closed = 1;
nodes = (
(2291,47,o),
(2289,-23,o),
(2285,-54,cs),
(2271,-163,o),
(2240,-224,o),
(2159,-252,cs),
(2119,-266,o),
(2058,-269,o),
(1989,-269,cs),
(1910,-269,o),
(1888,-263,o),
(1853,-251,cs),
(1759,-218,o),
(1745,-180,o),
(1743,-106,c),
(1586,-106,l),
(1587,-239,o),
(1667,-330,o),
(1770,-367,cs),
(1822,-386,o),
(1903,-394,o),
(2005,-394,cs),
(2127,-394,o),
(2238,-380,o),
(2317,-305,cs),
(2415,-211,o),
(2427,-109,o),
(2427,122,cs),
(2427,1011,l),
(2274,1011,l),
(2274,462,ls),
(2274,380,o),
(2273,325,o),
(2241,265,cs),
(2220,225,o),
(2181,190,o),
(2133,171,cs),
(2098,157,o),
(2046,142,o),
(1975,142,cs),
(1903,142,o),
(1855,153,o),
(1824,168,cs),
(1743,207,o),
(1731,313,o),
(1731,443,cs),
(1731,1011,l),
(1577,1011,l),
(1577,416,ls),
(1577,309,o),
(1588,239,o),
(1602,192,cs),
(1623,122,o),
(1657,83,o),
(1736,50,cs),
(1782,31,o),
(1875,17,o),
(1963,17,cs),
(2123,17,o),
(2218,49,o),
(2291,169,c),
(2291,96,ls)
);
},
{
closed = 1;
nodes = (
(804,910,o),
(875,801,o),
(875,512,cs),
(875,223,o),
(815,114,o),
(583,114,cs),
(353,114,o),
(295,223,o),
(295,512,cs),
(295,801,o),
(352,910,o),
(580,910,cs)
);
},
{
closed = 1;
nodes = (
(880,-201,o),
(823,-282,o),
(584,-282,cs),
(410,-282,o),
(342,-237,o),
(338,-120,c),
(181,-120,l),
(183,-315,o),
(312,-407,o),
(586,-407,cs),
(904,-407,o),
(1028,-276,o),
(1028,62,cs),
(1028,1011,l),
(910,1011,l),
(894,876,l),
(824,990,o),
(726,1034,o),
(545,1034,cs),
(253,1034,o),
(138,887,o),
(138,512,cs),
(138,137,o),
(253,-12,o),
(539,-12,cs),
(715,-12,o),
(846,25,o),
(904,168,c),
(880,185,l),
(880,56,ls)
);
}
);
};
layerId = "2F8B9CD4-7B7F-4ACC-ADF3-B6E0F7033A19";
shapes = (
{
closed = 1;
nodes = (
(880,-201,o),
(823,-282,o),
(584,-282,cs),
(410,-282,o),
(342,-237,o),
(338,-120,c),
(181,-120,l),
(183,-315,o),
(312,-407,o),
(586,-407,cs),
(904,-407,o),
(1028,-276,o),
(1028,62,cs),
(1028,1011,l),
(874,1011,l),
(874,445,ls),
(874,230,o),
(791,146,o),
(579,146,cs),
(399,146,o),
(329,227,o),
(329,437,cs),
(329,1011,l),
(175,1011,l),
(175,437,ls),
(175,135,o),
(276,17,o),
(534,17,cs),
(738,17,o),
(837,71,o),
(905,216,c),
(880,233,l),
(880,56,ls)
);
}
);
width = 1208;
}
);
metricLeft = "=u";
metricRight = "=u";
note = y;
unicode = 121;
},
{
color = 3;
glyphname = z;
kernLeft = z;
kernRight = z;
layers = (
{
anchors = (
{
name = bottom;
pos = (458,0);
},
{
name = top;
pos = (458,1011);
}
);
layerId = "2F8B9CD4-7B7F-4ACC-ADF3-B6E0F7033A19";
shapes = (
{
closed = 1;
nodes = (
(690,889,l),
(656,927,l),
(90,107,l),
(90,0,l),
(812,0,l),
(812,124,l),
(216,124,l),
(250,87,l),
(809,914,l),
(809,1011,l),
(99,1011,l),
(99,889,l)
);
}
);
width = 908;
}
);
note = z;
unicode = 122;
},
{
color = 3;
glyphname = f_f;
kernLeft = f;
kernRight = f;
layers = (
{
anchors = (
{
name = caret_1;
pos = (574,0);
}
);
layerId = "2F8B9CD4-7B7F-4ACC-ADF3-B6E0F7033A19";
shapes = (
{
closed = 1;
nodes = (
(1166,1011,l),
(918,1011,l),
(918,1196,ls),
(918,1291,o),
(954,1321,o),
(1066,1321,cs),
(1096,1321,o),
(1138,1318,o),
(1183,1313,c),
(1183,1437,l),
(1141,1444,o),
(1097,1448,o),
(1062,1448,cs),
(836,1448,o),
(764,1373,o),
(764,1155,cs),
(764,1011,l),
(386,1011,l),
(386,1196,ls),
(386,1291,o),
(422,1321,o),
(534,1321,cs),
(564,1321,o),
(606,1318,o),
(651,1313,c),
(651,1437,l),
(609,1444,o),
(565,1448,o),
(530,1448,cs),
(304,1448,o),
(232,1373,o),
(232,1155,cs),
(232,1011,l),
(50,1011,l),
(50,889,l),
(232,889,l),
(232,0,l),
(386,0,l),
(386,889,l),
(764,889,l),
(764,0,l),
(918,0,l),
(918,889,l),
(1166,889,l)
);
}
);
width = 1248;
}
);
metricLeft = f;
metricRight = f;
},
{
color = 3;
glyphname = f_f_i;
kernLeft = f;
kernRight = i;
layers = (
{
anchors = (
{
name = caret_1;
pos = (575,0);
},
{
name = caret_2;
pos = (1107,0);
}
);
background = {
shapes = (
{
closed = 1;
nodes = (
(386,1011,l),
(386,1196,l),
(386,1255,o),
(397,1279,o),
(424,1300,cs),
(445,1316,o),
(492,1321,o),
(534,1321,cs),
(596,1321,o),
(607,1318,o),
(651,1313,c),
(651,1437,l),
(627,1441,o),
(592,1448,o),
(530,1448,cs),
(417,1448,o),
(363,1431,o),
(323,1406,cs),
(268,1372,o),
(232,1316,o),
(232,1135,cs),
(232,1011,l),
(50,1011,l),
(50,889,l),
(232,889,l),
(232,0,l),
(385,0,l),
(385,889,l),
(634,889,l),
(634,1011,l)
);
},
{
closed = 1;
nodes = (
(1295,0,l),
(1449,0,l),
(1449,1011,l),
(1295,1011,l)
);
},
{
closed = 1;
nodes = (
(1299,1370,o),
(1279,1336,o),
(1279,1271,cs),
(1279,1207,o),
(1303,1185,o),
(1371,1185,cs),
(1447,1185,o),
(1465,1207,o),
(1465,1271,cs),
(1465,1303,o),
(1461,1328,o),
(1448,1345,cs),
(1435,1361,o),
(1411,1370,o),
(1371,1370,cs)
);
},
{
closed = 1;
nodes = (
(918,1011,l),
(918,1196,l),
(918,1255,o),
(929,1279,o),
(956,1300,cs),
(977,1316,o),
(1020,1321,o),
(1062,1321,cs),
(1124,1321,o),
(1139,1318,o),
(1183,1313,c),
(1183,1437,l),
(1159,1441,o),
(1124,1448,o),
(1062,1448,cs),
(949,1448,o),
(895,1431,o),
(855,1406,cs),
(800,1372,o),
(764,1316,o),
(764,1135,cs),
(764,1011,l),
(582,1011,l),
(582,889,l),
(764,889,l),
(764,0,l),
(917,0,l),
(917,889,l),
(1380,889,l),
(1380,1011,l)
);
}
);
};
layerId = "2F8B9CD4-7B7F-4ACC-ADF3-B6E0F7033A19";
shapes = (
{
closed = 1;
nodes = (
(386,1011,l),
(386,1196,ls),
(386,1291,o),
(422,1321,o),
(534,1321,cs),
(564,1321,o),
(606,1318,o),
(651,1313,c),
(651,1437,l),
(609,1444,o),
(565,1448,o),
(530,1448,cs),
(304,1448,o),
(232,1373,o),
(232,1155,cs),
(232,1011,l),
(50,1011,l),
(50,889,l),
(232,889,l),
(232,0,l),
(386,0,l),
(386,889,l),
(764,889,l),
(764,0,l),
(918,0,l),
(918,889,l),
(1296,889,l),
(1296,0,l),
(1450,0,l),
(1450,1011,l),
(918,1011,l),
(918,1196,ls),
(918,1291,o),
(954,1321,o),
(1066,1321,cs),
(1096,1321,o),
(1138,1318,o),
(1183,1313,c),
(1183,1437,l),
(1141,1444,o),
(1097,1448,o),
(1062,1448,cs),
(836,1448,o),
(764,1373,o),
(764,1155,cs),
(764,1011,l)
);
},
{
closed = 1;
nodes = (
(1476,1194,l),
(1476,1386,l),
(1270,1386,l),
(1270,1194,l)
);
}
);
width = 1630;
}
);
metricLeft = f;
metricRight = i;
},
{
color = 3;
glyphname = f_f_l;
kernLeft = f;
kernRight = l;
layers = (
{
anchors = (
{
name = caret_1;
pos = (575,0);
},
{
name = caret_2;
pos = (1107,0);
}
);
background = {
anchors = (
{
name = caret_1;
pos = (514,0);
},
{
name = caret_2;
pos = (1055,0);
}
);
shapes = (
{
closed = 1;
nodes = (
(386,1011,l),
(386,1196,ls),
(386,1291,o),
(422,1321,o),
(534,1321,cs),
(564,1321,o),
(606,1318,o),
(651,1313,c),
(651,1437,l),
(609,1444,o),
(565,1448,o),
(530,1448,cs),
(304,1448,o),
(232,1373,o),
(232,1155,cs),
(232,1011,l),
(50,1011,l),
(50,889,l),
(232,889,l),
(232,0,l),
(386,0,l),
(386,889,l),
(764,889,l),
(764,0,l),
(918,0,l),
(918,889,l),
(1296,889,l),
(1296,0,l),
(1450,0,l),
(1450,1011,l),
(918,1011,l),
(918,1196,ls),
(918,1291,o),
(954,1321,o),
(1066,1321,cs),
(1096,1321,o),
(1138,1318,o),
(1183,1313,c),
(1183,1437,l),
(1141,1444,o),
(1097,1448,o),
(1062,1448,cs),
(836,1448,o),
(764,1373,o),
(764,1155,cs),
(764,1011,l)
);
},
{
closed = 1;
nodes = (
(1476,1194,l),
(1476,1386,l),
(1270,1386,l),
(1270,1194,l)
);
}
);
};
layerId = "2F8B9CD4-7B7F-4ACC-ADF3-B6E0F7033A19";
shapes = (
{
closed = 1;
nodes = (
(1166,1011,l),
(918,1011,l),
(918,1196,ls),
(918,1291,o),
(954,1321,o),
(1066,1321,cs),
(1096,1321,o),
(1138,1318,o),
(1183,1313,c),
(1183,1437,l),
(1141,1444,o),
(1097,1448,o),
(1062,1448,cs),
(836,1448,o),
(764,1373,o),
(764,1155,cs),
(764,1011,l),
(386,1011,l),
(386,1196,ls),
(386,1291,o),
(422,1321,o),
(534,1321,cs),
(564,1321,o),
(606,1318,o),
(651,1313,c),
(651,1437,l),
(609,1444,o),
(565,1448,o),
(530,1448,cs),
(304,1448,o),
(232,1373,o),
(232,1155,cs),
(232,1011,l),
(50,1011,l),
(50,889,l),
(232,889,l),
(232,0,l),
(386,0,l),
(386,889,l),
(764,889,l),
(764,0,l),
(918,0,l),
(918,889,l),
(1166,889,l)
);
},
{
closed = 1;
nodes = (
(1296,1441,l),
(1296,0,l),
(1450,0,l),
(1450,1441,l)
);
}
);
width = 1630;
}
);
metricLeft = f;
metricRight = l;
},
{
color = 3;
glyphname = fi;
kernLeft = f;
kernRight = i;
layers = (
{
anchors = (
{
name = caret_1;
pos = (574,0);
}
);
background = {
shapes = (
{
closed = 1;
nodes = (
(763,0,l),
(917,0,l),
(917,1011,l),
(763,1011,l)
);
},
{
closed = 1;
nodes = (
(767,1370,o),
(747,1336,o),
(747,1271,cs),
(747,1207,o),
(771,1185,o),
(839,1185,cs),
(915,1185,o),
(933,1207,o),
(933,1271,cs),
(933,1303,o),
(929,1328,o),
(916,1345,cs),
(903,1361,o),
(879,1370,o),
(839,1370,cs)
);
},
{
closed = 1;
nodes = (
(386,1011,l),
(386,1196,l),
(386,1255,o),
(397,1279,o),
(424,1300,cs),
(445,1316,o),
(488,1321,o),
(530,1321,cs),
(592,1321,o),
(607,1318,o),
(651,1313,c),
(651,1437,l),
(627,1441,o),
(592,1448,o),
(530,1448,cs),
(417,1448,o),
(363,1431,o),
(323,1406,cs),
(268,1372,o),
(232,1316,o),
(232,1135,cs),
(232,1011,l),
(50,1011,l),
(50,889,l),
(232,889,l),
(232,0,l),
(385,0,l),
(385,889,l),
(848,889,l),
(848,1011,l)
);
}
);
};
layerId = "2F8B9CD4-7B7F-4ACC-ADF3-B6E0F7033A19";
shapes = (
{
closed = 1;
nodes = (
(386,1011,l),
(386,1196,ls),
(386,1291,o),
(422,1321,o),
(534,1321,cs),
(564,1321,o),
(606,1318,o),
(651,1313,c),
(651,1437,l),
(609,1444,o),
(565,1448,o),
(530,1448,cs),
(304,1448,o),
(232,1373,o),
(232,1155,cs),
(232,1011,l),
(50,1011,l),
(50,889,l),
(232,889,l),
(232,0,l),
(386,0,l),
(386,889,l),
(762,889,l),
(762,0,l),
(916,0,l),
(916,1011,l)
);
},
{
closed = 1;
nodes = (
(942,1194,l),
(942,1386,l),
(736,1386,l),
(736,1194,l)
);
}
);
width = 1096;
}
);
metricLeft = f;
metricRight = i;
note = fi;
unicode = 64257;
},
{
color = 3;
glyphname = fl;
kernLeft = f;
kernRight = l;
layers = (
{
anchors = (
{
name = caret_1;
pos = (574,0);
}
);
background = {
shapes = (
{
closed = 1;
nodes = (
(386,1011,l),
(386,1196,ls),
(386,1291,o),
(422,1321,o),
(534,1321,cs),
(564,1321,o),
(606,1318,o),
(651,1313,c),
(651,1437,l),
(609,1444,o),
(565,1448,o),
(530,1448,cs),
(304,1448,o),
(232,1373,o),
(232,1155,cs),
(232,1011,l),
(50,1011,l),
(50,889,l),
(232,889,l),
(232,0,l),
(386,0,l),
(386,889,l),
(762,889,l),
(762,0,l),
(916,0,l),
(916,1011,l)
);
},
{
closed = 1;
nodes = (
(942,1194,l),
(942,1386,l),
(736,1386,l),
(736,1194,l)
);
}
);
};
layerId = "2F8B9CD4-7B7F-4ACC-ADF3-B6E0F7033A19";
shapes = (
{
closed = 1;
nodes = (
(386,1011,l),
(386,1196,ls),
(386,1291,o),
(422,1321,o),
(534,1321,cs),
(564,1321,o),
(606,1318,o),
(651,1313,c),
(651,1437,l),
(609,1444,o),
(565,1448,o),
(530,1448,cs),
(304,1448,o),
(232,1373,o),
(232,1155,cs),
(232,1011,l),
(50,1011,l),
(50,889,l),
(232,889,l),
(232,0,l),
(386,0,l),
(386,889,l),
(634,889,l),
(634,1011,l)
);
},
{
closed = 1;
nodes = (
(916,0,l),
(916,1441,l),
(762,1441,l),
(762,0,l)
);
}
);
width = 1096;
}
);
metricLeft = f;
metricRight = l;
note = fl;
unicode = 64258;
},
{
glyphname = ordfeminine;
kernLeft = asterisk;
kernRight = asterisk;
layers = (
{
layerId = "2F8B9CD4-7B7F-4ACC-ADF3-B6E0F7033A19";
shapes = (
{
closed = 1;
nodes = (
(234,1252,l),
(234,1335,o),
(288,1363,o),
(399,1363,cs),
(506,1363,o),
(548,1342,o),
(548,1252,cs),
(548,1145,l),
(562,1159,l),
(527,1159,o),
(468,1159,o),
(407,1159,cs),
(185,1159,o),
(70,1087,o),
(70,924,cs),
(70,781,o),
(173,690,o),
(337,690,cs),
(446,690,o),
(572,754,o),
(600,818,c),
(563,813,l),
(573,741,o),
(630,690,o),
(704,690,cs),
(724,690,o),
(738,690,o),
(759,697,c),
(759,824,l),
(701,819,o),
(697,824,o),
(697,883,cs),
(697,1244,ls),
(697,1407,o),
(603,1479,o),
(389,1479,cs),
(198,1479,o),
(94,1401,o),
(94,1252,c)
);
},
{
closed = 1;
nodes = (
(501,841,o),
(429,816,o),
(366,816,cs),
(286,816,o),
(234,857,o),
(234,928,cs),
(234,1041,o),
(310,1054,o),
(442,1054,cs),
(484,1054,o),
(547,1054,o),
(562,1054,c),
(548,1068,l),
(548,885,l)
);
}
);
width = 834;
}
);
note = ordfeminine;
unicode = 170;
},
{
glyphname = ordmasculine;
kernLeft = asterisk;
kernRight = asterisk;
lastChange = "2023-01-25 11:11:24 +0000";
layers = (
{
layerId = "2F8B9CD4-7B7F-4ACC-ADF3-B6E0F7033A19";
shapes = (
{
closed = 1;
nodes = (
(675,697,o),
(775,810,o),
(775,1094,cs),
(775,1372,o),
(673,1486,o),
(423,1486,cs),
(175,1486,o),
(75,1372,o),
(75,1092,cs),
(75,812,o),
(176,697,o),
(423,697,cs)
);
},
{
closed = 1;
nodes = (
(258,822,o),
(225,889,o),
(225,1089,c),
(225,1276,o),
(257,1361,o),
(423,1361,cs),
(590,1361,o),
(624,1281,o),
(624,1091,cs),
(624,893,o),
(596,822,o),
(427,822,cs)
);
}
);
width = 850;
}
);
note = ordmasculine;
unicode = 186;
},
{
color = 3;
glyphname = Omega;
layers = (
{
background = {
shapes = (
{
closed = 1;
nodes = (
(609,152,l),
(411,155,o),
(328,269,o),
(328,737,cs),
(328,1184,o),
(408,1326,o),
(682,1326,cs),
(956,1326,o),
(1032,1186,o),
(1032,737,cs),
(1032,269,o),
(955,152,o),
(751,152,c),
(751,75,l),
(1083,75,o),
(1210,237,o),
(1210,737,cs),
(1210,1255,o),
(1084,1472,o),
(682,1472,cs),
(280,1472,o),
(150,1255,o),
(150,737,cs),
(150,238,o),
(279,76,o),
(609,75,c)
);
},
{
closed = 1;
nodes = (
(609,152,l),
(120,152,l),
(120,0,l),
(609,0,l)
);
},
{
closed = 1;
nodes = (
(1240,152,l),
(751,152,l),
(751,0,l),
(1240,0,l)
);
}
);
};
layerId = "2F8B9CD4-7B7F-4ACC-ADF3-B6E0F7033A19";
shapes = (
{
closed = 1;
nodes = (
(609,152,l),
(411,155,o),
(328,269,o),
(328,737,cs),
(328,1184,o),
(408,1326,o),
(682,1326,cs),
(956,1326,o),
(1032,1186,o),
(1032,737,cs),
(1032,269,o),
(955,152,o),
(751,152,c),
(751,0,l),
(1220,0,l),
(1220,152,l),
(1041,152,l),
(1160,243,o),
(1210,424,o),
(1210,737,cs),
(1210,1255,o),
(1084,1472,o),
(682,1472,cs),
(280,1472,o),
(150,1255,o),
(150,737,cs),
(150,424,o),
(201,243,o),
(320,152,c),
(140,152,l),
(140,0,l),
(609,0,l)
);
}
);
width = 1360;
}
);
unicode = 937;
},
{
color = 3;
glyphname = pi;
layers = (
{
layerId = "2F8B9CD4-7B7F-4ACC-ADF3-B6E0F7033A19";
shapes = (
{
closed = 1;
nodes = (
(1376,1011,l),
(80,1011,l),
(80,859,l),
(352,859,l),
(340,650,o),
(269,262,o),
(166,0,c),
(346,0,l),
(438,219,o),
(513,695,o),
(523,859,c),
(987,859,l),
(987,0,l),
(1157,0,l),
(1157,859,l),
(1376,859,l)
);
}
);
width = 1425;
}
);
note = pi;
unicode = 960;
},
{
color = 3;
glyphname = zero;
kernLeft = zero;
kernRight = zero;
lastChange = "2023-01-25 11:11:24 +0000";
layers = (
{
background = {
shapes = (
{
closed = 1;
nodes = (
(992,1328,o),
(1022,1113,o),
(1022,742,cs),
(1022,539,o),
(1024,335,o),
(939,223,cs),
(890,157,o),
(800,125,o),
(669,125,cs),
(540,125,o),
(450,157,o),
(401,222,cs),
(319,332,o),
(318,530,o),
(318,731,cs),
(318,1107,o),
(347,1328,o),
(674,1328,cs)
);
},
{
closed = 1;
nodes = (
(505,1473,o),
(355,1427,o),
(276,1338,cs),
(153,1199,o),
(140,966,o),
(140,735,cs),
(140,435,o),
(172,231,o),
(280,112,cs),
(366,18,o),
(508,-21,o),
(671,-21,cs),
(831,-21,o),
(974,16,o),
(1062,114,cs),
(1167,231,o),
(1200,431,o),
(1200,736,cs),
(1200,1018,o),
(1172,1217,o),
(1066,1337,cs),
(983,1431,o),
(831,1473,o),
(675,1473,cs)
);
}
);
};
layerId = "2F8B9CD4-7B7F-4ACC-ADF3-B6E0F7033A19";
shapes = (
{
closed = 1;
nodes = (
(1074,-23,o),
(1200,196,o),
(1200,737,cs),
(1200,1255,o),
(1074,1472,o),
(672,1472,cs),
(270,1472,o),
(140,1255,o),
(140,737,cs),
(140,196,o),
(270,-23,o),
(672,-23,cs)
);
},
{
closed = 1;
nodes = (
(398,123,o),
(318,244,o),
(318,737,cs),
(318,1184,o),
(398,1326,o),
(672,1326,cs),
(946,1326,o),
(1022,1186,o),
(1022,737,cs),
(1022,246,o),
(946,123,o),
(672,123,cs)
);
}
);
width = 1340;
}
);
note = zero;
unicode = 48;
},
{
glyphname = one;
layers = (
{
layerId = "2F8B9CD4-7B7F-4ACC-ADF3-B6E0F7033A19";
shapes = (
{
closed = 1;
nodes = (
(305,1277,l),
(305,0,l),
(479,0,l),
(479,1449,l),
(313,1449,l),
(85,1334,l),
(85,1172,l)
);
}
);
width = 699;
}
);
note = one;
unicode = 49;
},
{
color = 3;
glyphname = two;
layers = (
{
layerId = "2F8B9CD4-7B7F-4ACC-ADF3-B6E0F7033A19";
shapes = (
{
closed = 1;
nodes = (
(278,1256,o),
(353,1325,o),
(547,1325,cs),
(757,1325,o),
(839,1256,o),
(839,1097,cs),
(839,944,o),
(769,860,o),
(490,653,cs),
(185,429,o),
(109,305,o),
(109,34,cs),
(109,23,o),
(109,12,o),
(109,0,c),
(995,0,l),
(995,152,l),
(298,152,l),
(298,286,o),
(394,397,o),
(628,563,cs),
(936,786,o),
(1013,890,o),
(1013,1091,cs),
(1013,1358,o),
(874,1469,o),
(554,1469,cs),
(245,1469,o),
(100,1344,o),
(100,1078,c),
(278,1078,l)
);
}
);
width = 1103;
}
);
note = two;
unicode = 50;
},
{
color = 3;
glyphname = three;
kernRight = three;
layers = (
{
background = {
shapes = (
{
closed = 1;
nodes = (
(1783,1169,o),
(1799,1217,o),
(1846,1267,cs),
(1897,1320,o),
(1995,1328,o),
(2086,1328,cs),
(2182,1328,o),
(2261,1322,o),
(2307,1278,cs),
(2349,1238,o),
(2366,1201,o),
(2366,1080,cs),
(2366,924,o),
(2218,837,o),
(2020,837,cs),
(1895,837,l),
(1895,678,l),
(2020,679,l),
(2221,679,o),
(2397,602,o),
(2397,414,cs),
(2397,263,o),
(2376,224,o),
(2339,185,cs),
(2290,136,o),
(2188,122,o),
(2107,122,cs),
(2007,122,o),
(1900,134,o),
(1847,185,cs),
(1806,224,o),
(1781,263,o),
(1781,362,c),
(1620,358,l),
(1620,214,o),
(1662,138,o),
(1720,86,cs),
(1802,13,o),
(1924,-21,o),
(2105,-21,cs),
(2475,-21,o),
(2567,180,o),
(2567,422,cs),
(2567,617,o),
(2413,729,o),
(2254,757,c),
(2422,810,o),
(2533,928,o),
(2533,1107,cs),
(2533,1219,o),
(2503,1303,o),
(2446,1362,cs),
(2372,1439,o),
(2252,1472,o),
(2082,1472,cs),
(1939,1472,o),
(1812,1441,o),
(1724,1363,cs),
(1642,1290,o),
(1621,1215,o),
(1621,1070,c),
(1783,1070,l)
);
},
{
closed = 1;
nodes = (
(120,370,l),
(119,105,o),
(270,-21,o),
(591,-21,cs),
(923,-21,o),
(1067,118,o),
(1067,393,cs),
(1067,589,o),
(975,694,o),
(778,759,c),
(978,794,o),
(1067,846,o),
(1067,1046,cs),
(1067,1327,o),
(919,1469,o),
(605,1469,cs),
(275,1469,o),
(120,1348,o),
(120,1090,c),
(281,1086,l),
(281,1259,o),
(372,1326,o),
(607,1326,cs),
(827,1326,o),
(897,1256,o),
(897,1054,cs),
(897,864,o),
(761,769,o),
(520,769,c),
(395,769,l),
(395,680,l),
(533,680,ls),
(768,680,o),
(893,573,o),
(893,383,cs),
(893,202,o),
(806,123,o),
(583,123,cs),
(378,123,o),
(298,192,o),
(298,370,c)
);
}
);
};
layerId = "2F8B9CD4-7B7F-4ACC-ADF3-B6E0F7033A19";
shapes = (
{
closed = 1;
nodes = (
(298,1256,o),
(373,1325,o),
(567,1325,cs),
(777,1325,o),
(859,1256,o),
(859,1097,cs),
(859,931,o),
(741,837,o),
(520,837,cs),
(395,837,l),
(395,679,l),
(533,679,ls),
(768,679,o),
(893,573,o),
(893,383,cs),
(893,202,o),
(806,123,o),
(583,123,cs),
(378,123,o),
(298,192,o),
(298,370,c),
(120,370,l),
(119,105,o),
(270,-21,o),
(591,-21,cs),
(923,-21,o),
(1067,118,o),
(1067,393,cs),
(1067,593,o),
(954,722,o),
(754,757,c),
(944,816,o),
(1033,912,o),
(1033,1091,cs),
(1033,1342,o),
(894,1469,o),
(574,1469,cs),
(265,1469,o),
(119,1343,o),
(120,1078,c),
(298,1078,l)
);
}
);
width = 1187;
}
);
note = three;
unicode = 51;
},
{
color = 3;
glyphname = four;
lastChange = "2023-01-25 11:11:24 +0000";
layers = (
{
layerId = "2F8B9CD4-7B7F-4ACC-ADF3-B6E0F7033A19";
shapes = (
{
closed = 1;
nodes = (
(915,-1,l),
(915,334,l),
(1098,334,l),
(1098,481,l),
(915,481,l),
(915,1441,l),
(703,1441,l),
(113,492,l),
(113,334,l),
(741,334,l),
(741,-1,l)
);
},
{
closed = 1;
nodes = (
(741,1250,l),
(741,479,l),
(217,479,l),
(238,431,l)
);
}
);
width = 1168;
}
);
note = four;
unicode = 52;
},
{
color = 3;
glyphname = five;
layers = (
{
background = {
shapes = (
{
closed = 1;
nodes = (
(2113,719,o),
(2181,758,o),
(2328,758,cs),
(2435,758,o),
(2506,749,o),
(2556,715,cs),
(2614,675,o),
(2628,585,o),
(2628,461,cs),
(2628,324,o),
(2613,220,o),
(2546,165,cs),
(2506,132,o),
(2410,114,o),
(2297,114,cs),
(2191,114,o),
(2128,128,o),
(2083,161,cs),
(2032,198,o),
(2022,248,o),
(2022,332,c),
(1850,332,l),
(1850,221,o),
(1871,134,o),
(1948,71,cs),
(2034,1,o),
(2117,-25,o),
(2261,-25,cs),
(2693,-25,o),
(2802,143,o),
(2802,461,cs),
(2802,625,o),
(2763,750,o),
(2684,823,cs),
(2614,888,o),
(2505,908,o),
(2364,908,cs),
(2184,908,o),
(2101,831,o),
(2056,767,c),
(2103,1294,l),
(2745,1294,l),
(2745,1440,l),
(1935,1440,l),
(1880,670,l),
(2023,618,l)
);
}
);
};
guides = (
{
angle = 90;
pos = (1055,256);
}
);
layerId = "2F8B9CD4-7B7F-4ACC-ADF3-B6E0F7033A19";
shapes = (
{
closed = 1;
nodes = (
(406,712,o),
(495,758,o),
(633,758,cs),
(856,758,o),
(948,678,o),
(948,439,cs),
(948,200,o),
(856,121,o),
(633,121,cs),
(428,121,o),
(348,190,o),
(348,368,c),
(170,368,l),
(169,103,o),
(320,-23,o),
(641,-23,cs),
(963,-23,o),
(1122,119,o),
(1122,439,cs),
(1122,760,o),
(973,902,o),
(674,902,cs),
(537,902,o),
(459,874,o),
(381,797,c),
(419,1288,l),
(1065,1288,l),
(1065,1440,l),
(255,1440,l),
(200,670,l),
(358,618,l)
);
}
);
width = 1232;
}
);
note = five;
unicode = 53;
},
{
color = 3;
glyphname = six;
kernLeft = zero;
layers = (
{
background = {
shapes = (
{
closed = 1;
nodes = (
(1596,902,o),
(1441,760,o),
(1441,439,cs),
(1441,119,o),
(1607,-23,o),
(1937,-23,cs),
(2268,-23,o),
(2434,119,o),
(2434,439,cs),
(2434,760,o),
(2279,902,o),
(1937,902,cs)
);
},
{
closed = 1;
nodes = (
(1616,678,o),
(1714,758,o),
(1938,758,cs),
(2162,758,o),
(2260,678,o),
(2260,439,cs),
(2260,200,o),
(2162,121,o),
(1938,121,cs),
(1714,121,o),
(1616,200,o),
(1616,439,cs)
);
},
{
closed = 1;
nodes = (
(946,1326,o),
(1022,1186,o),
(1022,737,cs),
(1022,246,o),
(946,123,o),
(672,123,cs),
(398,123,o),
(318,244,o),
(318,737,cs),
(318,1184,o),
(398,1326,o),
(672,1326,cs)
);
},
{
closed = 1;
nodes = (
(270,1472,o),
(140,1255,o),
(140,737,cs),
(140,196,o),
(270,-23,o),
(672,-23,cs),
(1074,-23,o),
(1200,196,o),
(1200,737,cs),
(1200,1255,o),
(1074,1472,o),
(672,1472,cs)
);
}
);
};
guides = (
{
pos = (477,154);
}
);
layerId = "2F8B9CD4-7B7F-4ACC-ADF3-B6E0F7033A19";
shapes = (
{
closed = 1;
nodes = (
(1113,1346,o),
(952,1472,o),
(645,1472,cs),
(309,1472,o),
(140,1290,o),
(140,930,cs),
(140,438,ls),
(140,119,o),
(306,-23,o),
(636,-23,cs),
(947,-23,o),
(1133,129,o),
(1133,439,cs),
(1133,760,o),
(978,902,o),
(646,902,cs),
(504,902,o),
(421,874,o),
(314,773,c),
(314,948,ls),
(314,1209,o),
(416,1328,o),
(645,1328,cs),
(844,1328,o),
(934,1259,o),
(934,1081,c),
(1112,1081,l)
);
},
{
closed = 1;
nodes = (
(413,121,o),
(315,204,o),
(315,439,cs),
(315,618,l),
(363,712,o),
(452,758,o),
(627,758,cs),
(861,758,o),
(959,678,o),
(959,439,cs),
(959,210,o),
(841,121,o),
(637,121,cs)
);
}
);
width = 1223;
}
);
metricLeft = zero;
note = six;
unicode = 54;
},
{
color = 3;
glyphname = seven;
layers = (
{
layerId = "2F8B9CD4-7B7F-4ACC-ADF3-B6E0F7033A19";
shapes = (
{
closed = 1;
nodes = (
(841,1289,l),
(817,1314,l),
(481,927,o),
(245,443,o),
(245,0,c),
(419,0,l),
(419,431,o),
(660,912,o),
(993,1293,c),
(987,1441,l),
(40,1441,l),
(40,1289,l)
);
}
);
width = 1013;
}
);
note = seven;
unicode = 55;
},
{
color = 3;
glyphname = eight;
kernRight = three;
lastChange = "2023-01-25 11:11:24 +0000";
layers = (
{
background = {
shapes = (
{
closed = 1;
nodes = (
(273,826,o),
(120,696,o),
(120,401,cs),
(120,107,o),
(283,-23,o),
(608,-23,cs),
(934,-23,o),
(1097,107,o),
(1097,401,cs),
(1097,696,o),
(944,826,o),
(608,826,cs)
);
},
{
closed = 1;
nodes = (
(295,612,o),
(391,682,o),
(609,682,cs),
(827,682,o),
(922,612,o),
(922,401,cs),
(922,191,o),
(827,121,o),
(609,121,cs),
(391,121,o),
(295,191,o),
(295,401,cs)
);
},
{
closed = 1;
nodes = (
(296,1472,o),
(153,1351,o),
(153,1076,cs),
(153,803,o),
(305,682,o),
(608,682,cs),
(912,682,o),
(1064,803,o),
(1064,1076,cs),
(1064,1351,o),
(921,1472,o),
(608,1472,cs)
);
},
{
closed = 1;
nodes = (
(328,1265,o),
(414,1328,o),
(609,1328,cs),
(804,1328,o),
(889,1265,o),
(889,1077,cs),
(889,888,o),
(804,826,o),
(609,826,cs),
(414,826,o),
(328,888,o),
(328,1077,cs)
);
},
{
closed = 1;
nodes = (
(2261,801,o),
(2362,914,o),
(2362,1089,cs),
(2362,1353,o),
(2217,1472,o),
(1908,1472,cs),
(1599,1472,o),
(1453,1353,o),
(1453,1089,cs),
(1453,914,o),
(1554,801,o),
(1748,747,c),
(1747,762,l),
(1531,733,o),
(1420,610,o),
(1420,385,cs),
(1420,106,o),
(1576,-21,o),
(1907,-21,cs),
(2240,-21,o),
(2397,106,o),
(2397,385,cs),
(2397,610,o),
(2286,733,o),
(2068,762,c),
(2067,747,l)
);
},
{
closed = 1;
nodes = (
(1619,1254,o),
(1711,1327,o),
(1908,1327,cs),
(2104,1327,o),
(2196,1254,o),
(2196,1089,cs),
(2196,939,o),
(2093,834,o),
(1908,834,cs),
(1722,834,o),
(1619,939,o),
(1619,1089,cs)
);
},
{
closed = 1;
nodes = (
(2125,678,o),
(2227,576,o),
(2227,385,cs),
(2227,205,o),
(2125,125,o),
(1907,125,cs),
(1690,125,o),
(1588,205,o),
(1588,385,cs),
(1588,585,o),
(1690,686,o),
(1908,682,cs)
);
}
);
};
layerId = "2F8B9CD4-7B7F-4ACC-ADF3-B6E0F7033A19";
shapes = (
{
closed = 1;
nodes = (
(923,-23,o),
(1097,107,o),
(1097,391,cs),
(1097,590,o),
(1025,711,o),
(842,773,c),
(842,745,l),
(1001,806,o),
(1064,915,o),
(1064,1086,cs),
(1064,1351,o),
(890,1472,o),
(608,1472,cs),
(326,1472,o),
(153,1351,o),
(153,1086,cs),
(153,915,o),
(226,806,o),
(375,745,c),
(375,773,l),
(202,711,o),
(120,590,o),
(120,391,cs),
(120,107,o),
(293,-23,o),
(608,-23,cs)
);
},
{
closed = 1;
nodes = (
(390,121,o),
(294,191,o),
(294,401,cs),
(294,612,o),
(390,684,o),
(609,684,cs),
(828,684,o),
(923,612,o),
(923,401,cs),
(923,191,o),
(828,121,o),
(609,121,cs)
);
},
{
closed = 1;
nodes = (
(413,824,o),
(327,888,o),
(327,1077,cs),
(327,1265,o),
(413,1328,o),
(609,1328,cs),
(805,1328,o),
(890,1265,o),
(890,1077,cs),
(890,888,o),
(805,824,o),
(609,824,cs)
);
}
);
width = 1217;
}
);
metricLeft = "=|three";
metricRight = three;
note = eight;
unicode = 56;
},
{
color = 3;
glyphname = nine;
kernLeft = zero;
kernRight = zero;
layers = (
{
background = {
shapes = (
{
closed = 1;
nodes = (
(153,55,o),
(337,-32,o),
(611,-32,cs),
(894,-32,o),
(1092,64,o),
(1092,385,cs),
(1092,473,o),
(1092,561,o),
(1092,906,cs),
(1092,1365,o),
(973,1474,o),
(599,1474,cs),
(220,1474,o),
(117,1357,o),
(117,1000,cs),
(117,847,o),
(131,729,o),
(213,644,cs),
(281,573,o),
(379,546,o),
(562,546,cs),
(751,546,o),
(853,578,o),
(930,689,c),
(926,614,o),
(931,503,o),
(926,398,cs),
(916,157,o),
(807,106,o),
(615,106,cs),
(403,106,o),
(310,157,o),
(310,354,c),
(153,354,l)
);
},
{
closed = 1;
nodes = (
(721,1336,o),
(816,1313,o),
(862,1269,cs),
(911,1223,o),
(933,1148,o),
(928,857,c),
(877,719,o),
(762,689,o),
(586,689,cs),
(497,689,o),
(410,696,o),
(367,729,cs),
(306,776,o),
(285,870,o),
(285,1001,cs),
(285,1137,o),
(292,1223,o),
(337,1269,cs),
(384,1317,o),
(483,1336,o),
(601,1336,cs)
);
}
);
};
layerId = "2F8B9CD4-7B7F-4ACC-ADF3-B6E0F7033A19";
shapes = (
{
closed = 1;
nodes = (
(110,103,o),
(271,-23,o),
(578,-23,cs),
(914,-23,o),
(1083,159,o),
(1083,519,cs),
(1083,1011,ls),
(1083,1330,o),
(917,1472,o),
(587,1472,cs),
(276,1472,o),
(90,1320,o),
(90,1010,cs),
(90,689,o),
(245,547,o),
(577,547,cs),
(719,547,o),
(802,575,o),
(909,676,c),
(909,501,ls),
(909,240,o),
(807,121,o),
(578,121,cs),
(379,121,o),
(289,190,o),
(289,368,c),
(111,368,l)
);
},
{
closed = 1;
nodes = (
(810,1328,o),
(908,1245,o),
(908,1010,cs),
(908,831,l),
(860,737,o),
(771,691,o),
(596,691,cs),
(362,691,o),
(264,771,o),
(264,1010,cs),
(264,1239,o),
(382,1328,o),
(586,1328,cs)
);
}
);
width = 1223;
}
);
metricLeft = "=|six";
metricRight = zero;
note = nine;
unicode = 57;
},
{
color = 3;
glyphname = fraction;
layers = (
{
background = {
shapes = (
{
closed = 1;
nodes = (
(-13,-119,l),
(794,1440,l),
(681,1489,l),
(-125,-67,l)
);
}
);
};
layerId = "2F8B9CD4-7B7F-4ACC-ADF3-B6E0F7033A19";
shapes = (
{
closed = 1;
nodes = (
(48,0,l),
(795,1441,l),
(656,1441,l),
(-90,0,l)
);
}
);
width = 705;
}
);
note = fraction;
unicode = 8260;
},
{
color = 3;
glyphname = onesuperior;
layers = (
{
background = {
shapes = (
{
closed = 1;
nodes = (
(288,1201,l),
(288,296,l),
(403,296,l),
(403,1316,l),
(294,1316,l),
(133,1238,l),
(133,1124,l)
);
}
);
};
layerId = "2F8B9CD4-7B7F-4ACC-ADF3-B6E0F7033A19";
shapes = (
{
closed = 1;
nodes = (
(80,1238,l),
(230,1318,l),
(216,1327,l),
(216,634,l),
(343,634,l),
(343,1441,l),
(226,1441,l),
(80,1368,l)
);
}
);
width = 523;
}
);
note = onesuperior;
unicode = 185;
},
{
color = 3;
glyphname = twosuperior;
layers = (
{
background = {
shapes = (
{
closed = 1;
nodes = (
(217,1252,l),
(217,1327,o),
(265,1369,o),
(357,1369,cs),
(456,1369,o),
(499,1331,o),
(498,1251,cs),
(497,1174,o),
(449,1113,o),
(309,1007,cs),
(127,869,o),
(108,775,o),
(108,672,cs),
(108,661,o),
(110,650,o),
(111,643,c),
(620,643,l),
(620,761,l),
(231,761,l),
(241,751,l),
(241,798,o),
(291,845,o),
(428,949,cs),
(556,1046,o),
(620,1125,o),
(620,1248,cs),
(620,1406,o),
(538,1479,o),
(361,1479,cs),
(183,1479,o),
(93,1403,o),
(93,1252,c)
);
}
);
};
layerId = "2F8B9CD4-7B7F-4ACC-ADF3-B6E0F7033A19";
shapes = (
{
closed = 1;
nodes = (
(226,1332,o),
(255,1364,o),
(362,1364,cs),
(472,1364,o),
(507,1335,o),
(507,1253,cs),
(507,1175,o),
(474,1135,o),
(322,1021,cs),
(150,896,o),
(105,823,o),
(105,668,cs),
(105,655,o),
(105,646,o),
(105,634,c),
(624,634,l),
(624,748,l),
(240,748,l),
(247,810,o),
(297,863,o),
(415,947,cs),
(588,1072,o),
(634,1133,o),
(634,1250,cs),
(634,1407,o),
(549,1474,o),
(365,1474,cs),
(182,1474,o),
(95,1394,o),
(100,1229,c),
(229,1229,l)
);
}
);
width = 740;
}
);
note = twosuperior;
unicode = 178;
},
{
color = 3;
glyphname = threesuperior;
lastChange = "2023-01-25 10:51:07 +0000";
layers = (
{
background = {
shapes = (
{
closed = 1;
nodes = (
(227,1248,l),
(227,1330,o),
(277,1372,o),
(381,1372,cs),
(470,1372,o),
(516,1331,o),
(516,1266,cs),
(516,1176,o),
(459,1133,o),
(344,1133,cs),
(275,1133,l),
(275,1016,l),
(344,1016,ls),
(474,1016,o),
(533,973,o),
(533,874,cs),
(533,793,o),
(483,742,o),
(389,742,cs),
(279,742,o),
(226,781,o),
(226,855,c),
(112,853,l),
(112,704,o),
(202,632,o),
(388,632,cs),
(563,632,o),
(658,718,o),
(658,878,cs),
(658,990,o),
(593,1063,o),
(476,1084,c),
(478,1065,l),
(581,1098,o),
(639,1171,o),
(639,1269,cs),
(639,1412,o),
(553,1482,o),
(378,1482,cs),
(198,1482,o),
(112,1406,o),
(112,1248,c)
);
}
);
};
layerId = "2F8B9CD4-7B7F-4ACC-ADF3-B6E0F7033A19";
shapes = (
{
closed = 1;
nodes = (
(225,1332,o),
(255,1365,o),
(361,1365,cs),
(472,1365,o),
(507,1335,o),
(507,1254,cs),
(507,1169,o),
(452,1125,o),
(335,1125,cs),
(251,1125,l),
(251,1008,l),
(342,1008,ls),
(467,1008,o),
(526,958,o),
(526,860,cs),
(526,767,o),
(487,732,o),
(370,732,cs),
(257,732,o),
(225,765,o),
(228,868,c),
(100,868,l),
(93,703,o),
(184,622,o),
(374,622,cs),
(565,622,o),
(652,706,o),
(652,866,cs),
(652,984,o),
(584,1061,o),
(468,1081,c),
(468,1052,l),
(579,1086,o),
(633,1145,o),
(633,1251,cs),
(633,1398,o),
(549,1474,o),
(365,1474,cs),
(182,1474,o),
(93,1394,o),
(100,1228,c),
(228,1228,l)
);
}
);
width = 752;
}
);
note = threesuperior;
unicode = 179;
},
{
color = 3;
glyphname = foursuperior;
lastChange = "2023-01-25 11:11:24 +0000";
layers = (
{
background = {
shapes = (
{
closed = 1;
nodes = (
(188,635,l),
(526,1177,l),
(526,635,l)
);
},
{
closed = 1;
nodes = (
(84,540,l),
(526,540,l),
(526,304,l),
(641,304,l),
(641,540,l),
(770,540,l),
(770,637,l),
(641,637,l),
(641,1311,l),
(498,1311,l),
(84,651,l)
);
}
);
};
layerId = "2F8B9CD4-7B7F-4ACC-ADF3-B6E0F7033A19";
shapes = (
{
closed = 1;
nodes = (
(569,634,l),
(569,838,l),
(559,829,l),
(661,829,l),
(661,939,l),
(559,939,l),
(568,919,l),
(568,1441,l),
(433,1441,l),
(65,931,l),
(65,829,l),
(462,829,l),
(442,838,l),
(442,634,l)
);
},
{
closed = 1;
nodes = (
(481,1325,l),
(442,1330,l),
(442,918,l),
(462,939,l),
(131,939,l),
(161,886,l)
);
}
);
width = 731;
}
);
note = foursuperior;
unicode = 8308;
},
{
glyphname = .notdef;
lastChange = "2023-01-25 11:14:28 +0000";
layers = (
{
layerId = "2F8B9CD4-7B7F-4ACC-ADF3-B6E0F7033A19";
shapes = (
{
closed = 1;
nodes = (
(1004,-400,l),
(1004,1651,l),
(150,1651,l),
(150,-400,l)
);
},
{
closed = 1;
nodes = (
(304,1529,l),
(850,1529,l),
(850,-278,l),
(304,-278,l)
);
}
);
width = 1154;
}
);
note = ".notdef";
},
{
color = 3;
glyphname = "leftanglebracket-math";
layers = (
{
background = {
shapes = (
{
closed = 1;
nodes = (
(442,-123,l),
(527,-123,l),
(263,635,l),
(527,1393,l),
(442,1393,l),
(182,635,l)
);
}
);
};
layerId = "2F8B9CD4-7B7F-4ACC-ADF3-B6E0F7033A19";
shapes = (
{
closed = 1;
nodes = (
(421,0,l),
(596,0,l),
(332,721,l),
(596,1441,l),
(422,1441,l),
(162,721,l)
);
}
);
width = 680;
}
);
unicode = 10216;
},
{
color = 3;
glyphname = "rightanglebracket-math";
layers = (
{
layerId = "2F8B9CD4-7B7F-4ACC-ADF3-B6E0F7033A19";
shapes = (
{
closed = 1;
nodes = (
(258,1441,l),
(84,1441,l),
(348,721,l),
(84,0,l),
(259,0,l),
(518,721,l)
);
}
);
width = 680;
}
);
metricLeft = "=|leftanglebracket-math";
metricWidth = "leftanglebracket-math";
unicode = 10217;
},
{
color = 3;
glyphname = period;
kernLeft = period;
kernRight = period;
lastChange = "2023-01-25 11:11:56 +0000";
layers = (
{
background = {
shapes = (
{
closed = 1;
nodes = (
(650,0,l),
(875,0,l),
(875,212,l),
(650,212,l)
);
},
{
closed = 1;
nodes = (
(386,181,o),
(353,214,o),
(265,214,cs),
(178,214,o),
(140,181,o),
(140,89,cs),
(140,0,o),
(178,-22,o),
(247,-22,c),
(386,89,l)
);
}
);
};
layerId = "2F8B9CD4-7B7F-4ACC-ADF3-B6E0F7033A19";
shapes = (
{
closed = 1;
nodes = (
(349,-22,o),
(386,8,o),
(386,96,cs),
(386,184,o),
(349,214,o),
(263,214,cs),
(177,214,o),
(140,184,o),
(140,96,cs),
(140,8,o),
(177,-22,o),
(263,-22,cs)
);
}
);
width = 526;
}
);
metricRight = "=|";
note = period;
unicode = 46;
},
{
color = 3;
glyphname = comma;
kernLeft = period;
kernRight = period;
layers = (
{
background = {
shapes = (
{
closed = 1;
nodes = (
(387,181,o),
(354,214,o),
(266,214,cs),
(179,214,o),
(141,181,o),
(141,89,cs),
(141,0,o),
(179,-22,o),
(248,-22,c),
(241,-99,o),
(216,-148,o),
(161,-228,c),
(243,-283,l),
(342,-190,o),
(387,-73,o),
(387,89,cs)
);
},
{
closed = 1;
nodes = (
(376,212,l),
(151,212,l),
(151,0,l),
(265,0,l),
(265,-24,ls),
(265,-104,o),
(228,-157,o),
(141,-157,c),
(141,-261,l),
(294,-257,o),
(376,-154,o),
(376,-24,cs)
);
}
);
};
layerId = "2F8B9CD4-7B7F-4ACC-ADF3-B6E0F7033A19";
shapes = (
{
closed = 1;
nodes = (
(386,181,o),
(353,214,o),
(265,214,cs),
(178,214,o),
(140,181,o),
(140,89,cs),
(140,0,o),
(178,-22,o),
(247,-22,c),
(240,-99,o),
(215,-148,o),
(160,-228,c),
(242,-283,l),
(341,-190,o),
(386,-73,o),
(386,89,cs)
);
}
);
width = 526;
}
);
metricRight = period;
metricWidth = period;
note = comma;
unicode = 44;
},
{
color = 3;
glyphname = colon;
kernLeft = period;
kernRight = period;
lastChange = "2023-01-25 11:11:56 +0000";
layers = (
{
background = {
shapes = (
{
closed = 1;
nodes = (
(150,0,l),
(375,0,l),
(375,212,l),
(150,212,l)
);
},
{
closed = 1;
nodes = (
(150,737,l),
(375,737,l),
(375,949,l),
(150,949,l)
);
}
);
};
layerId = "2F8B9CD4-7B7F-4ACC-ADF3-B6E0F7033A19";
shapes = (
{
closed = 1;
nodes = (
(349,718,o),
(386,748,o),
(386,836,cs),
(386,924,o),
(349,954,o),
(263,954,cs),
(177,954,o),
(140,924,o),
(140,836,cs),
(140,748,o),
(177,718,o),
(263,718,cs)
);
},
{
closed = 1;
nodes = (
(349,-22,o),
(386,8,o),
(386,96,cs),
(386,184,o),
(349,214,o),
(263,214,cs),
(177,214,o),
(140,184,o),
(140,96,cs),
(140,8,o),
(177,-22,o),
(263,-22,cs)
);
}
);
width = 526;
}
);
metricLeft = period;
metricRight = period;
note = colon;
unicode = 58;
},
{
color = 3;
glyphname = semicolon;
kernLeft = period;
kernRight = period;
layers = (
{
background = {
shapes = (
{
closed = 1;
nodes = (
(376,212,l),
(151,212,l),
(151,0,l),
(265,0,l),
(265,-24,ls),
(265,-104,o),
(228,-157,o),
(141,-157,c),
(141,-261,l),
(294,-257,o),
(376,-154,o),
(376,-24,cs)
);
}
);
};
guides = (
{
angle = 90;
pos = (352,584);
},
{
angle = 90;
pos = (141,577);
}
);
layerId = "2F8B9CD4-7B7F-4ACC-ADF3-B6E0F7033A19";
shapes = (
{
closed = 1;
nodes = (
(349,718,o),
(386,748,o),
(386,836,cs),
(386,924,o),
(349,954,o),
(263,954,cs),
(177,954,o),
(140,924,o),
(140,836,cs),
(140,748,o),
(177,718,o),
(263,718,cs)
);
},
{
closed = 1;
nodes = (
(386,181,o),
(353,214,o),
(265,214,cs),
(178,214,o),
(140,181,o),
(140,89,cs),
(140,0,o),
(178,-22,o),
(247,-22,c),
(240,-99,o),
(215,-148,o),
(160,-228,c),
(242,-283,l),
(341,-190,o),
(386,-73,o),
(386,89,cs)
);
}
);
width = 526;
}
);
metricRight = period;
metricWidth = period;
note = semicolon;
unicode = 59;
},
{
color = 3;
glyphname = ellipsis;
kernLeft = period;
kernRight = period;
lastChange = "2023-01-25 11:11:56 +0000";
layers = (
{
background = {
shapes = (
{
closed = 1;
nodes = (
(643,0,l),
(868,0,l),
(868,212,l),
(643,212,l)
);
},
{
closed = 1;
nodes = (
(1136,0,l),
(1361,0,l),
(1361,212,l),
(1136,212,l)
);
},
{
closed = 1;
nodes = (
(150,0,l),
(375,0,l),
(375,212,l),
(150,212,l)
);
}
);
};
layerId = "2F8B9CD4-7B7F-4ACC-ADF3-B6E0F7033A19";
shapes = (
{
closed = 1;
nodes = (
(1329,-22,o),
(1366,8,o),
(1366,96,cs),
(1366,184,o),
(1329,214,o),
(1243,214,cs),
(1157,214,o),
(1120,184,o),
(1120,96,cs),
(1120,8,o),
(1157,-22,o),
(1243,-22,cs)
);
},
{
closed = 1;
nodes = (
(349,-22,o),
(386,8,o),
(386,96,cs),
(386,184,o),
(349,214,o),
(263,214,cs),
(177,214,o),
(140,184,o),
(140,96,cs),
(140,8,o),
(177,-22,o),
(263,-22,cs)
);
},
{
closed = 1;
nodes = (
(839,-22,o),
(876,8,o),
(876,96,cs),
(876,184,o),
(839,214,o),
(753,214,cs),
(667,214,o),
(630,184,o),
(630,96,cs),
(630,8,o),
(667,-22,o),
(753,-22,cs)
);
}
);
width = 1506;
}
);
metricLeft = period;
metricRight = period;
note = ellipsis;
unicode = 8230;
},
{
color = 3;
glyphname = exclam;
lastChange = "2023-01-25 11:11:56 +0000";
layers = (
{
background = {
shapes = (
{
closed = 1;
nodes = (
(150,0,l),
(375,0,l),
(375,212,l),
(150,212,l)
);
}
);
};
layerId = "2F8B9CD4-7B7F-4ACC-ADF3-B6E0F7033A19";
shapes = (
{
closed = 1;
nodes = (
(325,355,l),
(352,1186,l),
(352,1441,l),
(174,1441,l),
(174,1186,l),
(202,355,l)
);
},
{
closed = 1;
nodes = (
(349,-22,o),
(386,8,o),
(386,96,cs),
(386,184,o),
(349,214,o),
(263,214,cs),
(177,214,o),
(140,184,o),
(140,96,cs),
(140,8,o),
(177,-22,o),
(263,-22,cs)
);
}
);
width = 526;
}
);
metricRight = "=|";
note = exclam;
unicode = 33;
},
{
color = 3;
glyphname = exclamdown;
lastChange = "2023-01-25 11:11:56 +0000";
layers = (
{
layerId = "2F8B9CD4-7B7F-4ACC-ADF3-B6E0F7033A19";
shapes = (
{
closed = 1;
nodes = (
(352,-389,l),
(352,-176,l),
(325,655,l),
(202,655,l),
(174,-176,l),
(174,-389,l)
);
},
{
closed = 1;
nodes = (
(349,796,o),
(386,826,o),
(386,914,cs),
(386,1002,o),
(349,1032,o),
(263,1032,cs),
(177,1032,o),
(140,1002,o),
(140,914,cs),
(140,826,o),
(177,796,o),
(263,796,cs)
);
}
);
width = 526;
}
);
metricLeft = exclam;
metricRight = exclam;
note = exclamdown;
unicode = 161;
},
{
color = 3;
glyphname = question;
lastChange = "2023-01-25 11:11:56 +0000";
layers = (
{
background = {
shapes = (
{
closed = 1;
nodes = (
(356,0,l),
(581,0,l),
(581,212,l),
(356,212,l)
);
},
{
closed = 1;
nodes = (
(924,908,o),
(966,983,o),
(967,1127,cs),
(968,1358,o),
(829,1469,o),
(509,1469,cs),
(200,1469,o),
(55,1344,o),
(55,1078,c),
(233,1078,l),
(233,1256,o),
(306,1325,o),
(502,1325,cs),
(712,1325,o),
(794,1256,o),
(793,1131,cs),
(792,1041,o),
(744,972,o),
(580,855,cs),
(422,742,o),
(391,636,o),
(391,471,cs),
(391,350,l),
(537,350,l),
(537,448,ls),
(537,581,o),
(586,663,o),
(706,750,cs)
);
}
);
};
layerId = "2F8B9CD4-7B7F-4ACC-ADF3-B6E0F7033A19";
shapes = (
{
closed = 1;
nodes = (
(537,350,l),
(537,448,ls),
(537,581,o),
(586,663,o),
(706,750,cs),
(924,908,o),
(966,983,o),
(967,1127,cs),
(968,1358,o),
(829,1469,o),
(509,1469,cs),
(200,1469,o),
(55,1344,o),
(55,1078,c),
(233,1078,l),
(233,1256,o),
(306,1325,o),
(502,1325,cs),
(712,1325,o),
(794,1256,o),
(793,1131,cs),
(792,1041,o),
(744,972,o),
(580,855,cs),
(422,742,o),
(391,636,o),
(391,471,cs),
(391,350,l)
);
},
{
closed = 1;
nodes = (
(553,-22,o),
(590,8,o),
(590,96,cs),
(590,184,o),
(553,214,o),
(467,214,cs),
(381,214,o),
(344,184,o),
(344,96,cs),
(344,8,o),
(381,-22,o),
(467,-22,cs)
);
}
);
width = 1002;
}
);
note = question;
unicode = 63;
},
{
color = 3;
glyphname = questiondown;
lastChange = "2023-01-25 11:11:56 +0000";
layers = (
{
background = {
shapes = (
{
closed = 1;
nodes = (
(646,1011,l),
(421,1011,l),
(421,799,l),
(646,799,l)
);
}
);
};
layerId = "2F8B9CD4-7B7F-4ACC-ADF3-B6E0F7033A19";
shapes = (
{
closed = 1;
nodes = (
(802,-408,o),
(947,-283,o),
(947,-17,c),
(769,-17,l),
(769,-195,o),
(696,-264,o),
(500,-264,cs),
(290,-264,o),
(208,-195,o),
(209,-70,cs),
(210,20,o),
(258,89,o),
(422,206,cs),
(580,319,o),
(611,425,o),
(611,570,cs),
(611,661,l),
(465,661,l),
(465,593,ls),
(465,480,o),
(416,398,o),
(296,311,cs),
(78,153,o),
(36,78,o),
(35,-66,cs),
(34,-297,o),
(173,-408,o),
(493,-408,cs)
);
},
{
closed = 1;
nodes = (
(620,796,o),
(657,826,o),
(657,914,cs),
(657,1002,o),
(620,1032,o),
(534,1032,cs),
(448,1032,o),
(411,1002,o),
(411,914,cs),
(411,826,o),
(448,796,o),
(534,796,cs)
);
}
);
width = 1002;
}
);
metricLeft = "=|question";
metricWidth = question;
note = questiondown;
unicode = 191;
},
{
color = 3;
glyphname = periodcentered;
kernLeft = periodcentered;
kernRight = periodcentered;
lastChange = "2023-01-25 11:11:56 +0000";
layers = (
{
anchors = (
{
name = _center;
pos = (263,623);
}
);
background = {
shapes = (
{
closed = 1;
nodes = (
(150,517,l),
(375,517,l),
(375,729,l),
(150,729,l)
);
}
);
};
layerId = "2F8B9CD4-7B7F-4ACC-ADF3-B6E0F7033A19";
shapes = (
{
closed = 1;
nodes = (
(349,505,o),
(386,535,o),
(386,623,cs),
(386,711,o),
(349,741,o),
(263,741,cs),
(177,741,o),
(140,711,o),
(140,623,cs),
(140,535,o),
(177,505,o),
(263,505,cs)
);
}
);
width = 526;
}
);
metricLeft = period;
metricRight = period;
note = periodcentered;
unicode = 183;
},
{
color = 3;
glyphname = bullet;
kernLeft = periodcentered;
kernRight = periodcentered;
layers = (
{
layerId = "2F8B9CD4-7B7F-4ACC-ADF3-B6E0F7033A19";
shapes = (
{
closed = 1;
nodes = (
(130,402,o),
(235,302,o),
(459,302,cs),
(677,302,o),
(779,400,o),
(779,608,cs),
(779,822,o),
(674,922,o),
(450,922,cs),
(232,922,o),
(130,824,o),
(130,616,cs)
);
}
);
width = 909;
}
);
metricRight = "=|";
note = bullet;
unicode = 8226;
},
{
glyphname = asterisk;
kernLeft = asterisk;
kernRight = asterisk;
layers = (
{
layerId = "2F8B9CD4-7B7F-4ACC-ADF3-B6E0F7033A19";
shapes = (
{
closed = 1;
nodes = (
(574,1076,l),
(861,1203,l),
(796,1323,l),
(538,1151,l),
(560,1447,l),
(427,1447,l),
(448,1151,l),
(185,1323,l),
(120,1204,l),
(417,1076,l),
(121,937,l),
(185,825,l),
(448,997,l),
(427,701,l),
(560,701,l),
(538,997,l),
(796,825,l),
(861,945,l)
);
}
);
width = 981;
}
);
note = asterisk;
unicode = 42;
},
{
color = 3;
glyphname = numbersign;
layers = (
{
background = {
shapes = (
{
closed = 1;
nodes = (
(208,0,l),
(347,0,l),
(645,1441,l),
(507,1441,l)
);
},
{
closed = 1;
nodes = (
(650,0,l),
(788,0,l),
(1087,1441,l),
(949,1441,l)
);
},
{
closed = 1;
nodes = (
(165,897,l),
(1215,897,l),
(1215,1026,l),
(165,1026,l)
);
},
{
closed = 1;
nodes = (
(100,428,l),
(1149,428,l),
(1149,557,l),
(100,557,l)
);
}
);
};
layerId = "2F8B9CD4-7B7F-4ACC-ADF3-B6E0F7033A19";
shapes = (
{
closed = 1;
nodes = (
(421,1026,l),
(165,1026,l),
(165,897,l),
(394,897,l),
(324,557,l),
(100,557,l),
(100,428,l),
(297,428,l),
(208,0,l),
(347,0,l),
(436,428,l),
(739,428,l),
(650,0,l),
(788,0,l),
(877,428,l),
(1149,428,l),
(1149,557,l),
(904,557,l),
(974,897,l),
(1215,897,l),
(1215,1026,l),
(1001,1026,l),
(1087,1441,l),
(949,1441,l),
(863,1026,l),
(559,1026,l),
(645,1441,l),
(507,1441,l)
);
},
{
closed = 1;
nodes = (
(533,897,l),
(836,897,l),
(766,557,l),
(462,557,l)
);
}
);
width = 1315;
}
);
metricRight = "=|";
note = numbersign;
unicode = 35;
},
{
color = 3;
glyphname = slash;
layers = (
{
layerId = "2F8B9CD4-7B7F-4ACC-ADF3-B6E0F7033A19";
shapes = (
{
closed = 1;
nodes = (
(184,-200,l),
(780,1641,l),
(616,1641,l),
(20,-200,l)
);
}
);
width = 800;
}
);
metricRight = "=|";
note = slash;
unicode = 47;
},
{
color = 3;
glyphname = backslash;
layers = (
{
background = {
shapes = (
{
closed = 1;
nodes = (
(577,-92,l),
(206,1509,l),
(100,1479,l),
(468,-121,l)
);
}
);
};
layerId = "2F8B9CD4-7B7F-4ACC-ADF3-B6E0F7033A19";
shapes = (
{
closed = 1;
nodes = (
(184,1641,l),
(20,1641,l),
(616,-200,l),
(780,-200,l)
);
}
);
width = 800;
}
);
metricLeft = "=|slash";
metricRight = "=|";
note = backslash;
unicode = 92;
},
{
color = 3;
glyphname = periodcentered.loclCAT;
kernLeft = periodcentered;
kernRight = periodcentered;
lastChange = "2023-01-25 11:11:56 +0000";
layers = (
{
anchors = (
{
name = _center;
pos = (40,623);
}
);
background = {
shapes = (
{
closed = 1;
nodes = (
(-53,537,l),
(132,537,l),
(132,709,l),
(-53,709,l)
);
}
);
};
layerId = "2F8B9CD4-7B7F-4ACC-ADF3-B6E0F7033A19";
shapes = (
{
closed = 1;
nodes = (
(109,528,o),
(139,552,o),
(139,623,cs),
(139,694,o),
(109,718,o),
(40,718,cs),
(-29,718,o),
(-59,694,o),
(-59,623,cs),
(-59,552,o),
(-29,528,o),
(40,528,cs)
);
}
);
width = 80;
}
);
},
{
color = 3;
glyphname = periodcentered.loclCAT.case;
kernLeft = periodcentered;
kernRight = periodcentered;
lastChange = "2023-01-25 11:11:56 +0000";
layers = (
{
anchors = (
{
name = _center;
pos = (-247,800);
}
);
background = {
shapes = (
{
closed = 1;
nodes = (
(-360,694,l),
(-135,694,l),
(-135,906,l),
(-360,906,l)
);
}
);
};
layerId = "2F8B9CD4-7B7F-4ACC-ADF3-B6E0F7033A19";
shapes = (
{
closed = 1;
nodes = (
(-162,684,o),
(-125,714,o),
(-125,802,cs),
(-125,890,o),
(-162,920,o),
(-248,920,cs),
(-334,920,o),
(-371,890,o),
(-371,802,cs),
(-371,714,o),
(-334,684,o),
(-248,684,cs)
);
}
);
width = 0;
}
);
},
{
color = 3;
glyphname = hyphen;
kernLeft = hyphen;
kernRight = hyphen;
layers = (
{
layerId = "2F8B9CD4-7B7F-4ACC-ADF3-B6E0F7033A19";
shapes = (
{
closed = 1;
nodes = (
(699,578,l),
(699,732,l),
(140,732,l),
(140,578,l)
);
}
);
width = 839;
}
);
metricRight = "=|";
note = hyphen;
unicode = 45;
},
{
color = 3;
glyphname = endash;
kernLeft = hyphen;
kernRight = hyphen;
layers = (
{
layerId = "2F8B9CD4-7B7F-4ACC-ADF3-B6E0F7033A19";
shapes = (
{
closed = 1;
nodes = (
(869,732,l),
(140,732,l),
(140,578,l),
(869,578,l)
);
}
);
width = 1009;
}
);
metricLeft = hyphen;
metricRight = hyphen;
note = endash;
unicode = 8211;
},
{
color = 3;
glyphname = emdash;
kernLeft = hyphen;
kernRight = hyphen;
layers = (
{
layerId = "2F8B9CD4-7B7F-4ACC-ADF3-B6E0F7033A19";
shapes = (
{
closed = 1;
nodes = (
(1054,732,l),
(140,732,l),
(140,578,l),
(1054,578,l)
);
}
);
width = 1194;
}
);
metricLeft = hyphen;
metricRight = hyphen;
note = emdash;
unicode = 8212;
},
{
color = 3;
glyphname = underscore;
layers = (
{
layerId = "2F8B9CD4-7B7F-4ACC-ADF3-B6E0F7033A19";
shapes = (
{
closed = 1;
nodes = (
(978,0,l),
(140,0,l),
(140,-154,l),
(978,-154,l)
);
}
);
width = 1118;
}
);
metricLeft = period;
metricRight = period;
note = underscore;
unicode = 95;
},
{
color = 3;
glyphname = parenleft;
kernLeft = bracketleft;
kernRight = bracketleft;
layers = (
{
background = {
shapes = (
{
closed = 1;
nodes = (
(220,210,o),
(233,-17,o),
(315,-130,cs),
(384,-226,o),
(451,-254,o),
(633,-264,c),
(633,-141,l),
(515,-141,o),
(456,-112,o),
(423,-23,cs),
(391,63,o),
(384,292,o),
(384,638,cs),
(384,970,o),
(391,1193,o),
(423,1279,cs),
(456,1367,o),
(516,1397,o),
(633,1397,c),
(633,1520,l),
(453,1510,o),
(384,1481,o),
(315,1386,cs),
(229,1268,o),
(220,1066,o),
(220,638,cs)
);
}
);
};
layerId = "2F8B9CD4-7B7F-4ACC-ADF3-B6E0F7033A19";
shapes = (
{
closed = 1;
nodes = (
(220,85,o),
(233,-142,o),
(315,-255,cs),
(384,-351,o),
(451,-379,o),
(633,-389,c),
(633,-266,l),
(515,-266,o),
(456,-237,o),
(423,-148,cs),
(391,-62,o),
(384,167,o),
(384,539,cs),
(384,891,o),
(391,1114,o),
(423,1200,cs),
(456,1288,o),
(516,1318,o),
(633,1318,c),
(633,1441,l),
(453,1431,o),
(384,1402,o),
(315,1307,cs),
(229,1189,o),
(220,987,o),
(220,539,cs)
);
}
);
width = 748;
}
);
metricLeft = H;
note = parenleft;
unicode = 40;
},
{
color = 3;
glyphname = parenright;
kernLeft = bracketright;
kernRight = bracketright;
layers = (
{
layerId = "2F8B9CD4-7B7F-4ACC-ADF3-B6E0F7033A19";
shapes = (
{
closed = 1;
nodes = (
(528,987,o),
(519,1189,o),
(433,1307,cs),
(364,1402,o),
(295,1431,o),
(115,1441,c),
(115,1318,l),
(232,1318,o),
(292,1288,o),
(325,1200,cs),
(357,1114,o),
(364,891,o),
(364,539,cs),
(364,167,o),
(357,-62,o),
(325,-148,cs),
(292,-237,o),
(233,-266,o),
(115,-266,c),
(115,-389,l),
(297,-379,o),
(364,-351,o),
(433,-255,cs),
(515,-142,o),
(528,85,o),
(528,539,cs)
);
}
);
width = 748;
}
);
metricLeft = "=|parenleft";
metricWidth = parenleft;
note = parenright;
unicode = 41;
},
{
color = 3;
glyphname = braceleft;
kernLeft = bracketleft;
kernRight = bracketleft;
layers = (
{
layerId = "2F8B9CD4-7B7F-4ACC-ADF3-B6E0F7033A19";
shapes = (
{
closed = 1;
nodes = (
(415,573,o),
(478,614,o),
(478,798,cs),
(478,1204,ls),
(478,1314,o),
(516,1320,o),
(633,1320,c),
(633,1441,l),
(413,1441,o),
(314,1397,o),
(314,1173,cs),
(314,834,ls),
(314,663,o),
(310,590,o),
(140,590,c),
(140,462,l),
(310,462,o),
(314,389,o),
(314,218,cs),
(314,-121,ls),
(314,-343,o),
(411,-389,o),
(633,-389,c),
(633,-268,l),
(515,-268,o),
(478,-260,o),
(478,-152,cs),
(478,254,ls),
(478,438,o),
(415,483,o),
(312,528,c)
);
}
);
width = 748;
}
);
note = braceleft;
unicode = 123;
},
{
color = 3;
glyphname = braceright;
kernLeft = bracketright;
kernRight = bracketright;
layers = (
{
background = {
shapes = (
{
closed = 1;
nodes = (
(333,602,o),
(270,557,o),
(270,373,cs),
(270,-1,ls),
(270,-109,o),
(233,-117,o),
(115,-117,c),
(115,-238,l),
(337,-238,o),
(434,-192,o),
(434,30,cs),
(434,337,ls),
(434,508,o),
(438,581,o),
(608,581,c),
(608,709,l),
(438,709,o),
(434,782,o),
(434,953,cs),
(434,1260,ls),
(434,1484,o),
(335,1528,o),
(115,1528,c),
(115,1407,l),
(232,1407,o),
(270,1401,o),
(270,1291,cs),
(270,917,ls),
(270,733,o),
(333,692,o),
(436,647,c)
);
}
);
};
layerId = "2F8B9CD4-7B7F-4ACC-ADF3-B6E0F7033A19";
shapes = (
{
closed = 1;
nodes = (
(333,483,o),
(270,438,o),
(270,254,cs),
(270,-152,ls),
(270,-260,o),
(233,-268,o),
(115,-268,c),
(115,-389,l),
(337,-389,o),
(434,-343,o),
(434,-121,cs),
(434,218,ls),
(434,389,o),
(438,462,o),
(608,462,c),
(608,590,l),
(438,590,o),
(434,663,o),
(434,834,cs),
(434,1173,ls),
(434,1397,o),
(335,1441,o),
(115,1441,c),
(115,1320,l),
(232,1320,o),
(270,1314,o),
(270,1204,cs),
(270,798,ls),
(270,614,o),
(333,573,o),
(436,528,c)
);
}
);
width = 748;
}
);
metricLeft = "=|braceleft";
metricWidth = braceleft;
note = braceright;
unicode = 125;
},
{
color = 3;
glyphname = bracketleft;
kernLeft = bracketleft;
kernRight = bracketleft;
layers = (
{
layerId = "2F8B9CD4-7B7F-4ACC-ADF3-B6E0F7033A19";
shapes = (
{
closed = 1;
nodes = (
(570,-389,l),
(570,-269,l),
(384,-269,l),
(384,1321,l),
(570,1321,l),
(570,1441,l),
(220,1441,l),
(220,-389,l)
);
}
);
width = 685;
}
);
metricLeft = H;
note = bracketleft;
unicode = 91;
},
{
color = 3;
glyphname = bracketright;
kernLeft = bracketright;
kernRight = bracketright;
layers = (
{
layerId = "2F8B9CD4-7B7F-4ACC-ADF3-B6E0F7033A19";
shapes = (
{
closed = 1;
nodes = (
(465,1441,l),
(115,1441,l),
(115,1321,l),
(301,1321,l),
(301,-269,l),
(115,-269,l),
(115,-389,l),
(465,-389,l)
);
}
);
width = 685;
}
);
metricLeft = "=|bracketleft";
metricWidth = bracketleft;
note = bracketright;
unicode = 93;
},
{
color = 3;
glyphname = quotesinglbase;
kernLeft = period;
kernRight = period;
layers = (
{
layerId = "2F8B9CD4-7B7F-4ACC-ADF3-B6E0F7033A19";
shapes = (
{
closed = 1;
nodes = (
(396,181,o),
(363,214,o),
(275,214,cs),
(188,214,o),
(150,181,o),
(150,89,cs),
(150,0,o),
(188,-22,o),
(257,-22,c),
(250,-99,o),
(225,-148,o),
(170,-228,c),
(252,-283,l),
(351,-190,o),
(396,-73,o),
(396,89,cs)
);
}
);
width = 546;
}
);
metricLeft = "=period+10";
metricWidth = "=period+20";
note = quotesinglbase;
unicode = 8218;
},
{
color = 3;
glyphname = quotedblbase;
kernLeft = period;
kernRight = period;
layers = (
{
layerId = "2F8B9CD4-7B7F-4ACC-ADF3-B6E0F7033A19";
shapes = (
{
closed = 1;
nodes = (
(396,181,o),
(363,214,o),
(275,214,cs),
(188,214,o),
(150,181,o),
(150,89,cs),
(150,0,o),
(188,-22,o),
(257,-22,c),
(250,-99,o),
(225,-148,o),
(170,-228,c),
(252,-283,l),
(351,-190,o),
(396,-73,o),
(396,89,cs)
);
},
{
closed = 1;
nodes = (
(715,181,o),
(682,214,o),
(594,214,cs),
(507,214,o),
(469,181,o),
(469,89,cs),
(469,0,o),
(507,-22,o),
(576,-22,c),
(569,-99,o),
(544,-148,o),
(489,-228,c),
(571,-283,l),
(670,-190,o),
(715,-73,o),
(715,89,cs)
);
}
);
width = 865;
}
);
metricLeft = quotesinglbase;
metricRight = quotesinglbase;
note = quotedblbase;
unicode = 8222;
},
{
color = 3;
glyphname = quotedblleft;
kernLeft = quotedblleft;
kernRight = quotedblleft;
layers = (
{
layerId = "2F8B9CD4-7B7F-4ACC-ADF3-B6E0F7033A19";
shapes = (
{
closed = 1;
nodes = (
(469,1028,o),
(502,995,o),
(590,995,cs),
(677,995,o),
(715,1028,o),
(715,1120,cs),
(715,1209,o),
(677,1231,o),
(608,1231,c),
(615,1308,o),
(640,1357,o),
(695,1437,c),
(613,1492,l),
(514,1399,o),
(469,1282,o),
(469,1120,cs)
);
},
{
closed = 1;
nodes = (
(150,1028,o),
(183,995,o),
(271,995,cs),
(358,995,o),
(396,1028,o),
(396,1120,cs),
(396,1209,o),
(358,1231,o),
(289,1231,c),
(296,1308,o),
(321,1357,o),
(376,1437,c),
(294,1492,l),
(195,1399,o),
(150,1282,o),
(150,1120,cs)
);
}
);
width = 865;
}
);
metricLeft = quotesinglbase;
metricRight = quotesinglbase;
note = quotedblleft;
unicode = 8220;
},
{
color = 3;
glyphname = quotedblright;
kernLeft = quotedblright;
kernRight = quotedblright;
layers = (
{
layerId = "2F8B9CD4-7B7F-4ACC-ADF3-B6E0F7033A19";
shapes = (
{
closed = 1;
nodes = (
(396,1432,o),
(363,1465,o),
(275,1465,cs),
(188,1465,o),
(150,1432,o),
(150,1340,cs),
(150,1251,o),
(188,1229,o),
(257,1229,c),
(250,1152,o),
(225,1103,o),
(170,1023,c),
(252,968,l),
(351,1061,o),
(396,1178,o),
(396,1340,cs)
);
},
{
closed = 1;
nodes = (
(715,1432,o),
(682,1465,o),
(594,1465,cs),
(507,1465,o),
(469,1432,o),
(469,1340,cs),
(469,1251,o),
(507,1229,o),
(576,1229,c),
(569,1152,o),
(544,1103,o),
(489,1023,c),
(571,968,l),
(670,1061,o),
(715,1178,o),
(715,1340,cs)
);
}
);
width = 865;
}
);
metricLeft = quotesinglbase;
metricRight = quotesinglbase;
note = quotedblright;
unicode = 8221;
},
{
color = 3;
glyphname = quoteleft;
kernLeft = quotedblleft;
kernRight = quotedblleft;
layers = (
{
layerId = "2F8B9CD4-7B7F-4ACC-ADF3-B6E0F7033A19";
shapes = (
{
closed = 1;
nodes = (
(150,1028,o),
(183,995,o),
(271,995,cs),
(358,995,o),
(396,1028,o),
(396,1120,cs),
(396,1209,o),
(358,1231,o),
(289,1231,c),
(296,1308,o),
(321,1357,o),
(376,1437,c),
(294,1492,l),
(195,1399,o),
(150,1282,o),
(150,1120,cs)
);
}
);
width = 546;
}
);
metricLeft = quotesinglbase;
metricRight = quotesinglbase;
note = quoteleft;
unicode = 8216;
},
{
color = 3;
glyphname = quoteright;
kernLeft = quotedblright;
kernRight = quotedblright;
layers = (
{
layerId = "2F8B9CD4-7B7F-4ACC-ADF3-B6E0F7033A19";
shapes = (
{
closed = 1;
nodes = (
(396,1432,o),
(363,1465,o),
(275,1465,cs),
(188,1465,o),
(150,1432,o),
(150,1340,cs),
(150,1251,o),
(188,1229,o),
(257,1229,c),
(250,1152,o),
(225,1103,o),
(170,1023,c),
(252,968,l),
(351,1061,o),
(396,1178,o),
(396,1340,cs)
);
}
);
width = 546;
}
);
metricLeft = quotesinglbase;
metricRight = quotesinglbase;
note = quoteright;
unicode = 8217;
},
{
color = 3;
glyphname = guillemetleft;
kernLeft = guilleft;
kernRight = guilleft;
layers = (
{
layerId = "2F8B9CD4-7B7F-4ACC-ADF3-B6E0F7033A19";
shapes = (
{
closed = 1;
nodes = (
(100,455,l),
(400,110,l),
(505,200,l),
(242,502,l),
(505,804,l),
(400,894,l),
(100,549,l)
);
},
{
closed = 1;
nodes = (
(510,455,l),
(810,110,l),
(915,200,l),
(652,502,l),
(915,804,l),
(810,894,l),
(510,549,l)
);
}
);
width = 1015;
}
);
note = guillemotleft;
unicode = 171;
},
{
color = 3;
glyphname = guillemetright;
kernLeft = guilright;
kernRight = guilright;
layers = (
{
layerId = "2F8B9CD4-7B7F-4ACC-ADF3-B6E0F7033A19";
shapes = (
{
closed = 1;
nodes = (
(615,894,l),
(510,804,l),
(773,502,l),
(510,200,l),
(615,110,l),
(915,455,l),
(915,549,l)
);
},
{
closed = 1;
nodes = (
(205,894,l),
(100,804,l),
(363,502,l),
(100,200,l),
(205,110,l),
(505,455,l),
(505,549,l)
);
}
);
width = 1015;
}
);
note = guillemotright;
unicode = 187;
},
{
color = 3;
glyphname = guilsinglleft;
kernLeft = guilleft;
kernRight = guilleft;
layers = (
{
background = {
shapes = (
{
closed = 1;
nodes = (
(100,455,l),
(380,110,l),
(505,170,l),
(242,502,l),
(505,834,l),
(380,894,l),
(100,549,l)
);
}
);
};
layerId = "2F8B9CD4-7B7F-4ACC-ADF3-B6E0F7033A19";
shapes = (
{
closed = 1;
nodes = (
(100,455,l),
(400,110,l),
(505,200,l),
(242,502,l),
(505,804,l),
(400,894,l),
(100,549,l)
);
}
);
width = 605;
}
);
note = guilsinglleft;
unicode = 8249;
},
{
color = 3;
glyphname = guilsinglright;
kernLeft = guilright;
kernRight = guilright;
layers = (
{
layerId = "2F8B9CD4-7B7F-4ACC-ADF3-B6E0F7033A19";
shapes = (
{
closed = 1;
nodes = (
(205,894,l),
(100,804,l),
(363,502,l),
(100,200,l),
(205,110,l),
(505,455,l),
(505,549,l)
);
}
);
width = 605;
}
);
note = guilsinglright;
unicode = 8250;
},
{
color = 3;
glyphname = quotedbl;
kernLeft = asterisk;
kernRight = asterisk;
lastChange = "2023-01-25 11:11:56 +0000";
layers = (
{
background = {
shapes = (
{
closed = 1;
nodes = (
(468,1452,l),
(470,1260,l),
(501,952,l),
(630,952,l),
(661,1260,l),
(663,1452,l)
);
},
{
closed = 1;
nodes = (
(128,1452,l),
(132,1260,l),
(163,952,l),
(292,952,l),
(321,1260,l),
(325,1452,l)
);
}
);
};
layerId = "2F8B9CD4-7B7F-4ACC-ADF3-B6E0F7033A19";
shapes = (
{
closed = 1;
nodes = (
(588,928,o),
(626,1248,o),
(626,1336,cs),
(626,1424,o),
(598,1460,o),
(533,1460,cs),
(468,1460,o),
(440,1424,o),
(440,1336,cs),
(440,1248,o),
(478,928,o),
(533,928,cs)
);
},
{
closed = 1;
nodes = (
(288,928,o),
(326,1248,o),
(326,1336,cs),
(326,1424,o),
(298,1460,o),
(233,1460,cs),
(168,1460,o),
(140,1424,o),
(140,1336,cs),
(140,1248,o),
(178,928,o),
(233,928,cs)
);
}
);
width = 766;
}
);
note = quotedbl;
unicode = 34;
},
{
color = 3;
glyphname = quotesingle;
kernLeft = asterisk;
kernRight = asterisk;
lastChange = "2023-01-25 11:11:56 +0000";
layers = (
{
background = {
shapes = (
{
closed = 1;
nodes = (
(130,1452,l),
(132,1260,l),
(163,952,l),
(292,952,l),
(323,1260,l),
(325,1452,l)
);
}
);
};
layerId = "2F8B9CD4-7B7F-4ACC-ADF3-B6E0F7033A19";
shapes = (
{
closed = 1;
nodes = (
(288,928,o),
(326,1248,o),
(326,1336,cs),
(326,1424,o),
(298,1460,o),
(233,1460,cs),
(168,1460,o),
(140,1424,o),
(140,1336,cs),
(140,1248,o),
(178,928,o),
(233,928,cs)
);
}
);
width = 466;
}
);
note = quotesingle;
unicode = 39;
},
{
glyphname = florin;
layers = (
{
layerId = "2F8B9CD4-7B7F-4ACC-ADF3-B6E0F7033A19";
shapes = (
{
closed = 1;
nodes = (
(738,860,l),
(763,993,l),
(478,993,l),
(517,1219,ls),
(543,1371,o),
(563,1415,o),
(718,1415,cs),
(757,1415,o),
(798,1412,o),
(837,1409,c),
(859,1544,l),
(818,1547,o),
(775,1548,o),
(734,1548,cs),
(469,1548,o),
(401,1471,o),
(353,1204,cs),
(315,993,l),
(104,993,l),
(81,860,l),
(292,860,l),
(116,-139,ls),
(90,-288,o),
(63,-344,o),
(-85,-344,cs),
(-124,-344,o),
(-165,-338,o),
(-204,-330,c),
(-226,-461,l),
(-185,-472,o),
(-146,-477,o),
(-105,-477,cs),
(170,-477,o),
(230,-400,o),
(280,-125,cs),
(456,860,l)
);
}
);
width = 807;
}
);
note = florin;
unicode = 402;
},
{
color = 3;
glyphname = at;
layers = (
{
background = {
shapes = (
{
closed = 1;
nodes = (
(781,281,o),
(740,306,o),
(713,349,cs),
(690,385,o),
(681,434,o),
(681,487,cs),
(681,587,o),
(715,701,o),
(761,777,cs),
(813,863,o),
(897,893,o),
(956,893,cs),
(966,893,o),
(975,893,o),
(983,891,cs),
(1044,879,o),
(1076,856,o),
(1116,824,c),
(1048,520,o),
(985,281,o),
(838,281,cs)
);
},
{
closed = 1;
nodes = (
(1264,993,o),
(1232,996,o),
(1213,996,cs),
(1190,996,o),
(1171,983,o),
(1148,932,c),
(1084,992,o),
(1018,1028,o),
(925,1028,cs),
(732,1028,o),
(554,804,o),
(536,542,cs),
(535,525,o),
(534,509,o),
(534,493,cs),
(534,297,o),
(620,153,o),
(801,153,cs),
(952,153,o),
(1048,241,o),
(1104,396,c),
(1104,256,o),
(1171,161,o),
(1326,161,cs),
(1441,161,o),
(1543,231,o),
(1615,329,cs),
(1734,491,o),
(1744,878,o),
(1599,1086,cs),
(1466,1278,o),
(1223,1379,o),
(978,1379,cs),
(512,1379,o),
(120,1014,o),
(120,536,cs),
(120,244,o),
(260,9,o),
(520,-106,cs),
(631,-155,o),
(752,-179,o),
(868,-179,cs),
(1017,-179,o),
(1154,-142,o),
(1275,-93,c),
(1220,27,l),
(1124,-8,o),
(1012,-45,o),
(889,-45,cs),
(505,-45,o),
(265,176,o),
(265,550,cs),
(265,932,o),
(586,1246,o),
(968,1246,cs),
(1349,1246,o),
(1578,1044,o),
(1578,705,cs),
(1578,506,o),
(1502,289,o),
(1347,289,cs),
(1213,289,o),
(1194,395,o),
(1219,552,cs),
(1290,989,l)
);
}
);
};
layerId = "2F8B9CD4-7B7F-4ACC-ADF3-B6E0F7033A19";
shapes = (
{
closed = 1;
nodes = (
(1130,1011,l),
(1047,507,ls),
(1019,334,o),
(920,288,o),
(838,288,cs),
(740,288,o),
(681,348,o),
(681,497,cs),
(681,711,o),
(782,893,o),
(956,893,cs),
(1011,893,o),
(1069,891,o),
(1132,830,c),
(1132,919,l),
(1086,1005,o),
(1014,1028,o),
(925,1028,cs),
(668,1028,o),
(514,776,o),
(514,493,cs),
(514,290,o),
(622,153,o),
(811,153,cs),
(945,153,o),
(1045,233,o),
(1104,356,c),
(1113,254,o),
(1182,161,o),
(1326,161,cs),
(1544,161,o),
(1706,385,o),
(1706,685,cs),
(1706,1108,o),
(1421,1379,o),
(978,1379,cs),
(462,1379,o),
(120,1004,o),
(120,536,cs),
(120,116,o),
(409,-179,o),
(868,-179,cs),
(997,-179,o),
(1162,-151,o),
(1275,-83,c),
(1220,37,l),
(1112,-24,o),
(984,-45,o),
(889,-45,cs),
(481,-45,o),
(265,180,o),
(265,550,cs),
(265,930,o),
(544,1246,o),
(968,1246,cs),
(1350,1246,o),
(1578,1043,o),
(1578,705,cs),
(1578,466,o),
(1480,289,o),
(1347,289,cs),
(1229,289,o),
(1189,370,o),
(1218,547,cs),
(1294,1011,l)
);
}
);
width = 1826;
}
);
note = at;
unicode = 64;
},
{
color = 3;
glyphname = ampersand;
layers = (
{
background = {
shapes = (
{
closed = 1;
nodes = (
(553,867,ls),
(445,952,o),
(430,1021,o),
(430,1115,cs),
(430,1251,o),
(508,1328,o),
(663,1328,cs),
(830,1328,o),
(879,1264,o),
(898,1126,c),
(1073,1126,l),
(1050,1365,o),
(941,1472,o),
(662,1472,cs),
(411,1472,o),
(252,1333,o),
(252,1111,cs),
(252,983,o),
(296,853,o),
(429,748,cs),
(1369,3,l),
(1475,137,l)
);
},
{
closed = 1;
nodes = (
(207,806,o),
(120,659,o),
(120,432,cs),
(120,117,o),
(302,-23,o),
(666,-23,cs),
(1031,-23,o),
(1214,117,o),
(1214,433,cs),
(1214,752,l),
(1053,752,l),
(1053,433,ls),
(1053,189,o),
(925,121,o),
(667,121,cs),
(409,121,o),
(295,199,o),
(295,432,cs),
(295,654,o),
(361,729,o),
(560,796,c),
(431,867,l)
);
}
);
};
guides = (
{
angle = 51.6013;
pos = (1369,3);
},
{
angle = -38.3987;
pos = (1484,128);
}
);
layerId = "2F8B9CD4-7B7F-4ACC-ADF3-B6E0F7033A19";
shapes = (
{
closed = 1;
nodes = (
(1209,348,l),
(1212,374,o),
(1214,403,o),
(1214,433,cs),
(1214,752,l),
(1053,752,l),
(1053,471,l),
(553,867,ls),
(445,952,o),
(430,1021,o),
(430,1115,cs),
(430,1251,o),
(508,1328,o),
(663,1328,cs),
(830,1328,o),
(879,1264,o),
(898,1126,c),
(1073,1126,l),
(1050,1365,o),
(941,1472,o),
(662,1472,cs),
(411,1472,o),
(252,1333,o),
(252,1111,cs),
(252,1016,o),
(276,921,o),
(342,835,c),
(184,762,o),
(120,626,o),
(120,432,cs),
(120,117,o),
(302,-23,o),
(666,-23,cs),
(909,-23,o),
(1072,39,o),
(1153,174,c),
(1369,3,l),
(1475,137,l)
);
},
{
closed = 1;
nodes = (
(295,599,o),
(332,683,o),
(436,743,c),
(1026,275,l),
(976,158,o),
(857,121,o),
(667,121,cs),
(409,121,o),
(295,199,o),
(295,432,cs)
);
}
);
width = 1475;
}
);
note = ampersand;
unicode = 38;
},
{
color = 3;
glyphname = paragraph;
layers = (
{
layerId = "2F8B9CD4-7B7F-4ACC-ADF3-B6E0F7033A19";
shapes = (
{
closed = 1;
nodes = (
(568,1300,l),
(831,1300,l),
(831,-235,l),
(971,-235,l),
(971,1300,l),
(1133,1300,l),
(1133,1440,l),
(467,1440,ls),
(352,1440,o),
(256,1406,o),
(188,1347,cs),
(120,1288,o),
(80,1204,o),
(80,1103,cs),
(80,1008,o),
(115,930,o),
(176,872,cs),
(237,814,o),
(324,777,o),
(428,769,c),
(428,-235,l),
(568,-235,l)
);
}
);
width = 1213;
}
);
note = paragraph;
unicode = 182;
},
{
color = 3;
glyphname = section;
layers = (
{
background = {
shapes = (
{
closed = 1;
nodes = (
(788,450,l),
(931,474,o),
(996,563,o),
(996,698,cs),
(996,875,o),
(904,959,o),
(669,997,cs),
(503,1024,ls),
(380,1044,o),
(329,1090,o),
(329,1182,cs),
(329,1301,o),
(398,1351,o),
(564,1351,cs),
(726,1351,o),
(786,1301,o),
(786,1174,c),
(932,1174,l),
(932,1386,o),
(823,1471,o),
(564,1471,cs),
(306,1471,o),
(180,1362,o),
(180,1180,cs),
(180,1012,o),
(273,929,o),
(498,892,cs),
(664,865,ls),
(796,844,o),
(854,790,o),
(854,696,cs),
(854,593,o),
(815,541,o),
(700,504,c)
);
},
{
closed = 1;
nodes = (
(328,991,l),
(185,967,o),
(120,878,o),
(120,743,cs),
(120,566,o),
(212,482,o),
(447,444,cs),
(613,417,ls),
(736,397,o),
(787,351,o),
(787,259,cs),
(787,140,o),
(718,90,o),
(552,90,cs),
(390,90,o),
(330,140,o),
(330,267,c),
(184,267,l),
(184,55,o),
(293,-30,o),
(552,-30,cs),
(810,-30,o),
(936,79,o),
(936,261,cs),
(936,429,o),
(843,512,o),
(618,549,cs),
(452,576,ls),
(320,597,o),
(262,651,o),
(262,745,cs),
(262,848,o),
(301,900,o),
(416,937,c)
);
}
);
};
layerId = "2F8B9CD4-7B7F-4ACC-ADF3-B6E0F7033A19";
shapes = (
{
closed = 1;
nodes = (
(120,566,o),
(212,482,o),
(447,444,cs),
(613,417,ls),
(736,397,o),
(787,351,o),
(787,259,cs),
(787,140,o),
(718,90,o),
(552,90,cs),
(390,90,o),
(330,140,o),
(330,267,c),
(184,267,l),
(184,55,o),
(293,-30,o),
(552,-30,cs),
(810,-30,o),
(936,79,o),
(936,261,cs),
(936,352,o),
(909,418,o),
(848,465,c),
(949,502,o),
(996,584,o),
(996,698,cs),
(996,875,o),
(904,959,o),
(669,997,cs),
(503,1024,ls),
(380,1044,o),
(329,1090,o),
(329,1182,cs),
(329,1301,o),
(398,1351,o),
(564,1351,cs),
(726,1351,o),
(786,1301,o),
(786,1174,c),
(932,1174,l),
(932,1386,o),
(823,1471,o),
(564,1471,cs),
(306,1471,o),
(180,1362,o),
(180,1180,cs),
(180,1089,o),
(207,1023,o),
(268,976,c),
(167,939,o),
(120,857,o),
(120,743,cs)
);
},
{
closed = 1;
nodes = (
(262,834,o),
(291,885,o),
(374,921,c),
(410,909,o),
(451,900,o),
(498,892,cs),
(664,865,ls),
(796,844,o),
(854,790,o),
(854,696,cs),
(854,607,o),
(825,556,o),
(742,520,c),
(706,532,o),
(665,541,o),
(618,549,cs),
(452,576,ls),
(320,597,o),
(262,651,o),
(262,745,cs)
);
}
);
width = 1116;
}
);
note = section;
unicode = 167;
},
{
color = 3;
glyphname = copyright;
layers = (
{
background = {
shapes = (
{
closed = 1;
nodes = (
(1638,1165,o),
(1330,1465,o),
(868,1465,cs),
(410,1465,o),
(105,1162,o),
(105,709,cs),
(105,258,o),
(410,-43,o),
(868,-43,cs),
(1330,-43,o),
(1638,260,o),
(1638,714,cs)
);
},
{
closed = 1;
nodes = (
(1547,305,o),
(1279,35,o),
(873,35,cs),
(467,35,o),
(197,305,o),
(197,711,cs),
(197,1117,o),
(467,1389,o),
(873,1389,cs),
(1293,1388,o),
(1547,1117,o),
(1547,711,cs)
);
},
{
closed = 1;
nodes = (
(1126,391,o),
(1034,327,o),
(872,327,cs),
(668,327,o),
(587,432,o),
(587,702,cs),
(587,974,o),
(673,1080,o),
(891,1080,cs),
(1041,1080,o),
(1126,1016,o),
(1126,900,c),
(1232,900,l),
(1233,1075,o),
(1110,1172,o),
(891,1172,cs),
(610,1172,o),
(475,1020,o),
(475,699,cs),
(475,382,o),
(603,235,o),
(876,235,cs),
(1107,235,o),
(1233,332,o),
(1232,508,c),
(1126,508,l)
);
}
);
};
layerId = "2F8B9CD4-7B7F-4ACC-ADF3-B6E0F7033A19";
shapes = (
{
closed = 1;
nodes = (
(1638,1165,o),
(1330,1465,o),
(868,1465,cs),
(410,1465,o),
(105,1162,o),
(105,709,cs),
(105,258,o),
(410,-43,o),
(868,-43,cs),
(1330,-43,o),
(1638,260,o),
(1638,714,cs)
);
},
{
closed = 1;
nodes = (
(1547,305,o),
(1279,35,o),
(873,35,cs),
(467,35,o),
(197,305,o),
(197,711,cs),
(197,1117,o),
(467,1389,o),
(873,1389,cs),
(1293,1388,o),
(1547,1117,o),
(1547,711,cs)
);
},
{
closed = 1;
nodes = (
(1121,417,o),
(1058,368,o),
(911,368,cs),
(692,368,o),
(617,453,o),
(617,713,cs),
(617,970,o),
(690,1056,o),
(903,1056,cs),
(1046,1056,o),
(1113,1005,o),
(1124,872,c),
(1281,872,l),
(1277,1072,o),
(1151,1181,o),
(907,1181,cs),
(591,1181,o),
(460,1051,o),
(460,715,cs),
(460,379,o),
(590,243,o),
(906,243,cs),
(1168,243,o),
(1279,340,o),
(1281,552,c),
(1124,552,l)
);
}
);
width = 1743;
}
);
note = copyright;
unicode = 169;
},
{
color = 3;
glyphname = registered;
layers = (
{
background = {
shapes = (
{
closed = 1;
nodes = (
(678,266,l),
(678,664,l),
(857,664,ls),
(996,664,o),
(1035,631,o),
(1064,498,cs),
(1114,266,l),
(1224,266,l),
(1172,494,ls),
(1137,646,o),
(1140,691,o),
(978,718,c),
(982,708,l),
(1138,728,o),
(1195,795,o),
(1195,913,cs),
(1195,1104,o),
(1117,1163,o),
(865,1163,cs),
(569,1163,l),
(569,266,l)
);
},
{
closed = 1;
nodes = (
(678,1071,l),
(863,1071,ls),
(1036,1071,o),
(1090,1032,o),
(1090,913,cs),
(1090,800,o),
(998,754,o),
(857,754,cs),
(678,754,l)
);
},
{
closed = 1;
nodes = (
(1638,1165,o),
(1330,1465,o),
(868,1465,cs),
(410,1465,o),
(105,1162,o),
(105,709,cs),
(105,258,o),
(410,-43,o),
(868,-43,cs),
(1330,-43,o),
(1638,260,o),
(1638,714,cs)
);
},
{
closed = 1;
nodes = (
(1547,305,o),
(1279,35,o),
(873,35,cs),
(467,35,o),
(197,305,o),
(197,711,cs),
(197,1117,o),
(467,1389,o),
(873,1389,cs),
(1293,1388,o),
(1547,1117,o),
(1547,711,cs)
);
}
);
};
layerId = "2F8B9CD4-7B7F-4ACC-ADF3-B6E0F7033A19";
shapes = (
{
closed = 1;
nodes = (
(1638,1165,o),
(1330,1465,o),
(868,1465,cs),
(410,1465,o),
(105,1162,o),
(105,709,cs),
(105,258,o),
(410,-43,o),
(868,-43,cs),
(1330,-43,o),
(1638,260,o),
(1638,714,cs)
);
},
{
closed = 1;
nodes = (
(1547,305,o),
(1279,35,o),
(873,35,cs),
(467,35,o),
(197,305,o),
(197,711,cs),
(197,1117,o),
(467,1389,o),
(873,1389,cs),
(1293,1388,o),
(1547,1117,o),
(1547,711,cs)
);
},
{
closed = 1;
nodes = (
(721,282,l),
(721,644,l),
(859,644,ls),
(974,644,o),
(1001,621,o),
(1024,513,cs),
(1074,282,l),
(1235,282,l),
(1173,557,ls),
(1144,687,o),
(1114,716,o),
(975,724,c),
(988,709,l),
(1131,703,o),
(1203,781,o),
(1203,903,cs),
(1203,1080,o),
(1119,1150,o),
(877,1150,cs),
(562,1150,l),
(562,282,l)
);
},
{
closed = 1;
nodes = (
(721,1016,l),
(887,1016,ls),
(1016,1016,o),
(1046,990,o),
(1046,897,cs),
(1046,809,o),
(995,778,o),
(882,778,cs),
(721,778,l)
);
}
);
width = 1743;
}
);
note = registered;
unicode = 174;
},
{
color = 3;
glyphname = trademark;
layers = (
{
background = {
shapes = (
{
closed = 1;
nodes = (
(312,1326,l),
(312,785,l),
(385,785,l),
(385,1326,l),
(572,1326,l),
(572,1390,l),
(125,1390,l),
(125,1326,l)
);
},
{
closed = 1;
nodes = (
(693,786,l),
(693,1325,l),
(709,1325,l),
(853,850,l),
(949,850,l),
(1095,1325,l),
(1110,1325,l),
(1110,786,l),
(1176,786,l),
(1176,1390,l),
(1051,1390,l),
(908,916,l),
(894,916,l),
(752,1390,l),
(628,1390,l),
(628,786,l)
);
}
);
};
layerId = "2F8B9CD4-7B7F-4ACC-ADF3-B6E0F7033A19";
shapes = (
{
closed = 1;
nodes = (
(287,1291,l),
(287,790,l),
(410,790,l),
(410,1291,l),
(597,1291,l),
(597,1405,l),
(100,1405,l),
(100,1291,l)
);
},
{
closed = 1;
nodes = (
(768,791,l),
(768,1310,l),
(788,1310,l),
(932,855,l),
(1070,855,l),
(1216,1310,l),
(1235,1310,l),
(1235,791,l),
(1351,791,l),
(1351,1405,l),
(1130,1405,l),
(987,951,l),
(1015,951,l),
(873,1405,l),
(653,1405,l),
(653,791,l)
);
}
);
width = 1451;
}
);
note = trademark;
unicode = 8482;
},
{
color = 3;
glyphname = degree;
layers = (
{
background = {
shapes = (
{
closed = 1;
nodes = (
(590,690,o),
(684,736,o),
(748,805,cs),
(810,874,o),
(842,966,o),
(842,1059,cs),
(842,1151,o),
(810,1243,o),
(748,1312,cs),
(684,1381,o),
(590,1427,o),
(463,1427,cs),
(335,1427,o),
(240,1381,o),
(176,1312,cs),
(112,1243,o),
(80,1151,o),
(80,1059,cs),
(80,966,o),
(112,874,o),
(176,805,cs),
(240,736,o),
(335,690,o),
(463,690,cs)
);
},
{
closed = 1;
nodes = (
(534,1294,o),
(590,1264,o),
(626,1221,c),
(660,1176,o),
(680,1119,o),
(680,1059,cs),
(680,998,o),
(660,941,o),
(626,898,cs),
(590,853,o),
(534,823,o),
(463,823,cs),
(388,823,o),
(332,853,o),
(298,898,c),
(262,941,o),
(242,998,o),
(242,1059,cs),
(242,1119,o),
(262,1176,o),
(298,1221,cs),
(332,1264,o),
(388,1294,o),
(463,1294,cs)
);
}
);
};
layerId = "2F8B9CD4-7B7F-4ACC-ADF3-B6E0F7033A19";
shapes = (
{
closed = 1;
nodes = (
(688,734,o),
(842,884,o),
(842,1103,cs),
(842,1322,o),
(688,1471,o),
(463,1471,cs),
(238,1471,o),
(80,1322,o),
(80,1103,cs),
(80,884,o),
(238,734,o),
(463,734,cs)
);
},
{
closed = 1;
nodes = (
(602,1338,o),
(683,1228,o),
(683,1103,cs),
(683,978,o),
(602,867,o),
(463,867,cs),
(324,867,o),
(239,978,o),
(239,1103,cs),
(239,1228,o),
(324,1338,o),
(463,1338,cs)
);
}
);
width = 922;
}
);
note = degree;
unicode = 176;
},
{
color = 3;
glyphname = minute;
kernLeft = asterisk;
kernRight = asterisk;
lastChange = "2023-01-25 11:11:56 +0000";
layers = (
{
background = {
shapes = (
{
closed = 1;
nodes = (
(130,1452,l),
(132,1260,l),
(163,952,l),
(292,952,l),
(323,1260,l),
(325,1452,l)
);
}
);
};
layerId = "2F8B9CD4-7B7F-4ACC-ADF3-B6E0F7033A19";
shapes = (
{
closed = 1;
nodes = (
(288,928,o),
(326,1248,o),
(326,1336,cs),
(326,1424,o),
(298,1460,o),
(233,1460,cs),
(168,1460,o),
(140,1424,o),
(140,1336,cs),
(140,1248,o),
(178,928,o),
(233,928,cs)
);
}
);
width = 466;
}
);
note = quotesingle;
unicode = 8242;
},
{
color = 3;
glyphname = second;
kernLeft = asterisk;
kernRight = asterisk;
lastChange = "2023-01-25 11:11:56 +0000";
layers = (
{
background = {
shapes = (
{
closed = 1;
nodes = (
(468,1452,l),
(470,1260,l),
(501,952,l),
(630,952,l),
(661,1260,l),
(663,1452,l)
);
},
{
closed = 1;
nodes = (
(128,1452,l),
(132,1260,l),
(163,952,l),
(292,952,l),
(321,1260,l),
(325,1452,l)
);
}
);
};
layerId = "2F8B9CD4-7B7F-4ACC-ADF3-B6E0F7033A19";
shapes = (
{
closed = 1;
nodes = (
(588,928,o),
(626,1248,o),
(626,1336,cs),
(626,1424,o),
(598,1460,o),
(533,1460,cs),
(468,1460,o),
(440,1424,o),
(440,1336,cs),
(440,1248,o),
(478,928,o),
(533,928,cs)
);
},
{
closed = 1;
nodes = (
(288,928,o),
(326,1248,o),
(326,1336,cs),
(326,1424,o),
(298,1460,o),
(233,1460,cs),
(168,1460,o),
(140,1424,o),
(140,1336,cs),
(140,1248,o),
(178,928,o),
(233,928,cs)
);
}
);
width = 766;
}
);
note = quotedbl;
unicode = 8243;
},
{
color = 3;
glyphname = bar;
layers = (
{
layerId = "2F8B9CD4-7B7F-4ACC-ADF3-B6E0F7033A19";
shapes = (
{
closed = 1;
nodes = (
(344,-301,l),
(344,1536,l),
(180,1536,l),
(180,-301,l)
);
}
);
width = 524;
}
);
metricRight = "=|";
note = bar;
unicode = 124;
},
{
color = 3;
glyphname = brokenbar;
layers = (
{
background = {
shapes = (
{
closed = 1;
nodes = (
(344,-301,l),
(344,1536,l),
(180,1536,l),
(180,-301,l)
);
}
);
};
layerId = "2F8B9CD4-7B7F-4ACC-ADF3-B6E0F7033A19";
shapes = (
{
closed = 1;
nodes = (
(344,1536,l),
(180,1536,l),
(180,782,l),
(344,782,l)
);
},
{
closed = 1;
nodes = (
(344,451,l),
(180,451,l),
(180,-301,l),
(344,-301,l)
);
}
);
width = 524;
}
);
metricLeft = bar;
metricRight = "=|";
note = brokenbar;
unicode = 166;
},
{
color = 3;
glyphname = dagger;
layers = (
{
layerId = "2F8B9CD4-7B7F-4ACC-ADF3-B6E0F7033A19";
shapes = (
{
closed = 1;
nodes = (
(100,1021,l),
(100,877,l),
(413,887,l),
(393,-219,l),
(560,-219,l),
(540,887,l),
(853,877,l),
(853,1021,l),
(540,1011,l),
(560,1441,l),
(393,1441,l),
(413,1011,l)
);
}
);
width = 953;
}
);
metricRight = "=|";
note = dagger;
unicode = 8224;
},
{
color = 3;
glyphname = daggerdbl;
layers = (
{
layerId = "2F8B9CD4-7B7F-4ACC-ADF3-B6E0F7033A19";
shapes = (
{
closed = 1;
nodes = (
(100,1021,l),
(100,876,l),
(413,886,l),
(413,334,l),
(100,344,l),
(100,201,l),
(413,211,l),
(393,-219,l),
(559,-219,l),
(539,211,l),
(852,201,l),
(852,344,l),
(539,334,l),
(539,886,l),
(852,876,l),
(852,1021,l),
(539,1011,l),
(559,1441,l),
(393,1441,l),
(413,1011,l)
);
}
);
width = 952;
}
);
metricLeft = dagger;
metricRight = dagger;
note = daggerdbl;
unicode = 8225;
},
{
color = 3;
glyphname = numero;
lastChange = "2023-01-25 11:12:12 +0000";
layers = (
{
guides = (
{
pos = (890,1311);
}
);
layerId = "2F8B9CD4-7B7F-4ACC-ADF3-B6E0F7033A19";
shapes = (
{
closed = 1;
nodes = (
(376,0,l),
(376,1285,l),
(408,1285,l),
(1199,0,l),
(1462,0,l),
(1462,1441,l),
(1306,1441,l),
(1306,173,l),
(1274,173,l),
(493,1441,l),
(220,1441,l),
(220,0,l)
);
},
{
closed = 1;
nodes = (
(2362,330,l),
(2362,454,l),
(1798,454,l),
(1798,330,l)
);
},
{
closed = 1;
nodes = (
(2330,697,o),
(2430,810,o),
(2430,1094,cs),
(2430,1372,o),
(2328,1486,o),
(2078,1486,cs),
(1830,1486,o),
(1730,1372,o),
(1730,1092,cs),
(1730,812,o),
(1831,697,o),
(2078,697,cs)
);
},
{
closed = 1;
nodes = (
(1913,822,o),
(1880,889,o),
(1880,1089,c),
(1880,1276,o),
(1912,1361,o),
(2078,1361,cs),
(2245,1361,o),
(2279,1281,o),
(2279,1091,cs),
(2279,893,o),
(2251,822,o),
(2082,822,cs)
);
}
);
width = 2500;
}
);
metricLeft = H;
unicode = 8470;
},
{
color = 3;
glyphname = cedi;
layers = (
{
background = {
shapes = (
{
closed = 1;
nodes = (
(703,-220,l),
(833,-220,l),
(833,1681,l),
(703,1681,l)
);
},
{
closed = 1;
nodes = (
(1109,248,o),
(970,150,o),
(725,150,cs),
(415,150,o),
(294,309,o),
(294,718,cs),
(294,1130,o),
(423,1290,o),
(754,1290,cs),
(981,1290,o),
(1109,1192,o),
(1109,1018,c),
(1268,1018,l),
(1271,1282,o),
(1086,1431,o),
(754,1431,cs),
(326,1431,o),
(125,1199,o),
(125,713,cs),
(125,235,o),
(319,10,o),
(732,10,cs),
(1079,10,o),
(1271,159,o),
(1268,423,c),
(1109,423,l)
);
}
);
};
layerId = "2F8B9CD4-7B7F-4ACC-ADF3-B6E0F7033A19";
shapes = (
{
closed = 1;
nodes = (
(1171,258,o),
(1050,161,o),
(833,145,c),
(833,1297,l),
(1050,1287,o),
(1171,1189,o),
(1171,1022,c),
(1340,1022,l),
(1344,1280,o),
(1161,1430,o),
(833,1440,c),
(833,1681,l),
(703,1681,l),
(703,1438,l),
(310,1407,o),
(125,1171,o),
(125,714,cs),
(125,253,o),
(310,25,o),
(703,2,c),
(703,-220,l),
(833,-220,l),
(833,2,l),
(1162,18,o),
(1344,167,o),
(1340,419,c),
(1171,419,l)
);
},
{
closed = 1;
nodes = (
(305,1098,o),
(418,1266,o),
(703,1294,c),
(703,144,l),
(417,163,o),
(305,329,o),
(305,719,cs)
);
}
);
width = 1450;
}
);
metricLeft = O;
metricRight = C;
unicode = 8373;
},
{
color = 3;
glyphname = cent;
layers = (
{
background = {
shapes = (
{
closed = 1;
nodes = (
(501,0,l),
(621,0,l),
(621,1441,l),
(501,1441,l)
);
},
{
closed = 1;
nodes = (
(821,372,o),
(758,317,o),
(591,317,cs),
(352,317,o),
(277,413,o),
(277,722,cs),
(277,1028,o),
(350,1125,o),
(583,1125,cs),
(746,1125,o),
(813,1067,o),
(824,917,c),
(981,917,l),
(977,1143,o),
(851,1247,o),
(587,1247,cs),
(251,1247,o),
(120,1103,o),
(120,724,cs),
(120,341,o),
(250,195,o),
(586,195,cs),
(868,195,o),
(979,285,o),
(981,525,c),
(824,525,l)
);
}
);
};
layerId = "2F8B9CD4-7B7F-4ACC-ADF3-B6E0F7033A19";
shapes = (
{
closed = 1;
nodes = (
(501,1243,l),
(228,1219,o),
(120,1069,o),
(120,724,cs),
(120,375,o),
(228,223,o),
(501,199,c),
(501,0,l),
(621,0,l),
(621,195,l),
(877,203,o),
(979,295,o),
(981,525,c),
(824,525,l),
(821,382,o),
(766,324,o),
(621,318,c),
(621,1124,l),
(757,1115,o),
(814,1055,o),
(824,917,c),
(981,917,l),
(977,1133,o),
(862,1238,o),
(621,1246,c),
(621,1441,l),
(501,1441,l)
);
},
{
closed = 1;
nodes = (
(277,989,o),
(332,1097,o),
(501,1120,c),
(501,323,l),
(333,348,o),
(277,456,o),
(277,722,cs)
);
}
);
width = 1086;
}
);
metricLeft = o;
metricRight = c;
note = cent;
unicode = 162;
},
{
color = 3;
glyphname = colonsign;
layers = (
{
background = {
shapes = (
{
closed = 1;
nodes = (
(333,-220,l),
(463,-220,l),
(863,1681,l),
(733,1681,l)
);
},
{
closed = 1;
nodes = (
(1109,248,o),
(970,150,o),
(725,150,cs),
(415,150,o),
(294,309,o),
(294,718,cs),
(294,1130,o),
(423,1290,o),
(754,1290,cs),
(981,1290,o),
(1109,1192,o),
(1109,1018,c),
(1268,1018,l),
(1271,1282,o),
(1086,1431,o),
(754,1431,cs),
(326,1431,o),
(125,1199,o),
(125,713,cs),
(125,235,o),
(319,10,o),
(732,10,cs),
(1079,10,o),
(1271,159,o),
(1268,423,c),
(1109,423,l)
);
},
{
closed = 1;
nodes = (
(623,-220,l),
(753,-220,l),
(1153,1681,l),
(1023,1681,l)
);
}
);
};
guides = (
{
pos = (807,1334);
}
);
layerId = "2F8B9CD4-7B7F-4ACC-ADF3-B6E0F7033A19";
shapes = (
{
closed = 1;
nodes = (
(680,1429,l),
(303,1402,o),
(125,1170,o),
(125,713,cs),
(125,391,o),
(213,184,o),
(397,83,c),
(333,-220,l),
(463,-220,l),
(517,35,l),
(564,23,o),
(616,15,o),
(672,12,c),
(623,-220,l),
(753,-220,l),
(802,12,l),
(1105,31,o),
(1271,177,o),
(1268,423,c),
(1109,423,l),
(1109,275,o),
(1010,183,o),
(832,157,c),
(1049,1189,l),
(1089,1145,o),
(1109,1088,o),
(1109,1018,c),
(1268,1018,l),
(1270,1174,o),
(1206,1290,o),
(1085,1358,c),
(1153,1681,l),
(1023,1681,l),
(965,1406,l),
(918,1419,o),
(867,1426,o),
(810,1430,c),
(863,1681,l),
(733,1681,l)
);
},
{
closed = 1;
nodes = (
(294,1083,o),
(395,1251,o),
(649,1284,c),
(430,240,l),
(335,327,o),
(294,480,o),
(294,718,cs)
);
},
{
closed = 1;
nodes = (
(781,1290,l),
(839,1287,o),
(891,1278,o),
(935,1263,c),
(701,150,l),
(642,152,o),
(591,160,o),
(546,174,c)
);
}
);
width = 1378;
}
);
metricLeft = O;
metricRight = C;
unicode = 8353;
},
{
glyphname = currency;
layers = (
{
layerId = "2F8B9CD4-7B7F-4ACC-ADF3-B6E0F7033A19";
shapes = (
{
closed = 1;
nodes = (
(520,1117,o),
(441,1094,o),
(385,1057,c),
(240,1204,l),
(130,1096,l),
(276,947,l),
(237,871,o),
(219,781,o),
(219,693,cs),
(219,614,o),
(233,538,o),
(264,467,c),
(120,311,l),
(230,204,l),
(360,344,l),
(420,299,o),
(505,275,o),
(621,275,cs),
(737,275,o),
(822,299,o),
(882,344,c),
(1012,204,l),
(1122,311,l),
(978,467,l),
(1009,538,o),
(1023,614,o),
(1023,693,cs),
(1023,781,o),
(1005,871,o),
(966,947,c),
(1112,1096,l),
(1002,1204,l),
(857,1057,l),
(801,1094,o),
(722,1117,o),
(621,1117,cs)
);
},
{
closed = 1;
nodes = (
(434,400,o),
(366,489,o),
(366,693,cs),
(366,892,o),
(422,992,o),
(621,992,cs),
(818,992,o),
(876,895,o),
(876,693,cs),
(876,492,o),
(810,400,o),
(621,400,cs)
);
}
);
width = 1242;
}
);
note = currency;
unicode = 164;
},
{
color = 3;
glyphname = dollar;
layers = (
{
background = {
shapes = (
{
closed = 1;
nodes = (
(150,106,o),
(310,0,o),
(657,0,cs),
(1025,0,o),
(1184,140,o),
(1184,411,cs),
(1184,640,o),
(1049,762,o),
(762,812,cs),
(584,842,ls),
(391,875,o),
(332,944,o),
(332,1073,cs),
(332,1232,o),
(435,1298,o),
(681,1298,cs),
(921,1298,o),
(989,1247,o),
(989,1091,c),
(1148,1091,l),
(1148,1343,o),
(1017,1441,o),
(686,1441,cs),
(325,1441,o),
(158,1309,o),
(158,1068,cs),
(158,845,o),
(289,736,o),
(567,688,cs),
(745,658,ls),
(943,622,o),
(1010,542,o),
(1010,403,cs),
(1010,218,o),
(922,143,o),
(674,143,cs),
(406,143,o),
(315,201,o),
(315,378,c),
(150,378,l)
);
},
{
closed = 1;
nodes = (
(593,-220,l),
(723,-220,l),
(723,1681,l),
(593,1681,l)
);
}
);
};
layerId = "2F8B9CD4-7B7F-4ACC-ADF3-B6E0F7033A19";
shapes = (
{
closed = 1;
nodes = (
(150,123,o),
(290,14,o),
(593,1,c),
(593,-220,l),
(723,-220,l),
(723,2,l),
(1044,18,o),
(1184,157,o),
(1184,411,cs),
(1184,645,o),
(1057,761,o),
(723,819,c),
(723,1297,l),
(929,1291,o),
(989,1237,o),
(989,1091,c),
(1148,1091,l),
(1148,1333,o),
(1027,1433,o),
(723,1441,c),
(723,1681,l),
(593,1681,l),
(593,1438,l),
(296,1416,o),
(158,1287,o),
(158,1068,cs),
(158,849,o),
(273,739,o),
(593,684,c),
(593,145,l),
(387,157,o),
(315,220,o),
(315,378,c),
(150,378,l)
);
},
{
closed = 1;
nodes = (
(332,1212,o),
(410,1279,o),
(593,1295,c),
(593,840,l),
(400,873,o),
(332,936,o),
(332,1073,cs)
);
},
{
closed = 1;
nodes = (
(723,662,l),
(941,622,o),
(1010,550,o),
(1010,403,cs),
(1010,231,o),
(934,154,o),
(723,144,c)
);
}
);
width = 1314;
}
);
metricLeft = S;
metricRight = S;
note = dollar;
unicode = 36;
},
{
color = 3;
glyphname = dong;
layers = (
{
anchors = (
{
name = top;
pos = (588,1011);
}
);
guides = (
{
pos = (1071,1309);
}
);
layerId = "2F8B9CD4-7B7F-4ACC-ADF3-B6E0F7033A19";
shapes = (
{
closed = 1;
nodes = (
(85,-275,l),
(1113,-275,l),
(1113,-159,l),
(85,-159,l)
);
},
{
closed = 1;
nodes = (
(512,1211,l),
(857,1211,l),
(857,898,l),
(790,995,o),
(697,1034,o),
(526,1034,cs),
(250,1034,o),
(120,891,o),
(120,497,cs),
(120,123,o),
(250,-23,o),
(524,-23,cs),
(742,-23,o),
(822,59,o),
(870,134,c),
(888,0,l),
(1011,0,l),
(1011,1211,l),
(1134,1211,l),
(1134,1327,l),
(1011,1327,l),
(1011,1441,l),
(857,1441,l),
(857,1327,l),
(512,1327,l)
);
},
{
closed = 1;
nodes = (
(344,102,o),
(276,196,o),
(276,495,cs),
(276,810,o),
(345,909,o),
(562,909,cs),
(798,909,o),
(857,828,o),
(857,505,cs),
(857,199,o),
(785,102,o),
(559,102,cs)
);
}
);
width = 1293;
}
);
unicode = 8363;
},
{
color = 3;
glyphname = euro;
layers = (
{
background = {
shapes = (
{
closed = 1;
nodes = (
(25,805,l),
(985,805,l),
(985,921,l),
(25,921,l)
);
},
{
closed = 1;
nodes = (
(25,513,l),
(985,513,l),
(985,629,l),
(25,629,l)
);
},
{
closed = 1;
nodes = (
(1271,214,o),
(1124,110,o),
(863,110,cs),
(533,110,o),
(405,279,o),
(405,714,cs),
(405,1152,o),
(542,1322,o),
(894,1322,cs),
(1135,1322,o),
(1271,1218,o),
(1271,1033,c),
(1440,1033,l),
(1444,1314,o),
(1247,1472,o),
(894,1472,cs),
(439,1472,o),
(225,1225,o),
(225,709,cs),
(225,200,o),
(431,-39,o),
(870,-39,cs),
(1239,-39,o),
(1444,119,o),
(1440,400,c),
(1271,400,l)
);
}
);
};
layerId = "2F8B9CD4-7B7F-4ACC-ADF3-B6E0F7033A19";
shapes = (
{
closed = 1;
nodes = (
(25,805,l),
(228,805,l),
(226,774,o),
(225,742,o),
(225,709,cs),
(225,682,o),
(226,655,o),
(227,629,c),
(25,629,l),
(25,513,l),
(237,513,l),
(287,138,o),
(492,-39,o),
(870,-39,cs),
(1239,-39,o),
(1444,119,o),
(1440,400,c),
(1271,400,l),
(1271,214,o),
(1124,110,o),
(863,110,cs),
(590,110,o),
(455,226,o),
(417,513,c),
(985,513,l),
(985,629,l),
(407,629,l),
(406,656,o),
(405,684,o),
(405,714,cs),
(405,746,o),
(406,776,o),
(407,805,c),
(985,805,l),
(985,921,l),
(418,921,l),
(460,1207,o),
(604,1322,o),
(894,1322,cs),
(1135,1322,o),
(1271,1218,o),
(1271,1033,c),
(1440,1033,l),
(1444,1314,o),
(1247,1472,o),
(894,1472,cs),
(507,1472,o),
(294,1293,o),
(239,921,c),
(25,921,l)
);
}
);
width = 1550;
}
);
metricRight = C;
note = Euro;
unicode = 8364;
},
{
color = 3;
glyphname = franc;
layers = (
{
background = {
shapes = (
{
closed = 1;
nodes = (
(25,274,l),
(799,274,l),
(799,390,l),
(25,390,l)
);
},
{
closed = 1;
nodes = (
(399,0,l),
(399,677,l),
(1060,677,l),
(1060,827,l),
(399,827,l),
(399,1289,l),
(1185,1289,l),
(1185,1441,l),
(225,1441,l),
(225,0,l)
);
}
);
};
guides = (
{
pos = (1061,1337);
}
);
layerId = "2F8B9CD4-7B7F-4ACC-ADF3-B6E0F7033A19";
shapes = (
{
closed = 1;
nodes = (
(25,274,l),
(225,274,l),
(225,0,l),
(399,0,l),
(399,274,l),
(799,274,l),
(799,390,l),
(399,390,l),
(399,677,l),
(1060,677,l),
(1060,827,l),
(399,827,l),
(399,1289,l),
(1185,1289,l),
(1185,1441,l),
(225,1441,l),
(225,390,l),
(25,390,l)
);
}
);
width = 1255;
}
);
metricRight = F;
unicode = 8355;
},
{
color = 3;
glyphname = guarani;
layers = (
{
background = {
shapes = (
{
closed = 1;
nodes = (
(996,-39,o),
(1142,45,o),
(1225,224,c),
(1206,238,l),
(1227,-10,l),
(1351,-10,l),
(1351,704,l),
(1003,704,l),
(1003,552,l),
(1177,552,l),
(1177,465,ls),
(1177,238,o),
(1030,110,o),
(770,110,cs),
(433,110,o),
(305,279,o),
(305,714,cs),
(305,1152,o),
(442,1322,o),
(794,1322,cs),
(1035,1322,o),
(1171,1218,o),
(1171,1033,c),
(1340,1033,l),
(1344,1314,o),
(1147,1472,o),
(794,1472,cs),
(339,1472,o),
(125,1225,o),
(125,708,cs),
(125,200,o),
(331,-39,o),
(770,-39,cs)
);
},
{
closed = 1;
nodes = (
(833,-220,l),
(833,1681,l),
(703,1681,l),
(703,-220,l)
);
}
);
};
guides = (
{
pos = (-719,1303);
}
);
layerId = "2F8B9CD4-7B7F-4ACC-ADF3-B6E0F7033A19";
shapes = (
{
closed = 1;
nodes = (
(833,-220,l),
(833,2,l),
(1011,15,o),
(1133,86,o),
(1209,221,c),
(1227,0,l),
(1351,0,l),
(1351,704,l),
(1003,704,l),
(1003,552,l),
(1177,552,l),
(1177,481,ls),
(1177,283,o),
(1054,163,o),
(833,145,c),
(833,1297,l),
(1050,1287,o),
(1171,1189,o),
(1171,1022,c),
(1340,1022,l),
(1344,1280,o),
(1161,1430,o),
(833,1440,c),
(833,1681,l),
(703,1681,l),
(703,1438,l),
(310,1407,o),
(125,1171,o),
(125,713,cs),
(125,253,o),
(310,25,o),
(703,2,c),
(703,-220,l)
);
},
{
closed = 1;
nodes = (
(305,1098,o),
(418,1266,o),
(703,1294,c),
(703,144,l),
(416,166,o),
(305,332,o),
(305,719,cs)
);
}
);
width = 1556;
}
);
metricLeft = O;
metricRight = G;
unicode = 8370;
},
{
color = 3;
glyphname = kip;
layers = (
{
background = {
shapes = (
{
closed = 1;
nodes = (
(25,658,l),
(1285,658,l),
(1285,774,l),
(25,774,l)
);
},
{
closed = 1;
nodes = (
(396,775,l),
(396,1441,l),
(225,1441,l),
(225,0,l),
(396,0,l),
(396,656,l),
(514,656,ls),
(767,656,o),
(829,577,o),
(927,384,cs),
(1123,0,l),
(1316,0,l),
(1120,372,ls),
(988,623,o),
(907,711,o),
(614,725,c),
(614,715,l),
(935,741,o),
(999,838,o),
(1122,1094,cs),
(1289,1441,l),
(1096,1441,l),
(923,1081,ls),
(827,881,o),
(755,775,o),
(514,775,cs)
);
}
);
};
guides = (
{
angle = 180;
pos = (1445,1338);
}
);
layerId = "2F8B9CD4-7B7F-4ACC-ADF3-B6E0F7033A19";
shapes = (
{
closed = 1;
nodes = (
(25,658,l),
(225,658,l),
(225,0,l),
(396,0,l),
(396,656,l),
(514,656,ls),
(767,656,o),
(829,577,o),
(927,384,cs),
(1123,0,l),
(1316,0,l),
(1120,372,ls),
(1045,514,o),
(987,604,o),
(897,658,c),
(1285,658,l),
(1285,774,l),
(874,774,l),
(988,831,o),
(1043,929,o),
(1122,1094,cs),
(1289,1441,l),
(1096,1441,l),
(923,1081,ls),
(827,881,o),
(755,775,o),
(514,775,cs),
(396,775,l),
(396,1441,l),
(225,1441,l),
(225,774,l),
(25,774,l)
);
}
);
width = 1496;
}
);
unicode = 8365;
},
{
color = 3;
glyphname = lira;
layers = (
{
background = {
shapes = (
{
closed = 1;
nodes = (
(154,108,l),
(173,-18,l),
(307,24,o),
(438,35,o),
(511,35,cs),
(684,35,o),
(752,-23,o),
(922,-23,cs),
(1041,-23,o),
(1148,14,o),
(1213,83,c),
(1152,211,l),
(1091,151,o),
(987,121,o),
(913,121,cs),
(786,121,o),
(748,173,o),
(571,173,cs),
(511,173,o),
(380,146,o),
(341,129,c)
);
},
{
closed = 1;
nodes = (
(95,806,l),
(956,806,l),
(956,922,l),
(95,922,l)
);
},
{
closed = 1;
nodes = (
(1156,1127,l),
(1156,1367,o),
(1011,1470,o),
(712,1470,cs),
(402,1470,o),
(243,1311,o),
(243,1069,cs),
(243,815,o),
(418,665,o),
(418,437,cs),
(418,297,o),
(315,178,o),
(154,108,c),
(330,108,l),
(488,156,o),
(582,283,o),
(582,437,cs),
(582,640,o),
(417,870,o),
(417,1075,cs),
(417,1238,o),
(499,1326,o),
(719,1326,cs),
(903,1326,o),
(978,1270,o),
(978,1127,c)
);
},
{
closed = 1;
nodes = (
(95,512,l),
(956,512,l),
(956,628,l),
(95,628,l)
);
}
);
};
layerId = "2F8B9CD4-7B7F-4ACC-ADF3-B6E0F7033A19";
shapes = (
{
closed = 1;
nodes = (
(95,806,l),
(303,806,l),
(328,745,o),
(357,688,o),
(379,628,c),
(95,628,l),
(95,512,l),
(412,512,l),
(416,488,o),
(418,463,o),
(418,437,cs),
(418,297,o),
(315,178,o),
(154,108,c),
(173,-18,l),
(307,24,o),
(438,35,o),
(511,35,cs),
(684,35,o),
(752,-23,o),
(922,-23,cs),
(1041,-23,o),
(1148,14,o),
(1213,83,c),
(1152,211,l),
(1091,151,o),
(987,121,o),
(913,121,cs),
(786,121,o),
(748,173,o),
(571,173,cs),
(537,173,o),
(479,164,o),
(429,154,c),
(527,216,o),
(582,319,o),
(582,437,cs),
(582,462,o),
(580,487,o),
(575,512,c),
(956,512,l),
(956,628,l),
(546,628,l),
(526,687,o),
(502,747,o),
(480,806,c),
(956,806,l),
(956,922,l),
(441,922,l),
(427,974,o),
(417,1025,o),
(417,1075,cs),
(417,1238,o),
(499,1326,o),
(719,1326,cs),
(903,1326,o),
(978,1270,o),
(978,1127,c),
(1156,1127,l),
(1156,1367,o),
(1011,1470,o),
(712,1470,cs),
(402,1470,o),
(243,1311,o),
(243,1069,cs),
(243,1016,o),
(251,968,o),
(263,922,c),
(95,922,l)
);
}
);
width = 1233;
}
);
unicode = 8356;
},
{
color = 3;
glyphname = liraTurkish;
layers = (
{
background = {
shapes = (
{
closed = 1;
nodes = (
(225,-1,l),
(389,-1,l),
(389,1441,l),
(225,1441,l)
);
},
{
closed = 1;
nodes = (
(642,-1,ls),
(1024,-1,o),
(1131,157,o),
(1131,409,cs),
(1131,576,l),
(981,576,l),
(981,460,ls),
(981,197,o),
(902,144,o),
(642,144,cs),
(320,144,l),
(320,-1,l)
);
},
{
closed = 1;
nodes = (
(25,925,l),
(886,1325,l),
(886,1451,l),
(25,1051,l)
);
},
{
closed = 1;
nodes = (
(25,621,l),
(886,1021,l),
(886,1147,l),
(25,747,l)
);
}
);
};
guides = (
{
pos = (-105,1314);
}
);
layerId = "2F8B9CD4-7B7F-4ACC-ADF3-B6E0F7033A19";
shapes = (
{
closed = 1;
nodes = (
(225,1144,l),
(25,1051,l),
(25,925,l),
(225,1018,l),
(225,840,l),
(25,747,l),
(25,621,l),
(225,714,l),
(225,-1,l),
(642,-1,ls),
(1024,-1,o),
(1131,157,o),
(1131,409,cs),
(1131,576,l),
(981,576,l),
(981,460,ls),
(981,197,o),
(902,144,o),
(642,144,cs),
(389,144,l),
(389,790,l),
(886,1021,l),
(886,1147,l),
(389,916,l),
(389,1094,l),
(886,1325,l),
(886,1451,l),
(389,1220,l),
(389,1441,l),
(225,1441,l)
);
}
);
width = 1161;
}
);
unicode = 8378;
},
{
color = 3;
glyphname = manat;
layers = (
{
background = {
shapes = (
{
closed = 1;
nodes = (
(384,1144,o),
(530,1296,o),
(790,1296,cs),
(1049,1296,o),
(1195,1144,o),
(1195,874,cs),
(1195,0,l),
(1369,0,l),
(1369,859,ls),
(1369,1231,o),
(1161,1441,o),
(790,1441,cs),
(419,1441,o),
(210,1231,o),
(210,859,cs),
(210,0,l),
(384,0,l),
(384,874,ls)
);
},
{
closed = 1;
nodes = (
(725,0,l),
(855,0,l),
(855,1681,l),
(725,1681,l)
);
}
);
};
guides = (
{
pos = (962,1305);
}
);
layerId = "2F8B9CD4-7B7F-4ACC-ADF3-B6E0F7033A19";
shapes = (
{
closed = 1;
nodes = (
(384,1121,o),
(506,1269,o),
(725,1293,c),
(725,0,l),
(855,0,l),
(855,1293,l),
(1073,1269,o),
(1195,1121,o),
(1195,874,cs),
(1195,0,l),
(1369,0,l),
(1369,859,ls),
(1369,1209,o),
(1185,1415,o),
(855,1439,c),
(855,1681,l),
(725,1681,l),
(725,1439,l),
(395,1415,o),
(210,1209,o),
(210,859,cs),
(210,0,l),
(384,0,l),
(384,874,ls)
);
}
);
width = 1579;
}
);
metricLeft = U;
metricRight = U;
unicode = 8380;
},
{
color = 3;
glyphname = naira;
layers = (
{
background = {
shapes = (
{
closed = 1;
nodes = (
(381,0,l),
(381,1285,l),
(413,1285,l),
(1204,0,l),
(1467,0,l),
(1467,1441,l),
(1311,1441,l),
(1311,173,l),
(1279,173,l),
(498,1441,l),
(225,1441,l),
(225,0,l)
);
},
{
closed = 1;
nodes = (
(25,805,l),
(1667,805,l),
(1667,921,l),
(25,921,l)
);
},
{
closed = 1;
nodes = (
(25,513,l),
(1667,513,l),
(1667,629,l),
(25,629,l)
);
}
);
};
guides = (
{
pos = (1358,1297);
}
);
layerId = "2F8B9CD4-7B7F-4ACC-ADF3-B6E0F7033A19";
shapes = (
{
closed = 1;
nodes = (
(381,0,l),
(381,513,l),
(888,513,l),
(1204,0,l),
(1467,0,l),
(1467,513,l),
(1667,513,l),
(1667,629,l),
(1467,629,l),
(1467,805,l),
(1667,805,l),
(1667,921,l),
(1467,921,l),
(1467,1441,l),
(1311,1441,l),
(1311,921,l),
(818,921,l),
(498,1441,l),
(225,1441,l),
(225,921,l),
(25,921,l),
(25,805,l),
(225,805,l),
(225,629,l),
(25,629,l),
(25,513,l),
(225,513,l),
(225,0,l)
);
},
{
closed = 1;
nodes = (
(381,805,l),
(708,805,l),
(817,629,l),
(381,629,l)
);
},
{
closed = 1;
nodes = (
(381,1285,l),
(413,1285,l),
(637,921,l),
(381,921,l)
);
},
{
closed = 1;
nodes = (
(1311,805,l),
(1311,629,l),
(998,629,l),
(890,805,l)
);
},
{
closed = 1;
nodes = (
(1311,513,l),
(1311,173,l),
(1279,173,l),
(1070,513,l)
);
}
);
width = 1692;
}
);
unicode = 8358;
},
{
color = 3;
glyphname = peseta;
layers = (
{
background = {
shapes = (
{
closed = 1;
nodes = (
(399,0,l),
(399,524,l),
(664,524,ls),
(1073,524,o),
(1232,643,o),
(1232,980,cs),
(1232,1338,o),
(1096,1441,o),
(664,1441,cs),
(225,1441,l),
(225,0,l)
);
},
{
closed = 1;
nodes = (
(983,670,o),
(664,670,cs),
(399,670,l),
(399,1300,l),
(664,1300,ls),
(983,1300,o),
(1059,1242,o),
(1059,980,cs),
(1059,726,o)
);
},
{
closed = 1;
nodes = (
(25,927,l),
(1442,927,l),
(1442,1043,l),
(25,1043,l)
);
}
);
};
layerId = "2F8B9CD4-7B7F-4ACC-ADF3-B6E0F7033A19";
shapes = (
{
closed = 1;
nodes = (
(399,0,l),
(399,524,l),
(664,524,ls),
(1051,524,o),
(1214,630,o),
(1231,927,c),
(1442,927,l),
(1442,1043,l),
(1230,1043,l),
(1214,1350,o),
(1070,1441,o),
(664,1441,cs),
(225,1441,l),
(225,1043,l),
(25,1043,l),
(25,927,l),
(225,927,l),
(225,0,l)
);
},
{
closed = 1;
nodes = (
(399,927,l),
(1058,927,l),
(1046,718,o),
(959,670,o),
(664,670,cs),
(399,670,l)
);
},
{
closed = 1;
nodes = (
(399,1300,l),
(664,1300,ls),
(956,1300,o),
(1044,1252,o),
(1057,1043,c),
(399,1043,l)
);
}
);
width = 1467;
}
);
unicode = 8359;
},
{
color = 3;
glyphname = peso;
layers = (
{
background = {
shapes = (
{
closed = 1;
nodes = (
(399,0,l),
(399,504,l),
(664,504,ls),
(1073,504,o),
(1232,633,o),
(1232,970,cs),
(1232,1328,o),
(1096,1441,o),
(664,1441,cs),
(225,1441,l),
(225,0,l)
);
},
{
closed = 1;
nodes = (
(983,650,o),
(664,650,cs),
(399,650,l),
(399,1300,l),
(664,1300,ls),
(983,1300,o),
(1059,1232,o),
(1059,970,cs),
(1059,716,o)
);
},
{
closed = 1;
nodes = (
(25,1063,l),
(1442,1063,l),
(1442,1179,l),
(25,1179,l)
);
},
{
closed = 1;
nodes = (
(25,771,l),
(1442,771,l),
(1442,887,l),
(25,887,l)
);
}
);
};
layerId = "2F8B9CD4-7B7F-4ACC-ADF3-B6E0F7033A19";
shapes = (
{
closed = 1;
nodes = (
(399,0,l),
(399,504,l),
(664,504,ls),
(980,504,o),
(1147,581,o),
(1206,771,c),
(1442,771,l),
(1442,887,l),
(1228,887,l),
(1231,913,o),
(1232,941,o),
(1232,970,cs),
(1232,1003,o),
(1231,1034,o),
(1228,1063,c),
(1442,1063,l),
(1442,1179,l),
(1209,1179,l),
(1154,1374,o),
(997,1441,o),
(664,1441,cs),
(225,1441,l),
(225,1179,l),
(25,1179,l),
(25,1063,l),
(225,1063,l),
(225,887,l),
(25,887,l),
(25,771,l),
(225,771,l),
(225,0,l)
);
},
{
closed = 1;
nodes = (
(1059,940,o),
(1058,912,o),
(1055,887,c),
(399,887,l),
(399,1063,l),
(1055,1063,l),
(1058,1035,o),
(1059,1004,o),
(1059,970,cs)
);
},
{
closed = 1;
nodes = (
(399,771,l),
(1026,771,l),
(979,679,o),
(874,650,o),
(664,650,cs),
(399,650,l)
);
},
{
closed = 1;
nodes = (
(399,1300,l),
(664,1300,ls),
(872,1300,o),
(976,1271,o),
(1024,1179,c),
(399,1179,l)
);
}
);
width = 1467;
}
);
unicode = 8369;
},
{
color = 3;
glyphname = ruble;
lastChange = "2023-01-25 11:11:56 +0000";
layers = (
{
background = {
shapes = (
{
closed = 1;
nodes = (
(399,0,l),
(399,524,l),
(664,524,ls),
(1073,524,o),
(1232,643,o),
(1232,980,cs),
(1232,1338,o),
(1096,1441,o),
(664,1441,cs),
(225,1441,l),
(225,0,l)
);
},
{
closed = 1;
nodes = (
(983,670,o),
(664,670,cs),
(399,670,l),
(399,1300,l),
(664,1300,ls),
(983,1300,o),
(1059,1242,o),
(1059,980,cs),
(1059,726,o)
);
},
{
closed = 1;
nodes = (
(25,554,l),
(1442,554,l),
(1442,670,l),
(25,670,l)
);
},
{
closed = 1;
nodes = (
(25,262,l),
(1442,262,l),
(1442,378,l),
(25,378,l)
);
}
);
};
layerId = "2F8B9CD4-7B7F-4ACC-ADF3-B6E0F7033A19";
shapes = (
{
closed = 1;
nodes = (
(399,0,l),
(399,554,l),
(744,554,ls),
(1113,554,o),
(1232,669,o),
(1232,995,cs),
(1232,1341,o),
(1096,1441,o),
(664,1441,cs),
(225,1441,l),
(225,0,l)
);
},
{
closed = 1;
nodes = (
(942,262,l),
(942,378,l),
(25,378,l),
(25,262,l)
);
},
{
closed = 1;
nodes = (
(542,554,l),
(542,670,l),
(25,670,l),
(25,554,l)
);
},
{
closed = 1;
nodes = (
(399,1300,l),
(664,1300,ls),
(983,1300,o),
(1059,1242,o),
(1059,980,cs),
(1059,726,o),
(983,670,o),
(664,670,cs),
(399,670,l)
);
}
);
width = 1342;
}
);
metricRight = P;
unicode = 8381;
},
{
color = 3;
glyphname = rupeeIndian;
layers = (
{
background = {
shapes = (
{
closed = 1;
nodes = (
(65,1325,l),
(402,1325,ls),
(652,1325,o),
(725,1260,o),
(725,1056,cs),
(725,860,o),
(611,785,o),
(393,785,cs),
(65,785,l),
(65,639,l),
(353,639,ls),
(578,639,o),
(640,584,o),
(686,371,cs),
(767,0,l),
(943,0,l),
(847,432,ls),
(799,646,o),
(773,682,o),
(548,725,c),
(555,699,l),
(787,739,o),
(898,858,o),
(898,1050,cs),
(898,1318,o),
(770,1418,o),
(366,1418,cs),
(65,1418,l)
);
},
{
closed = 1;
nodes = (
(65,1325,l),
(1098,1325,l),
(1098,1441,l),
(65,1441,l)
);
},
{
closed = 1;
nodes = (
(65,1033,l),
(1098,1033,l),
(1098,1149,l),
(65,1149,l)
);
}
);
};
layerId = "2F8B9CD4-7B7F-4ACC-ADF3-B6E0F7033A19";
shapes = (
{
closed = 1;
nodes = (
(65,1325,l),
(402,1325,ls),
(609,1325,o),
(695,1280,o),
(718,1149,c),
(65,1149,l),
(65,1033,l),
(724,1033,l),
(716,854,o),
(602,785,o),
(393,785,cs),
(65,785,l),
(65,639,l),
(353,639,ls),
(578,639,o),
(629,582,o),
(686,371,cs),
(787,0,l),
(963,0,l),
(847,432,ls),
(796,621,o),
(750,679,o),
(613,711,c),
(799,759,o),
(892,867,o),
(898,1033,c),
(1098,1033,l),
(1098,1149,l),
(891,1149,l),
(878,1225,o),
(849,1283,o),
(796,1325,c),
(1098,1325,l),
(1098,1441,l),
(65,1441,l)
);
}
);
width = 1123;
}
);
unicode = 8377;
},
{
color = 3;
glyphname = sterling;
layers = (
{
background = {
shapes = (
{
closed = 1;
nodes = (
(154,108,l),
(173,-18,l),
(307,24,o),
(438,35,o),
(511,35,cs),
(684,35,o),
(752,-23,o),
(922,-23,cs),
(1041,-23,o),
(1148,14,o),
(1213,83,c),
(1152,211,l),
(1091,151,o),
(987,121,o),
(913,121,cs),
(786,121,o),
(748,173,o),
(571,173,cs),
(511,173,o),
(380,146,o),
(341,129,c)
);
},
{
closed = 1;
nodes = (
(1156,1127,l),
(1156,1367,o),
(1011,1470,o),
(712,1470,cs),
(402,1470,o),
(243,1311,o),
(243,1069,cs),
(243,815,o),
(418,665,o),
(418,437,cs),
(418,297,o),
(315,178,o),
(154,108,c),
(330,108,l),
(488,156,o),
(582,283,o),
(582,437,cs),
(582,640,o),
(417,870,o),
(417,1075,cs),
(417,1238,o),
(499,1326,o),
(719,1326,cs),
(903,1326,o),
(978,1270,o),
(978,1127,c)
);
},
{
closed = 1;
nodes = (
(95,666,l),
(956,666,l),
(956,782,l),
(95,782,l)
);
}
);
};
layerId = "2F8B9CD4-7B7F-4ACC-ADF3-B6E0F7033A19";
shapes = (
{
closed = 1;
nodes = (
(1156,1127,l),
(1156,1367,o),
(1011,1470,o),
(712,1470,cs),
(402,1470,o),
(243,1311,o),
(243,1069,cs),
(243,959,o),
(276,868,o),
(313,782,c),
(95,782,l),
(95,666,l),
(364,666,l),
(394,594,o),
(418,521,o),
(418,437,cs),
(418,297,o),
(315,178,o),
(154,108,c),
(173,-18,l),
(307,24,o),
(438,35,o),
(511,35,cs),
(684,35,o),
(752,-23,o),
(922,-23,cs),
(1041,-23,o),
(1148,14,o),
(1213,83,c),
(1152,211,l),
(1091,151,o),
(987,121,o),
(913,121,cs),
(786,121,o),
(748,173,o),
(571,173,cs),
(537,173,o),
(479,164,o),
(429,154,c),
(527,216,o),
(582,319,o),
(582,437,cs),
(582,511,o),
(560,588,o),
(533,666,c),
(956,666,l),
(956,782,l),
(489,782,l),
(452,882,o),
(417,981,o),
(417,1075,cs),
(417,1238,o),
(499,1326,o),
(719,1326,cs),
(903,1326,o),
(978,1270,o),
(978,1127,c)
);
}
);
width = 1233;
}
);
note = sterling;
unicode = 163;
},
{
color = 3;
glyphname = won;
layers = (
{
background = {
shapes = (
{
closed = 1;
nodes = (
(461,0,l),
(675,0,l),
(971,1235,l),
(1006,1235,l),
(1291,0,l),
(1505,0,l),
(1857,1441,l),
(1693,1441,l),
(1408,193,l),
(1379,193,l),
(1319,474,l),
(1096,1441,l),
(871,1441,l),
(647,476,l),
(589,194,l),
(560,194,l),
(274,1441,l),
(110,1441,l)
);
},
{
closed = 1;
nodes = (
(25,806,l),
(1942,806,l),
(1942,922,l),
(25,922,l)
);
},
{
closed = 1;
nodes = (
(25,512,l),
(1942,512,l),
(1942,628,l),
(25,628,l)
);
}
);
};
guides = (
{
pos = (1397,1308);
}
);
layerId = "2F8B9CD4-7B7F-4ACC-ADF3-B6E0F7033A19";
shapes = (
{
closed = 1;
nodes = (
(236,922,l),
(25,922,l),
(25,806,l),
(265,806,l),
(308,628,l),
(25,628,l),
(25,512,l),
(336,512,l),
(461,0,l),
(675,0,l),
(798,512,l),
(1173,512,l),
(1291,0,l),
(1505,0,l),
(1630,512,l),
(1942,512,l),
(1942,628,l),
(1658,628,l),
(1702,806,l),
(1942,806,l),
(1942,922,l),
(1730,922,l),
(1857,1441,l),
(1693,1441,l),
(1574,922,l),
(1216,922,l),
(1096,1441,l),
(871,1441,l),
(751,922,l),
(393,922,l),
(274,1441,l),
(110,1441,l)
);
},
{
closed = 1;
nodes = (
(724,806,l),
(682,628,l),
(460,628,l),
(420,806,l)
);
},
{
closed = 1;
nodes = (
(655,512,l),
(589,194,l),
(560,194,l),
(487,512,l)
);
},
{
closed = 1;
nodes = (
(868,806,l),
(1105,806,l),
(1146,628,l),
(826,628,l)
);
},
{
closed = 1;
nodes = (
(971,1235,l),
(1006,1235,l),
(1078,922,l),
(896,922,l)
);
},
{
closed = 1;
nodes = (
(1548,806,l),
(1507,628,l),
(1283,628,l),
(1242,806,l)
);
},
{
closed = 1;
nodes = (
(1481,512,l),
(1408,193,l),
(1379,193,l),
(1310,512,l)
);
}
);
width = 1967;
}
);
unicode = 8361;
},
{
color = 3;
glyphname = yen;
layers = (
{
anchors = (
{
name = topleft;
pos = (18,1441);
}
);
background = {
shapes = (
{
closed = 1;
nodes = (
(657,0,l),
(657,596,l),
(1150,1441,l),
(969,1441,l),
(585,773,l),
(557,773,l),
(178,1441,l),
(-6,1441,l),
(483,596,l),
(483,0,l)
);
},
{
closed = 1;
nodes = (
(140,596,l),
(1000,596,l),
(1000,712,l),
(140,712,l)
);
},
{
closed = 1;
nodes = (
(140,302,l),
(1000,302,l),
(1000,418,l),
(140,418,l)
);
}
);
};
layerId = "2F8B9CD4-7B7F-4ACC-ADF3-B6E0F7033A19";
shapes = (
{
closed = 1;
nodes = (
(657,0,l),
(657,302,l),
(1000,302,l),
(1000,418,l),
(657,418,l),
(657,596,l),
(1000,596,l),
(1000,712,l),
(725,712,l),
(1150,1441,l),
(969,1441,l),
(585,773,l),
(557,773,l),
(178,1441,l),
(-6,1441,l),
(416,712,l),
(140,712,l),
(140,596,l),
(483,596,l),
(483,418,l),
(140,418,l),
(140,302,l),
(483,302,l),
(483,0,l)
);
}
);
width = 1144;
}
);
note = yen;
unicode = 165;
},
{
color = 3;
glyphname = bulletoperator;
lastChange = "2023-01-25 11:11:24 +0000";
layers = (
{
layerId = "2F8B9CD4-7B7F-4ACC-ADF3-B6E0F7033A19";
shapes = (
{
closed = 1;
nodes = (
(829,299,o),
(899,380,o),
(899,592,c),
(899,802,o),
(829,885,o),
(611,885,c),
(394,885,o),
(300,802,o),
(300,592,c),
(300,380,o),
(394,299,o),
(611,299,c)
);
}
);
width = 1200;
}
);
unicode = 8729;
},
{
color = 3;
glyphname = commercialMinusSign;
layers = (
{
layerId = "2F8B9CD4-7B7F-4ACC-ADF3-B6E0F7033A19";
shapes = (
{
closed = 1;
nodes = (
(475,-171,l),
(873,1597,l),
(726,1624,l),
(330,-143,l)
);
},
{
closed = 1;
nodes = (
(702,-20,l),
(927,-20,l),
(927,192,l),
(702,192,l)
);
},
{
closed = 1;
nodes = (
(499,1473,l),
(274,1473,l),
(274,1261,l),
(499,1261,l)
);
}
);
width = 1200;
}
);
unicode = 8274;
},
{
color = 3;
glyphname = divisionslash;
layers = (
{
layerId = "2F8B9CD4-7B7F-4ACC-ADF3-B6E0F7033A19";
shapes = (
{
closed = 1;
nodes = (
(473,-171,l),
(871,1597,l),
(724,1624,l),
(328,-143,l)
);
}
);
width = 1200;
}
);
unicode = 8725;
},
{
color = 3;
glyphname = plus;
layers = (
{
background = {
shapes = (
{
closed = 1;
nodes = (
(1088,735,l),
(113,735,l),
(113,583,l),
(1088,583,l)
);
},
{
closed = 1;
nodes = (
(679,172,l),
(679,1147,l),
(523,1147,l),
(523,172,l)
);
}
);
};
guides = (
{
pos = (652,658);
}
);
layerId = "2F8B9CD4-7B7F-4ACC-ADF3-B6E0F7033A19";
shapes = (
{
closed = 1;
nodes = (
(1088,735,l),
(679,735,l),
(679,1147,l),
(523,1147,l),
(523,735,l),
(113,735,l),
(113,583,l),
(523,583,l),
(523,172,l),
(679,172,l),
(679,583,l),
(1088,583,l)
);
}
);
width = 1200;
}
);
note = plus;
unicode = 43;
},
{
color = 3;
glyphname = minus;
layers = (
{
layerId = "2F8B9CD4-7B7F-4ACC-ADF3-B6E0F7033A19";
shapes = (
{
closed = 1;
nodes = (
(1088,735,l),
(113,735,l),
(113,583,l),
(1088,583,l)
);
}
);
width = 1200;
}
);
note = minus;
unicode = 8722;
},
{
color = 3;
glyphname = multiply;
layers = (
{
layerId = "2F8B9CD4-7B7F-4ACC-ADF3-B6E0F7033A19";
shapes = (
{
closed = 1;
nodes = (
(1059,308,l),
(707,660,l),
(1058,1011,l),
(952,1117,l),
(601,766,l),
(250,1117,l),
(142,1010,l),
(494,659,l),
(143,308,l),
(249,202,l),
(600,553,l),
(951,201,l)
);
}
);
width = 1200;
}
);
note = multiply;
unicode = 215;
},
{
color = 3;
glyphname = divide;
layers = (
{
background = {
shapes = (
{
closed = 1;
nodes = (
(771,233,l),
(771,454,l),
(560,454,l),
(560,233,l)
);
},
{
closed = 1;
nodes = (
(771,792,l),
(771,1013,l),
(560,1013,l),
(560,792,l)
);
}
);
};
layerId = "2F8B9CD4-7B7F-4ACC-ADF3-B6E0F7033A19";
shapes = (
{
closed = 1;
nodes = (
(706,118,l),
(706,339,l),
(495,339,l),
(495,118,l)
);
},
{
closed = 1;
nodes = (
(1088,735,l),
(113,735,l),
(113,583,l),
(1088,583,l)
);
},
{
closed = 1;
nodes = (
(495,979,l),
(706,979,l),
(706,1200,l),
(495,1200,l)
);
}
);
width = 1200;
}
);
note = divide;
unicode = 247;
},
{
color = 3;
glyphname = equal;
layers = (
{
background = {
shapes = (
{
closed = 1;
nodes = (
(967,557,l),
(234,557,l),
(234,436,l),
(967,436,l)
);
},
{
closed = 1;
nodes = (
(967,817,l),
(234,817,l),
(234,698,l),
(967,698,l)
);
}
);
};
layerId = "2F8B9CD4-7B7F-4ACC-ADF3-B6E0F7033A19";
shapes = (
{
closed = 1;
nodes = (
(1088,534,l),
(113,534,l),
(113,379,l),
(1088,379,l)
);
},
{
closed = 1;
nodes = (
(1088,930,l),
(113,930,l),
(113,778,l),
(1088,778,l)
);
}
);
width = 1200;
}
);
note = equal;
unicode = 61;
},
{
color = 3;
glyphname = notequal;
layers = (
{
layerId = "2F8B9CD4-7B7F-4ACC-ADF3-B6E0F7033A19";
shapes = (
{
closed = 1;
nodes = (
(1088,532,l),
(630,532,l),
(752,780,l),
(1088,780,l),
(1088,930,l),
(825,930,l),
(935,1155,l),
(819,1211,l),
(682,930,l),
(113,930,l),
(113,780,l),
(608,780,l),
(487,532,l),
(113,532,l),
(113,379,l),
(412,379,l),
(267,82,l),
(383,26,l),
(556,379,l),
(1088,379,l)
);
}
);
width = 1200;
}
);
note = notequal;
unicode = 8800;
},
{
color = 3;
glyphname = greater;
layers = (
{
layerId = "2F8B9CD4-7B7F-4ACC-ADF3-B6E0F7033A19";
shapes = (
{
closed = 1;
nodes = (
(201,1194,l),
(131,1034,l),
(825,660,l),
(131,288,l),
(201,127,l),
(1074,619,l),
(1074,705,l)
);
}
);
width = 1200;
}
);
note = greater;
unicode = 62;
},
{
color = 3;
glyphname = less;
layers = (
{
background = {
shapes = (
{
closed = 1;
nodes = (
(129,551,l),
(952,59,l),
(1032,170,l),
(318,592,l),
(1032,1016,l),
(952,1126,l),
(129,637,l)
);
}
);
};
layerId = "2F8B9CD4-7B7F-4ACC-ADF3-B6E0F7033A19";
shapes = (
{
closed = 1;
nodes = (
(1004,127,l),
(1074,287,l),
(380,661,l),
(1074,1033,l),
(1004,1194,l),
(131,702,l),
(131,616,l)
);
}
);
width = 1200;
}
);
note = less;
unicode = 60;
},
{
color = 3;
glyphname = greaterequal;
layers = (
{
background = {
shapes = (
{
closed = 1;
nodes = (
(78,1211,l),
(1088,764,l),
(1078,760,l),
(78,311,l),
(78,182,l),
(1207,697,l),
(1207,825,l),
(78,1341,l)
);
},
{
closed = 1;
nodes = (
(1207,86,l),
(78,86,l),
(78,-24,l),
(1207,-24,l)
);
}
);
};
layerId = "2F8B9CD4-7B7F-4ACC-ADF3-B6E0F7033A19";
shapes = (
{
closed = 1;
nodes = (
(198,1384,l),
(128,1224,l),
(822,880,l),
(128,538,l),
(198,377,l),
(1071,839,l),
(1071,925,l)
);
},
{
closed = 1;
nodes = (
(1088,0,l),
(1088,152,l),
(113,152,l),
(113,0,l)
);
}
);
width = 1200;
}
);
note = greaterequal;
unicode = 8805;
},
{
color = 3;
glyphname = lessequal;
layers = (
{
background = {
shapes = (
{
closed = 1;
nodes = (
(99,825,l),
(99,697,l),
(1228,182,l),
(1228,311,l),
(228,760,l),
(218,764,l),
(1228,1211,l),
(1228,1341,l)
);
},
{
closed = 1;
nodes = (
(1228,-24,l),
(1228,86,l),
(99,86,l),
(99,-24,l)
);
}
);
};
layerId = "2F8B9CD4-7B7F-4ACC-ADF3-B6E0F7033A19";
shapes = (
{
closed = 1;
nodes = (
(1088,0,l),
(1088,152,l),
(113,152,l),
(113,0,l)
);
},
{
closed = 1;
nodes = (
(129,839,l),
(1002,377,l),
(1072,538,l),
(378,880,l),
(1072,1224,l),
(1002,1384,l),
(129,925,l)
);
}
);
width = 1200;
}
);
note = lessequal;
unicode = 8804;
},
{
color = 3;
glyphname = plusminus;
layers = (
{
background = {
shapes = (
{
closed = 1;
nodes = (
(524,764,l),
(104,764,l),
(104,610,l),
(524,610,l),
(524,299,l),
(678,299,l),
(678,610,l),
(1096,610,l),
(1096,764,l),
(678,764,l),
(678,1075,l),
(524,1075,l)
);
},
{
closed = 1;
nodes = (
(1096,20,l),
(1096,174,l),
(104,174,l),
(104,20,l)
);
}
);
};
layerId = "2F8B9CD4-7B7F-4ACC-ADF3-B6E0F7033A19";
shapes = (
{
closed = 1;
nodes = (
(1088,945,l),
(679,945,l),
(679,1377,l),
(523,1377,l),
(523,945,l),
(113,945,l),
(113,793,l),
(523,793,l),
(523,362,l),
(679,362,l),
(679,793,l),
(1088,793,l)
);
},
{
closed = 1;
nodes = (
(1088,152,l),
(113,152,l),
(113,0,l),
(1088,0,l)
);
}
);
width = 1200;
}
);
note = plusminus;
unicode = 177;
},
{
color = 3;
glyphname = approxequal;
lastChange = "2023-01-25 11:11:24 +0000";
layers = (
{
layerId = "2F8B9CD4-7B7F-4ACC-ADF3-B6E0F7033A19";
shapes = (
{
closed = 1;
nodes = (
(1133,714,o),
(1252,798,o),
(1341,955,c),
(1237,1045,l),
(1185,964,o),
(1118,888,o),
(1009,888,cs),
(944,888,o),
(880,912,o),
(777,971,cs),
(675,1029,o),
(594,1068,o),
(502,1068,cs),
(361,1068,o),
(242,984,o),
(153,827,c),
(257,737,l),
(309,818,o),
(376,894,o),
(485,894,cs),
(550,894,o),
(614,870,o),
(717,811,cs),
(819,753,o),
(900,714,o),
(992,714,cs)
);
},
{
closed = 1;
nodes = (
(1133,384,o),
(1252,468,o),
(1341,625,c),
(1237,715,l),
(1185,634,o),
(1118,558,o),
(1009,558,cs),
(944,558,o),
(880,582,o),
(777,641,cs),
(675,699,o),
(594,738,o),
(502,738,cs),
(361,738,o),
(242,654,o),
(153,497,c),
(257,407,l),
(309,488,o),
(376,564,o),
(485,564,cs),
(550,564,o),
(614,540,o),
(717,481,cs),
(819,423,o),
(900,384,o),
(992,384,cs)
);
}
);
width = 1494;
}
);
note = approxequal;
unicode = 8776;
},
{
color = 3;
glyphname = asciitilde;
lastChange = "2023-01-25 11:11:24 +0000";
layers = (
{
background = {
shapes = (
{
closed = 1;
nodes = (
(243,534,o),
(260,567,o),
(282,591,cs),
(304,615,o),
(329,629,o),
(364,629,cs),
(378,629,o),
(395,625,o),
(415,617,cs),
(454,601,o),
(501,576,o),
(552,548,c),
(577,533,o),
(603,520,o),
(630,508,cs),
(682,484,o),
(734,466,o),
(782,466,cs),
(861,466,o),
(918,497,o),
(958,541,cs),
(998,585,o),
(1021,641,o),
(1030,692,c),
(919,748,l),
(904,712,o),
(892,679,o),
(873,656,cs),
(853,632,o),
(827,618,o),
(787,618,cs),
(770,618,o),
(752,622,o),
(732,631,cs),
(691,648,o),
(644,675,o),
(594,705,cs),
(569,720,o),
(543,733,o),
(517,746,cs),
(464,771,o),
(410,791,o),
(358,791,cs),
(281,791,o),
(227,755,o),
(188,707,cs),
(149,659,o),
(128,598,o),
(116,547,c),
(227,494,l)
);
}
);
};
layerId = "2F8B9CD4-7B7F-4ACC-ADF3-B6E0F7033A19";
shapes = (
{
closed = 1;
nodes = (
(1133,549,o),
(1252,633,o),
(1341,790,c),
(1237,880,l),
(1185,799,o),
(1118,723,o),
(1009,723,cs),
(944,723,o),
(880,747,o),
(777,806,cs),
(675,864,o),
(594,903,o),
(502,903,cs),
(361,903,o),
(242,819,o),
(153,662,c),
(257,572,l),
(309,653,o),
(376,729,o),
(485,729,cs),
(550,729,o),
(614,705,o),
(717,646,cs),
(819,588,o),
(900,549,o),
(992,549,cs)
);
}
);
width = 1494;
}
);
note = asciitilde;
unicode = 126;
},
{
color = 3;
glyphname = logicalnot;
layers = (
{
layerId = "2F8B9CD4-7B7F-4ACC-ADF3-B6E0F7033A19";
shapes = (
{
closed = 1;
nodes = (
(1262,905,l),
(153,905,l),
(153,752,l),
(1108,752,l),
(1108,220,l),
(1262,220,l)
);
}
);
width = 1415;
}
);
note = logicalnot;
unicode = 172;
},
{
color = 3;
glyphname = asciicircum;
layers = (
{
layerId = "2F8B9CD4-7B7F-4ACC-ADF3-B6E0F7033A19";
shapes = (
{
closed = 1;
nodes = (
(293,586,l),
(602,1265,l),
(907,586,l),
(1071,586,l),
(680,1452,l),
(521,1452,l),
(129,586,l)
);
}
);
width = 1200;
}
);
note = asciicircum;
unicode = 94;
},
{
color = 3;
glyphname = infinity;
layers = (
{
background = {
shapes = (
{
closed = 1;
nodes = (
(724,578,o),
(624,504,o),
(534,504,cs),
(390,504,o),
(321,595,o),
(321,721,cs),
(321,853,o),
(387,954,o),
(520,954,cs),
(655,954,o),
(734,859,o),
(891,676,cs),
(1098,436,o),
(1215,357,o),
(1385,357,cs),
(1601,357,o),
(1744,517,o),
(1744,731,cs),
(1744,933,o),
(1603,1098,o),
(1384,1098,cs),
(1221,1098,o),
(1099,1016,o),
(888,766,cs)
);
},
{
closed = 1;
nodes = (
(1168,875,o),
(1268,951,o),
(1360,951,cs),
(1504,951,o),
(1573,860,o),
(1573,734,cs),
(1573,602,o),
(1507,501,o),
(1374,501,cs),
(1239,501,o),
(1160,596,o),
(1003,779,cs),
(796,1019,o),
(679,1098,o),
(509,1098,cs),
(293,1098,o),
(150,938,o),
(150,724,cs),
(150,522,o),
(291,357,o),
(510,357,cs),
(671,357,o),
(791,436,o),
(1009,685,cs)
);
}
);
};
layerId = "2F8B9CD4-7B7F-4ACC-ADF3-B6E0F7033A19";
shapes = (
{
closed = 1;
nodes = (
(150,522,o),
(291,357,o),
(510,357,cs),
(655,357,o),
(766,421,o),
(945,614,c),
(1120,422,o),
(1230,357,o),
(1385,357,cs),
(1601,357,o),
(1744,517,o),
(1744,731,cs),
(1744,933,o),
(1603,1098,o),
(1384,1098,cs),
(1238,1098,o),
(1125,1032,o),
(951,838,c),
(775,1032,o),
(664,1098,o),
(509,1098,cs),
(293,1098,o),
(150,938,o),
(150,724,cs)
);
},
{
closed = 1;
nodes = (
(321,853,o),
(387,954,o),
(520,954,cs),
(643,954,o),
(719,875,o),
(850,723,c),
(708,567,o),
(617,504,o),
(534,504,cs),
(390,504,o),
(321,595,o),
(321,721,cs)
);
},
{
closed = 1;
nodes = (
(1184,887,o),
(1275,951,o),
(1360,951,cs),
(1504,951,o),
(1573,860,o),
(1573,734,cs),
(1573,602,o),
(1507,501,o),
(1374,501,cs),
(1252,501,o),
(1176,579,o),
(1046,729,c)
);
}
);
width = 1894;
}
);
note = infinity;
unicode = 8734;
},
{
color = 3;
glyphname = integral;
layers = (
{
layerId = "2F8B9CD4-7B7F-4ACC-ADF3-B6E0F7033A19";
shapes = (
{
closed = 1;
nodes = (
(305,67,ls),
(305,-210,o),
(287,-256,o),
(48,-256,c),
(48,-389,l),
(424,-389,o),
(451,-239,o),
(451,51,cs),
(451,1382,ls),
(451,1659,o),
(469,1705,o),
(705,1705,c),
(705,1838,l),
(332,1838,o),
(305,1688,o),
(305,1398,c)
);
}
);
width = 778;
}
);
note = integral;
unicode = 8747;
},
{
color = 3;
glyphname = increment;
lastChange = "2023-01-25 11:11:24 +0000";
layers = (
{
background = {
shapes = (
{
closed = 1;
nodes = (
(1545,0,l),
(1545,141,l),
(902,1438,l),
(716,1438,l),
(67,141,l),
(67,0,l)
);
},
{
closed = 1;
nodes = (
(805,1289,l),
(1353,155,l),
(247,155,l)
);
},
{
closed = 1;
nodes = (
(400,502,l),
(685,1294,l),
(975,502,l)
);
},
{
closed = 1;
nodes = (
(217,0,l),
(353,361,l),
(1023,361,l),
(1160,0,l),
(1336,0,l),
(785,1441,l),
(584,1441,l),
(40,0,l)
);
}
);
};
layerId = "2F8B9CD4-7B7F-4ACC-ADF3-B6E0F7033A19";
shapes = (
{
closed = 1;
nodes = (
(1336,0,l),
(785,1441,l),
(584,1441,l),
(40,0,l)
);
},
{
closed = 1;
nodes = (
(685,1294,l),
(1105,141,l),
(270,141,l)
);
}
);
width = 1376;
}
);
metricLeft = A;
metricRight = A;
note = Delta;
unicode = 8710;
},
{
color = 3;
glyphname = product;
layers = (
{
layerId = "2F8B9CD4-7B7F-4ACC-ADF3-B6E0F7033A19";
shapes = (
{
closed = 1;
nodes = (
(1458,1441,l),
(50,1441,l),
(50,1306,l),
(336,1306,l),
(336,0,l),
(510,0,l),
(510,1306,l),
(998,1306,l),
(998,0,l),
(1172,0,l),
(1172,1306,l),
(1458,1306,l)
);
}
);
width = 1507;
}
);
metricLeft = T;
metricRight = T;
note = product;
unicode = 8719;
},
{
color = 3;
glyphname = summation;
layers = (
{
layerId = "2F8B9CD4-7B7F-4ACC-ADF3-B6E0F7033A19";
shapes = (
{
closed = 1;
nodes = (
(1030,139,l),
(294,139,l),
(824,733,l),
(294,1308,l),
(1030,1308,l),
(1030,1441,l),
(90,1441,l),
(90,1317,l),
(637,733,l),
(90,116,l),
(90,0,l),
(1030,0,l)
);
}
);
width = 1134;
}
);
note = summation;
unicode = 8721;
},
{
color = 3;
glyphname = radical;
layers = (
{
background = {
shapes = (
{
closed = 1;
nodes = (
(1049,1439,l),
(765,338,l),
(714,115,l),
(643,338,l),
(373,1034,l),
(28,909,l),
(90,752,l),
(279,822,l),
(613,-23,l),
(840,-23,l),
(1224,1439,l)
);
}
);
};
layerId = "2F8B9CD4-7B7F-4ACC-ADF3-B6E0F7033A19";
shapes = (
{
closed = 1;
nodes = (
(1459,1441,l),
(1285,1441,l),
(929,372,l),
(871,189,l),
(838,189,l),
(780,372,l),
(614,1011,l),
(113,1011,l),
(113,859,l),
(485,859,l),
(741,0,l),
(955,0,l)
);
}
);
width = 1504;
}
);
note = radical;
unicode = 8730;
},
{
color = 3;
glyphname = micro;
layers = (
{
guides = (
{
pos = (484,-215);
}
);
layerId = "2F8B9CD4-7B7F-4ACC-ADF3-B6E0F7033A19";
shapes = (
{
closed = 1;
nodes = (
(180,-389,l),
(334,-389,l),
(334,46,l),
(392,-8,o),
(465,-23,o),
(553,-23,cs),
(720,-23,o),
(817,24,o),
(883,146,c),
(895,0,l),
(1021,0,l),
(1021,1011,l),
(867,1011,l),
(867,405,ls),
(867,190,o),
(786,106,o),
(578,106,cs),
(402,106,o),
(334,187,o),
(334,397,cs),
(334,1011,l),
(180,1011,l)
);
}
);
width = 1201;
}
);
metricLeft = n;
metricRight = u;
note = mu;
unicode = 181;
},
